<svg xmlns="http://www.w3.org/2000/svg" width="475" height="291.383" viewBox="0 0 475 291.383">
  <g id="Gruppe_540" data-name="Gruppe 540" transform="translate(-1401 -2720.616)">
    <g id="Icon_awesome-user" data-name="Icon awesome-user" transform="translate(1407 2726.616)" fill="#020126">
      <path d="M 170.6119384765625 221.3832397460938 L 20.47343635559082 221.3832397460938 C 17.30678939819336 221.3832397460938 14.23284721374512 220.7619476318359 11.33693599700928 219.53662109375 C 8.541729927062988 218.3538818359375 6.031759262084961 216.6614990234375 3.87675952911377 214.5065002441406 C 1.72172999382019 212.3514709472656 0.02937708608806133 209.8415069580078 -1.153358221054077 207.0462951660156 C -2.378711223602295 204.1504211425781 -3.00000524520874 201.0764770507812 -3.00000524520874 197.9098205566406 L -3.00000524520874 180.1661834716797 C -3.00000524520874 172.0264739990234 -1.404005289077759 164.1273803710938 1.743700623512268 156.6882934570312 C 3.256318330764771 153.1134796142578 5.128288745880127 149.6655578613281 7.307641983032227 146.4403228759766 C 9.465700149536133 143.2465972900391 11.94384765625 140.2433013916016 14.67328929901123 137.5138854980469 C 17.40273094177246 134.7844390869141 20.4059944152832 132.3062896728516 23.59972953796387 130.1482391357422 C 26.82496452331543 127.9688873291016 30.27287673950195 126.0969161987305 33.84772872924805 124.5842971801758 C 41.28678894042969 121.4365921020508 49.18590545654297 119.8405914306641 57.32561111450195 119.8405914306641 L 64.44863891601562 119.8405914306641 L 65.1021728515625 119.8405914306641 L 65.69649505615234 120.1124420166016 C 75.20246887207031 124.4604415893555 85.24417114257812 126.6650619506836 95.54267120361328 126.6650619506836 C 100.7523803710938 126.6650619506836 105.9676132202148 126.0902099609375 111.0435256958008 124.9564437866211 C 115.95361328125 123.8597106933594 120.7785263061523 122.2306823730469 125.3842010498047 120.1145629882812 L 125.9804916381836 119.8405914306641 L 126.6367034912109 119.8405914306641 L 133.759765625 119.8405914306641 C 141.8994598388672 119.8405914306641 149.7985534667969 121.4365921020508 157.2376403808594 124.5842971801758 C 160.8124694824219 126.0969161987305 164.2603759765625 127.9688873291016 167.4856109619141 130.1482391357422 C 170.6793518066406 132.3062896728516 173.6826477050781 134.7844390869141 176.4120483398438 137.5138854980469 C 179.1414947509766 140.2433013916016 181.6196441650391 143.2465972900391 183.7776947021484 146.4403228759766 C 185.9570465087891 149.6655578613281 187.8290252685547 153.1134796142578 189.3416442871094 156.6882934570312 C 192.4893493652344 164.1273803710938 194.0853424072266 172.0264739990234 194.0853424072266 180.1661834716797 L 194.0853424072266 197.9098205566406 C 194.0853424072266 201.0764770507812 193.4640502929688 204.1504211425781 192.2387237548828 207.0462951660156 C 191.0559997558594 209.8415069580078 189.3636169433594 212.3514709472656 187.2086181640625 214.5065002441406 C 185.0535888671875 216.6614990234375 182.5436096191406 218.3538818359375 179.7484130859375 219.53662109375 C 176.8525238037109 220.7619476318359 173.7785797119141 221.3832397460938 170.6119384765625 221.3832397460938 Z M 95.54267120361328 112.1916198730469 C 87.76781463623047 112.1916198730469 80.22428894042969 110.6685638427734 73.12161254882812 107.6647338867188 C 69.70808410644531 106.2210922241211 66.41602325439453 104.4343872070312 63.33687591552734 102.3542633056641 C 60.2877311706543 100.2944412231445 57.42058181762695 97.92891693115234 54.81508255004883 95.32341766357422 C 52.2095832824707 92.71791076660156 49.84405517578125 89.85076904296875 47.78422927856445 86.80162048339844 C 45.7041130065918 83.72247314453125 43.91740798950195 80.43041229248047 42.47375869750977 77.01688385009766 C 39.46993637084961 69.91420745849609 37.94687652587891 62.37067794799805 37.94687652587891 54.5958251953125 C 37.94687652587891 46.82094192504883 39.46993637084961 39.27741241455078 42.47375869750977 32.17476654052734 C 43.91740798950195 28.76123809814453 45.7041130065918 25.46914863586426 47.78422927856445 22.39000129699707 C 49.84405517578125 19.34085464477539 52.2095832824707 16.47370719909668 54.81508255004883 13.86820793151855 C 57.42058181762695 11.26270771026611 60.2877311706543 8.897178649902344 63.33687591552734 6.837355136871338 C 66.41602325439453 4.757237434387207 69.70808410644531 2.970531702041626 73.12161254882812 1.52688455581665 C 80.22428894042969 -1.476938962936401 87.76781463623047 -2.999997854232788 95.54267120361328 -2.999997854232788 C 103.3175277709961 -2.999997854232788 110.8610534667969 -1.476938962936401 117.9637298583984 1.52688455581665 C 121.3772583007812 2.970531702041626 124.669319152832 4.757237434387207 127.7484664916992 6.837355136871338 C 130.7976379394531 8.897178649902344 133.6647644042969 11.26270771026611 136.270263671875 13.86820793151855 C 138.8757629394531 16.47370719909668 141.2412872314453 19.34085464477539 143.3011474609375 22.39000129699707 C 145.3812561035156 25.46914863586426 147.16796875 28.76123809814453 148.6115875244141 32.17476654052734 C 151.6154327392578 39.27741241455078 153.1384887695312 46.82094192504883 153.1384887695312 54.5958251953125 C 153.1384887695312 62.37067794799805 151.6154327392578 69.91420745849609 148.6115875244141 77.01688385009766 C 147.16796875 80.43041229248047 145.3812561035156 83.72247314453125 143.3011474609375 86.80162048339844 C 141.2412872314453 89.85076904296875 138.8757629394531 92.71791076660156 136.270263671875 95.32341766357422 C 133.6647644042969 97.92891693115234 130.7976379394531 100.2944412231445 127.7484664916992 102.3542633056641 C 124.669319152832 104.4343872070312 121.3772583007812 106.2210922241211 117.9637298583984 107.6647338867188 C 110.8610534667969 110.6685638427734 103.3175277709961 112.1916198730469 95.54267120361328 112.1916198730469 Z" stroke="none"/>
      <path d="M 95.54267120361328 -1.52587890625e-05 C 65.38700103759766 -1.52587890625e-05 40.94683837890625 24.44015502929688 40.94683837890625 54.5958251953125 C 40.94683837890625 84.75144958496094 65.38700103759766 109.1916198730469 95.54267120361328 109.1916198730469 C 125.6983413696289 109.1916198730469 150.1384735107422 84.75144958496094 150.1384735107422 54.5958251953125 C 150.1384735107422 24.44015502929688 125.6983413696289 -1.52587890625e-05 95.54267120361328 -1.52587890625e-05 M 57.32560729980469 122.8405838012695 C 25.67710876464844 122.8405838012695 0 148.5176544189453 0 180.1661834716797 L 0 197.9098205566406 C 0 209.2128601074219 9.17041015625 218.3832244873047 20.47343444824219 218.3832244873047 L 170.6119079589844 218.3832244873047 C 181.9149780273438 218.3832244873047 191.0853424072266 209.2128601074219 191.0853424072266 197.9098205566406 L 191.0853424072266 180.1661834716797 C 191.0853424072266 148.5176544189453 165.4082336425781 122.8405838012695 133.7597351074219 122.8405838012695 L 126.6366729736328 122.8405838012695 C 117.1677398681641 127.1911849975586 106.632438659668 129.6650543212891 95.54267120361328 129.6650543212891 C 84.45290374755859 129.6650543212891 73.96027374267578 127.1911849975586 64.44863891601562 122.8405838012695 L 57.32560729980469 122.8405838012695 M 95.54267120361328 -6.000015258789062 C 128.9553070068359 -6.000015258789062 156.1384735107422 21.18315124511719 156.1384735107422 54.5958251953125 C 156.1384735107422 88.00845336914062 128.9553070068359 115.1916198730469 95.54267120361328 115.1916198730469 C 62.1300048828125 115.1916198730469 34.94683837890625 88.00845336914062 34.94683837890625 54.5958251953125 C 34.94683837890625 21.18315124511719 62.1300048828125 -6.000015258789062 95.54267120361328 -6.000015258789062 Z M 57.32560729980469 116.8405838012695 L 65.75570678710938 116.8405838012695 L 66.9443359375 117.3842544555664 C 76.05593872070312 121.551887512207 85.67780303955078 123.6650543212891 95.54267120361328 123.6650543212891 C 105.4484024047852 123.6650543212891 115.067138671875 121.5533218383789 124.1316680908203 117.3885192871094 L 125.3242416381836 116.8405838012695 L 133.7597351074219 116.8405838012695 C 168.6776123046875 116.8405838012695 197.0853424072266 145.2483215332031 197.0853424072266 180.1661834716797 L 197.0853424072266 197.9098205566406 C 197.0853424072266 212.5072937011719 185.2094116210938 224.3832244873047 170.6119079589844 224.3832244873047 L 20.47343444824219 224.3832244873047 C 5.875930786132812 224.3832244873047 -6 212.5072937011719 -6 197.9098205566406 L -6 180.1661834716797 C -6 145.2483215332031 22.40774536132812 116.8405838012695 57.32560729980469 116.8405838012695 Z" stroke="none" fill="#f6ae06"/>
    </g>
    <g id="Icon_awesome-user-2" data-name="Icon awesome-user" transform="translate(1678.915 2726.616)" fill="#020126">
      <path d="M 170.6119384765625 221.3832397460938 L 20.47343635559082 221.3832397460938 C 17.30678939819336 221.3832397460938 14.23284721374512 220.7619476318359 11.33693599700928 219.53662109375 C 8.541729927062988 218.3538818359375 6.031759262084961 216.6614990234375 3.87675952911377 214.5065002441406 C 1.72172999382019 212.3514709472656 0.02937708608806133 209.8415069580078 -1.153358221054077 207.0462951660156 C -2.378711223602295 204.1504211425781 -3.00000524520874 201.0764770507812 -3.00000524520874 197.9098205566406 L -3.00000524520874 180.1661834716797 C -3.00000524520874 172.0264739990234 -1.404005289077759 164.1273803710938 1.743700623512268 156.6882934570312 C 3.256318330764771 153.1134796142578 5.128288745880127 149.6655578613281 7.307641983032227 146.4403228759766 C 9.465700149536133 143.2465972900391 11.94384765625 140.2433013916016 14.67328929901123 137.5138854980469 C 17.40273094177246 134.7844390869141 20.4059944152832 132.3062896728516 23.59972953796387 130.1482391357422 C 26.82496452331543 127.9688873291016 30.27287673950195 126.0969161987305 33.84772872924805 124.5842971801758 C 41.28678894042969 121.4365921020508 49.18590545654297 119.8405914306641 57.32561111450195 119.8405914306641 L 64.44863891601562 119.8405914306641 L 65.1021728515625 119.8405914306641 L 65.69649505615234 120.1124420166016 C 75.20246887207031 124.4604415893555 85.24417114257812 126.6650619506836 95.54267120361328 126.6650619506836 C 100.7523803710938 126.6650619506836 105.9676132202148 126.0902099609375 111.0435256958008 124.9564437866211 C 115.95361328125 123.8597106933594 120.7785263061523 122.2306823730469 125.3842010498047 120.1145629882812 L 125.9804916381836 119.8405914306641 L 126.6367034912109 119.8405914306641 L 133.759765625 119.8405914306641 C 141.8994598388672 119.8405914306641 149.7985534667969 121.4365921020508 157.2376403808594 124.5842971801758 C 160.8124694824219 126.0969161987305 164.2603759765625 127.9688873291016 167.4856109619141 130.1482391357422 C 170.6793518066406 132.3062896728516 173.6826477050781 134.7844390869141 176.4120483398438 137.5138854980469 C 179.1414947509766 140.2433013916016 181.6196441650391 143.2465972900391 183.7776947021484 146.4403228759766 C 185.9570465087891 149.6655578613281 187.8290252685547 153.1134796142578 189.3416442871094 156.6882934570312 C 192.4893493652344 164.1273803710938 194.0853424072266 172.0264739990234 194.0853424072266 180.1661834716797 L 194.0853424072266 197.9098205566406 C 194.0853424072266 201.0764770507812 193.4640502929688 204.1504211425781 192.2387237548828 207.0462951660156 C 191.0559997558594 209.8415069580078 189.3636169433594 212.3514709472656 187.2086181640625 214.5065002441406 C 185.0535888671875 216.6614990234375 182.5436096191406 218.3538818359375 179.7484130859375 219.53662109375 C 176.8525238037109 220.7619476318359 173.7785797119141 221.3832397460938 170.6119384765625 221.3832397460938 Z M 95.54267120361328 112.1916198730469 C 87.76781463623047 112.1916198730469 80.22428894042969 110.6685638427734 73.12161254882812 107.6647338867188 C 69.70808410644531 106.2210922241211 66.41602325439453 104.4343872070312 63.33687591552734 102.3542633056641 C 60.2877311706543 100.2944412231445 57.42058181762695 97.92891693115234 54.81508255004883 95.32341766357422 C 52.2095832824707 92.71791076660156 49.84405517578125 89.85076904296875 47.78422927856445 86.80162048339844 C 45.7041130065918 83.72247314453125 43.91740798950195 80.43041229248047 42.47375869750977 77.01688385009766 C 39.46993637084961 69.91420745849609 37.94687652587891 62.37067794799805 37.94687652587891 54.5958251953125 C 37.94687652587891 46.82094192504883 39.46993637084961 39.27741241455078 42.47375869750977 32.17476654052734 C 43.91740798950195 28.76123809814453 45.7041130065918 25.46914863586426 47.78422927856445 22.39000129699707 C 49.84405517578125 19.34085464477539 52.2095832824707 16.47370719909668 54.81508255004883 13.86820793151855 C 57.42058181762695 11.26270771026611 60.2877311706543 8.897178649902344 63.33687591552734 6.837355136871338 C 66.41602325439453 4.757237434387207 69.70808410644531 2.970531702041626 73.12161254882812 1.52688455581665 C 80.22428894042969 -1.476938962936401 87.76781463623047 -2.999997854232788 95.54267120361328 -2.999997854232788 C 103.3175277709961 -2.999997854232788 110.8610534667969 -1.476938962936401 117.9637298583984 1.52688455581665 C 121.3772583007812 2.970531702041626 124.669319152832 4.757237434387207 127.7484664916992 6.837355136871338 C 130.7976379394531 8.897178649902344 133.6647644042969 11.26270771026611 136.270263671875 13.86820793151855 C 138.8757629394531 16.47370719909668 141.2412872314453 19.34085464477539 143.3011474609375 22.39000129699707 C 145.3812561035156 25.46914863586426 147.16796875 28.76123809814453 148.6115875244141 32.17476654052734 C 151.6154327392578 39.27741241455078 153.1384887695312 46.82094192504883 153.1384887695312 54.5958251953125 C 153.1384887695312 62.37067794799805 151.6154327392578 69.91420745849609 148.6115875244141 77.01688385009766 C 147.16796875 80.43041229248047 145.3812561035156 83.72247314453125 143.3011474609375 86.80162048339844 C 141.2412872314453 89.85076904296875 138.8757629394531 92.71791076660156 136.270263671875 95.32341766357422 C 133.6647644042969 97.92891693115234 130.7976379394531 100.2944412231445 127.7484664916992 102.3542633056641 C 124.669319152832 104.4343872070312 121.3772583007812 106.2210922241211 117.9637298583984 107.6647338867188 C 110.8610534667969 110.6685638427734 103.3175277709961 112.1916198730469 95.54267120361328 112.1916198730469 Z" stroke="none"/>
      <path d="M 95.54267120361328 -1.52587890625e-05 C 65.38700103759766 -1.52587890625e-05 40.94683837890625 24.44015502929688 40.94683837890625 54.5958251953125 C 40.94683837890625 84.75144958496094 65.38700103759766 109.1916198730469 95.54267120361328 109.1916198730469 C 125.6983413696289 109.1916198730469 150.1384735107422 84.75144958496094 150.1384735107422 54.5958251953125 C 150.1384735107422 24.44015502929688 125.6983413696289 -1.52587890625e-05 95.54267120361328 -1.52587890625e-05 M 57.32560729980469 122.8405838012695 C 25.67710876464844 122.8405838012695 0 148.5176544189453 0 180.1661834716797 L 0 197.9098205566406 C 0 209.2128601074219 9.17041015625 218.3832244873047 20.47343444824219 218.3832244873047 L 170.6119079589844 218.3832244873047 C 181.9149780273438 218.3832244873047 191.0853424072266 209.2128601074219 191.0853424072266 197.9098205566406 L 191.0853424072266 180.1661834716797 C 191.0853424072266 148.5176544189453 165.4082336425781 122.8405838012695 133.7597351074219 122.8405838012695 L 126.6366729736328 122.8405838012695 C 117.1677398681641 127.1911849975586 106.632438659668 129.6650543212891 95.54267120361328 129.6650543212891 C 84.45290374755859 129.6650543212891 73.96027374267578 127.1911849975586 64.44863891601562 122.8405838012695 L 57.32560729980469 122.8405838012695 M 95.54267120361328 -6.000015258789062 C 128.9553070068359 -6.000015258789062 156.1384735107422 21.18315124511719 156.1384735107422 54.5958251953125 C 156.1384735107422 88.00845336914062 128.9553070068359 115.1916198730469 95.54267120361328 115.1916198730469 C 62.1300048828125 115.1916198730469 34.94683837890625 88.00845336914062 34.94683837890625 54.5958251953125 C 34.94683837890625 21.18315124511719 62.1300048828125 -6.000015258789062 95.54267120361328 -6.000015258789062 Z M 57.32560729980469 116.8405838012695 L 65.75570678710938 116.8405838012695 L 66.9443359375 117.3842544555664 C 76.05593872070312 121.551887512207 85.67780303955078 123.6650543212891 95.54267120361328 123.6650543212891 C 105.4484024047852 123.6650543212891 115.067138671875 121.5533218383789 124.1316680908203 117.3885192871094 L 125.3242416381836 116.8405838012695 L 133.7597351074219 116.8405838012695 C 168.6776123046875 116.8405838012695 197.0853424072266 145.2483215332031 197.0853424072266 180.1661834716797 L 197.0853424072266 197.9098205566406 C 197.0853424072266 212.5072937011719 185.2094116210938 224.3832244873047 170.6119079589844 224.3832244873047 L 20.47343444824219 224.3832244873047 C 5.875930786132812 224.3832244873047 -6 212.5072937011719 -6 197.9098205566406 L -6 180.1661834716797 C -6 145.2483215332031 22.40774536132812 116.8405838012695 57.32560729980469 116.8405838012695 Z" stroke="none" fill="#f6ae06"/>
    </g>
    <g id="Icon_awesome-user-3" data-name="Icon awesome-user" transform="translate(1545 2778.616)" fill="#020126">
      <path d="M 170.6119232177734 225.8832244873047 L 20.47342109680176 225.8832244873047 C 5.048814296722412 225.8832244873047 -7.500007152557373 213.3344116210938 -7.500007152557373 197.9098358154297 L -7.500007152557373 180.1661987304688 C -7.500007152557373 144.4212341308594 21.58063507080078 115.3405838012695 57.32559967041016 115.3405838012695 L 64.44863891601562 115.3405838012695 L 66.08248901367188 115.3405838012695 L 67.56827545166016 116.0201950073242 C 76.48270416259766 120.09765625 85.89463806152344 122.1650848388672 95.54267120361328 122.1650848388672 C 105.2306365966797 122.1650848388672 114.638671875 120.0994415283203 123.5054550170898 116.0255126953125 L 124.9961700439453 115.3405838012695 L 126.6367034912109 115.3405838012695 L 133.7597351074219 115.3405838012695 C 169.5046997070312 115.3405838012695 198.5853424072266 144.4212341308594 198.5853424072266 180.1661987304688 L 198.5853424072266 197.9098358154297 C 198.5853424072266 213.3344116210938 186.0365295410156 225.8832244873047 170.6119232177734 225.8832244873047 Z M 95.54267120361328 116.6916198730469 C 61.30292129516602 116.6916198730469 33.44684982299805 88.83554840087891 33.44684982299805 54.59579849243164 C 33.44684982299805 20.35604858398438 61.30292129516602 -7.499987125396729 95.54267120361328 -7.499987125396729 C 129.7824249267578 -7.499987125396729 157.6384887695312 20.35604858398438 157.6384887695312 54.59579849243164 C 157.6384887695312 88.83554840087891 129.7824249267578 116.6916198730469 95.54267120361328 116.6916198730469 Z" stroke="none"/>
      <path d="M 95.54267120361328 0 C 65.38700103759766 0 40.94683837890625 24.44015502929688 40.94683837890625 54.59577941894531 C 40.94683837890625 84.75144958496094 65.38700103759766 109.1916198730469 95.54267120361328 109.1916198730469 C 125.6983413696289 109.1916198730469 150.1385040283203 84.75144958496094 150.1385040283203 54.59577941894531 C 150.1385040283203 24.44015502929688 125.6983413696289 0 95.54267120361328 0 M 57.32559204101562 122.840576171875 C 25.67709350585938 122.840576171875 0 148.5176696777344 0 180.1661682128906 L 0 197.9098205566406 C 0 209.2128753662109 9.170379638671875 218.3832397460938 20.47341918945312 218.3832397460938 L 170.6119232177734 218.3832397460938 C 181.9149627685547 218.3832397460938 191.0853424072266 209.2128753662109 191.0853424072266 197.9098205566406 L 191.0853424072266 180.1661682128906 C 191.0853424072266 148.5176696777344 165.4082489013672 122.840576171875 133.7597503662109 122.840576171875 L 126.6366729736328 122.840576171875 C 117.1677093505859 127.1912002563477 106.6324234008789 129.6650695800781 95.54267120361328 129.6650695800781 C 84.452880859375 129.6650695800781 73.96025085449219 127.1912002563477 64.44863128662109 122.840576171875 L 57.32559204101562 122.840576171875 M 95.54267120361328 -15 C 133.91796875 -15 165.1385040283203 16.22053527832031 165.1385040283203 54.59577941894531 C 165.1385040283203 76.08586120605469 155.3498840332031 95.33049774169922 139.9948120117188 108.1068649291992 C 176.9668731689453 111.2790832519531 206.0853424072266 142.3863372802734 206.0853424072266 180.1661682128906 L 206.0853424072266 197.9098205566406 C 206.0853424072266 217.4699554443359 190.1720428466797 233.3832397460938 170.6119232177734 233.3832397460938 L 20.47341918945312 233.3832397460938 C 0.913299560546875 233.3832397460938 -15 217.4699554443359 -15 197.9098205566406 L -15 180.1661682128906 C -15 142.3863372802734 14.11846923828125 111.2790832519531 51.09053039550781 108.1068649291992 C 35.73545837402344 95.33049774169922 25.94683837890625 76.08586120605469 25.94683837890625 54.59577941894531 C 25.94683837890625 16.22053527832031 57.16737365722656 -15 95.54267120361328 -15 Z" stroke="none" fill="#f6ae06"/>
    </g>
  </g>
</svg>
