<svg xmlns="http://www.w3.org/2000/svg" xmlns:xlink="http://www.w3.org/1999/xlink" width="915.184" height="416.17" viewBox="0 0 915.184 416.17">
  <defs>
    <linearGradient id="linear-gradient" y1="0.5" x2="1" y2="0.5" gradientUnits="objectBoundingBox">
      <stop offset="0" stop-color="#020026"/>
      <stop offset="1" stop-color="#151b6e"/>
    </linearGradient>
    <radialGradient id="radial-gradient" cx="-0.009" cy="0.161" r="2.801" gradientTransform="translate(0.315) scale(0.37 1)" gradientUnits="objectBoundingBox">
      <stop offset="0.004" stop-color="#151b6e"/>
      <stop offset="0.119" stop-color="#10145b"/>
      <stop offset="0.306" stop-color="#090b43"/>
      <stop offset="0.507" stop-color="#050433"/>
      <stop offset="0.726" stop-color="#020129"/>
      <stop offset="1" stop-color="#020026"/>
    </radialGradient>
    <radialGradient id="radial-gradient-2" cx="0.865" cy="1.158" r="2.776" gradientTransform="translate(0.313) scale(0.374 1)" gradientUnits="objectBoundingBox">
      <stop offset="0.004" stop-color="#4c02f1"/>
      <stop offset="0.008" stop-color="#4b02ef"/>
      <stop offset="0.126" stop-color="#3802c3"/>
      <stop offset="0.249" stop-color="#29029e"/>
      <stop offset="0.377" stop-color="#1c037f"/>
      <stop offset="0.51" stop-color="#120367"/>
      <stop offset="0.651" stop-color="#0b0357"/>
      <stop offset="0.806" stop-color="#07034d"/>
      <stop offset="1" stop-color="#06044a"/>
    </radialGradient>
    <radialGradient id="radial-gradient-3" cx="0.11" cy="-0.227" r="2.045" gradientTransform="translate(0.211) scale(0.577 1)" gradientUnits="objectBoundingBox">
      <stop offset="0" stop-color="#151b6e"/>
      <stop offset="1" stop-color="#020026"/>
    </radialGradient>
  </defs>
  <g id="Gruppe_87" data-name="Gruppe 87" transform="translate(-66.727 -126.264)">
    <path id="Pfad_79" data-name="Pfad 79" d="M507.213,278.23a14.329,14.329,0,0,1-7.171-1.914h0l-24.179-13.961a4.476,4.476,0,0,1,0-7.756L500.04,240.64a14.379,14.379,0,0,1,14.342,0L538.561,254.6a4.476,4.476,0,0,1,0,7.756l-24.177,13.961A14.329,14.329,0,0,1,507.213,278.23ZM501.958,273a10.539,10.539,0,0,0,10.511,0l24.179-13.959a.646.646,0,0,0,0-1.117l-24.181-13.961a10.544,10.544,0,0,0-10.511,0L477.776,257.92a.646.646,0,0,0,0,1.117Z" transform="translate(431.346 119.218)" fill="url(#linear-gradient)"/>
    <path id="Pfad_80" data-name="Pfad 80" d="M332.784,361.844a23.27,23.27,0,0,1-11.65-3.113l-41.612-24.023a6.324,6.324,0,0,1,0-10.953l41.61-24.023a23.347,23.347,0,0,1,23.3,0l41.61,24.025a6.322,6.322,0,0,1,0,10.952l-41.61,24.023A23.286,23.286,0,0,1,332.784,361.844Zm0-61.393a19.474,19.474,0,0,0-9.734,2.6l-41.61,24.023a2.492,2.492,0,0,0,0,4.316l41.61,24.023h0a19.525,19.525,0,0,0,19.466,0l41.614-24.023a2.494,2.494,0,0,0,0-4.314l-41.612-24.025A19.476,19.476,0,0,0,332.782,300.451Z" transform="translate(222.231 180.59)" fill="url(#linear-gradient)"/>
    <path id="Pfad_81" data-name="Pfad 81" d="M321.106,356.09l-41.612-24.025a4.407,4.407,0,0,1,0-7.633L321.1,300.41a21.38,21.38,0,0,1,21.386,0l41.61,24.023a4.407,4.407,0,0,1,0,7.635L342.491,356.09A21.39,21.39,0,0,1,321.106,356.09Z" transform="translate(223.217 181.573)" opacity="0.1" fill="url(#linear-gradient)"/>
    <path id="Pfad_82" data-name="Pfad 82" d="M163.93,324.306a39.569,39.569,0,0,1-19.8-5.29L71.76,277.232a10.07,10.07,0,0,1,0-17.439l72.369-41.781a39.7,39.7,0,0,1,39.6,0L256.1,259.8a10.068,10.068,0,0,1,0,17.437l-72.371,41.783A39.574,39.574,0,0,1,163.93,324.306Zm0-106.779a34.783,34.783,0,0,0-17.4,4.646L74.162,263.955a5.264,5.264,0,0,0,0,9.116l72.373,41.785h0a34.888,34.888,0,0,0,34.791,0L253.7,273.071a5.262,5.262,0,0,0,0-9.114l-72.373-41.785A34.785,34.785,0,0,0,163.926,217.527Z" transform="translate(0 91.655)" fill="url(#linear-gradient)"/>
    <path id="Pfad_83" data-name="Pfad 83" d="M218.521,229.2a32.19,32.19,0,0,1-16.1-4.3h0l-58.908-34.012a8.155,8.155,0,0,1,0-14.126l58.906-34.01a32.274,32.274,0,0,1,32.191,0l58.91,34.012a8.153,8.153,0,0,1,0,14.124L234.618,224.9A32.2,32.2,0,0,1,218.521,229.2Zm-14.178-7.618a28.441,28.441,0,0,0,28.357,0l58.906-34.012a4.322,4.322,0,0,0,0-7.486L232.7,146.07a28.446,28.446,0,0,0-28.357,0l-58.908,34.01a4.326,4.326,0,0,0,0,7.488Z" transform="translate(77.08 12.921)" fill="url(#linear-gradient)"/>
    <path id="Pfad_84" data-name="Pfad 84" d="M202.4,222.26l-58.908-34.012a6.238,6.238,0,0,1,0-10.805l58.906-34.01a30.267,30.267,0,0,1,30.275,0l58.91,34.01a6.24,6.24,0,0,1,0,10.807l-58.908,34.01A30.277,30.277,0,0,1,202.4,222.26Z" transform="translate(78.067 13.9)" opacity="0.1" fill="url(#linear-gradient)"/>
    <path id="Pfad_85" data-name="Pfad 85" d="M514.2,288.242a44.508,44.508,0,0,1-22.27-5.95h0l-82.943-47.887a10.7,10.7,0,0,1,0-18.535l82.939-47.887a44.653,44.653,0,0,1,44.543,0l82.943,47.889a10.7,10.7,0,0,1,0,18.535l-82.943,47.885A44.51,44.51,0,0,1,514.2,288.242Zm-20.354-9.268a40.836,40.836,0,0,0,40.708,0l82.943-47.885a6.871,6.871,0,0,0,0-11.9L534.551,171.3a40.833,40.833,0,0,0-40.712,0L410.9,219.19a6.869,6.869,0,0,0,0,11.9Z" transform="translate(357.151 37.919)" fill="url(#linear-gradient)"/>
    <g id="Gruppe_74" data-name="Gruppe 74" transform="translate(452.463 243.235)">
      <path id="Pfad_86" data-name="Pfad 86" d="M290.055,190.762l53,30.6a12.245,12.245,0,0,0,11.077,0c3.057-1.766,3.057-4.629,0-6.395l-53.006-30.6a12.241,12.241,0,0,0-11.075,0C287,186.133,287,189,290.055,190.762Z" transform="translate(-218.146 -183.043)" fill="#151b6e"/>
      <path id="Pfad_87" data-name="Pfad 87" d="M278.791,190.869c-3.059,1.768-3.057,4.629,0,6.395l81.534,47.075a12.241,12.241,0,0,0,11.075,0c3.059-1.765,3.057-4.629,0-6.395l-81.534-47.073A12.248,12.248,0,0,0,278.791,190.869Z" transform="translate(-230.087 -176.149)" fill="#151b6e" opacity="0.6"/>
      <path id="Pfad_88" data-name="Pfad 88" d="M267.528,203.769l16.349,9.439a12.241,12.241,0,0,0,11.075,0c3.059-1.766,3.059-4.629,0-6.395L278.6,197.374a12.246,12.246,0,0,0-11.077,0C264.469,199.14,264.469,202,267.528,203.769Z" transform="translate(-242.028 -169.255)" fill="#151b6e"/>
      <path id="Pfad_89" data-name="Pfad 89" d="M256.262,210.272l46.15,26.645a12.241,12.241,0,0,0,11.075,0c3.059-1.765,3.057-4.629,0-6.395l-46.148-26.645a12.245,12.245,0,0,0-11.077,0C253.2,205.645,253.2,208.506,256.262,210.272Z" transform="translate(-253.969 -162.361)" fill="#151b6e"/>
      <path id="Pfad_90" data-name="Pfad 90" d="M342.488,240.654c3.059-1.768,3.057-4.629,0-6.395L296.34,207.614a12.252,12.252,0,0,0-11.077,0c-3.057,1.765-3.057,4.629,0,6.395l46.15,26.645A12.241,12.241,0,0,0,342.488,240.654Z" transform="translate(-223.225 -158.399)" fill="#151b6e"/>
      <path id="Pfad_91" data-name="Pfad 91" d="M344.42,235.375l-2.713-1.566-13.11-7.571a12.241,12.241,0,0,0-11.075,0c-3.057,1.765-3.057,4.629,0,6.394l13.11,7.571,2.711,1.566,13.112,7.569a12.241,12.241,0,0,0,11.075,0c3.059-1.766,3.059-4.629,0-6.395Z" transform="translate(-189.029 -138.656)" fill="#151b6e" opacity="0.6"/>
    </g>
    <g id="Gruppe_77" data-name="Gruppe 77" transform="translate(640.393 126.264)">
      <g id="Gruppe_75" data-name="Gruppe 75" transform="translate(68.601)">
        <path id="Pfad_92" data-name="Pfad 92" d="M450.239,128.5a10.867,10.867,0,0,1,9.833,0l4.841,2.818c2.715,1.568,2.715,4.11,0,5.678a10.866,10.866,0,0,1-9.833,0l-4.841-2.818C447.521,132.612,447.521,130.07,450.239,128.5Z" transform="translate(-304.596 -125.137)" fill="#020026"/>
        <path id="Pfad_93" data-name="Pfad 93" d="M427.922,127.439a10.873,10.873,0,0,1,9.833,0L467.5,144.614c2.715,1.566,2.715,4.11,0,5.676a10.86,10.86,0,0,1-9.833,0l-29.746-17.173C425.2,131.549,425.2,129.008,427.922,127.439Z" transform="translate(-328.254 -126.264)" fill="#020026"/>
        <path id="Pfad_94" data-name="Pfad 94" d="M383.418,160.8a10.867,10.867,0,0,1,9.833,0l16.067,9.277c2.715,1.568,2.715,4.11,0,5.678a10.873,10.873,0,0,1-9.833,0l-16.067-9.277C380.7,164.91,380.7,162.368,383.418,160.8Z" transform="translate(-375.43 -90.898)" fill="#020026"/>
        <path id="Pfad_95" data-name="Pfad 95" d="M394.621,155.457a10.866,10.866,0,0,1,9.833,0l14.06,8.117c2.715,1.568,2.715,4.11,0,5.678a10.867,10.867,0,0,1-9.833,0l-14.06-8.117C391.906,159.567,391.9,157.025,394.621,155.457Z" transform="translate(-363.554 -96.562)" fill="#020026" opacity="0.4"/>
        <path id="Pfad_96" data-name="Pfad 96" d="M380.531,135.481a10.867,10.867,0,0,1,9.833,0l64.16,37.1c2.715,1.568,2.715,4.11,0,5.678a10.866,10.866,0,0,1-9.833,0l-64.162-37.1C377.814,139.589,377.814,137.049,380.531,135.481Z" transform="translate(-378.493 -117.739)" fill="#020026" opacity="0.4"/>
        <path id="Pfad_97" data-name="Pfad 97" d="M410.523,141.017a10.873,10.873,0,0,1,9.833,0L443.8,154.55c2.715,1.568,2.715,4.11,0,5.678a10.86,10.86,0,0,1-9.833,0l-23.444-13.535C407.808,145.127,407.808,142.585,410.523,141.017Z" transform="translate(-346.696 -111.87)" fill="#020026"/>
        <path id="Pfad_98" data-name="Pfad 98" d="M425.305,137.741a10.871,10.871,0,0,1,9.835,0l14.058,8.117c2.715,1.568,2.715,4.11,0,5.678a10.867,10.867,0,0,1-9.833,0l-14.06-8.117C422.592,141.851,422.59,139.309,425.305,137.741Z" transform="translate(-331.025 -115.343)" fill="#020026"/>
      </g>
      <g id="Gruppe_76" data-name="Gruppe 76" transform="translate(0 53.048)">
        <path id="Pfad_99" data-name="Pfad 99" d="M388.868,163.927a10.867,10.867,0,0,1,9.833,0l4.841,2.818c2.715,1.568,2.715,4.11,0,5.678a10.866,10.866,0,0,1-9.833,0l-4.841-2.818C386.15,168.037,386.15,165.5,388.868,163.927Z" transform="translate(-301.054 -140.631)" fill="#020026"/>
        <path id="Pfad_100" data-name="Pfad 100" d="M349.844,153.19a10.86,10.86,0,0,1,9.833,0l64.162,37.1c2.715,1.568,2.715,4.11,0,5.678a10.873,10.873,0,0,1-9.833,0l-64.162-37.1C347.129,157.3,347.129,154.758,349.844,153.19Z" transform="translate(-342.421 -152.014)" fill="#020026" opacity="0.4"/>
        <path id="Pfad_101" data-name="Pfad 101" d="M347.229,163.491a10.871,10.871,0,0,1,9.835,0l48.474,28.048c2.715,1.568,2.715,4.11,0,5.678a10.866,10.866,0,0,1-9.833,0l-48.476-28.048C344.515,167.6,344.513,165.059,347.229,163.491Z" transform="translate(-345.193 -141.093)" fill="#020026"/>
      </g>
    </g>
    <g id="Gruppe_82" data-name="Gruppe 82" transform="translate(228.067 366.175)">
      <g id="Gruppe_81" data-name="Gruppe 81" transform="translate(0 0)">
        <g id="Gruppe_80" data-name="Gruppe 80">
          <g id="Gruppe_78" data-name="Gruppe 78" transform="translate(5.7)">
            <path id="Pfad_102" data-name="Pfad 102" d="M194.185,243.892a10.825,10.825,0,0,1,9.8,0l63.931,36.972c2.7,1.562,2.7,4.093,0,5.657a10.832,10.832,0,0,1-9.8,0l-63.931-36.973C191.478,247.985,191.478,245.454,194.185,243.892Z" transform="translate(-100.802 -242.72)" fill="#020026"/>
            <path id="Pfad_103" data-name="Pfad 103" d="M149.841,277.133a10.831,10.831,0,0,1,9.8,0l50.3,29.1c2.7,1.562,2.7,4.1,0,5.657a10.829,10.829,0,0,1-9.8,0l-50.3-29.1C147.134,281.228,147.134,278.7,149.841,277.133Z" transform="translate(-147.81 -207.481)" fill="#020026"/>
            <path id="Pfad_104" data-name="Pfad 104" d="M177.649,281.45a10.832,10.832,0,0,1,9.8,0l14.011,8.088c2.7,1.562,2.7,4.1,0,5.657a10.832,10.832,0,0,1-9.8,0l-14.009-8.088C174.944,285.545,174.942,283.011,177.649,281.45Z" transform="translate(-118.33 -202.905)" fill="#020026" opacity="0.5"/>
            <path id="Pfad_105" data-name="Pfad 105" d="M180.255,271.185a10.832,10.832,0,0,1,9.8,0L219.691,288.3c2.707,1.562,2.707,4.093,0,5.657a10.831,10.831,0,0,1-9.8,0l-29.639-17.113C177.548,275.28,177.548,272.748,180.255,271.185Z" transform="translate(-115.569 -213.787)" fill="#020026"/>
            <path id="Pfad_106" data-name="Pfad 106" d="M193.494,267.061a10.836,10.836,0,0,1,9.8,0l23.357,13.485c2.707,1.561,2.7,4.1,0,5.657a10.825,10.825,0,0,1-9.8,0l-23.359-13.485C190.789,271.156,190.789,268.622,193.494,267.061Z" transform="translate(-101.532 -218.158)" fill="#020026"/>
            <path id="Pfad_107" data-name="Pfad 107" d="M191.58,254.156a10.831,10.831,0,0,1,9.8,0l48.3,27.949c2.7,1.562,2.7,4.1,0,5.657a10.831,10.831,0,0,1-9.8,0l-48.3-27.949C188.873,258.251,188.873,255.719,191.58,254.156Z" transform="translate(-103.563 -231.839)" fill="#020026" opacity="0.5"/>
          </g>
          <g id="Gruppe_79" data-name="Gruppe 79" transform="translate(0 75.983)">
            <path id="Pfad_108" data-name="Pfad 108" d="M154.3,279.691c2.7-1.562,41.385,18.3,44.092,19.861l4.825,2.808c2.7,1.562,2.7,4.1,0,5.657a10.836,10.836,0,0,1-9.8,0l-4.823-2.808C185.891,303.646,151.6,281.255,154.3,279.691Z" transform="translate(-135.389 -279.604)" fill="#020026"/>
            <path id="Pfad_109" data-name="Pfad 109" d="M149.678,288.831a10.83,10.83,0,0,1,9.8,0l29.639,17.111c2.7,1.562,2.7,4.1,0,5.657a10.83,10.83,0,0,1-9.8,0l-29.639-17.111C146.973,292.924,146.973,290.393,149.678,288.831Z" transform="translate(-142.282 -271.064)" fill="#020026"/>
            <path id="Pfad_110" data-name="Pfad 110" d="M147.073,299.095a10.831,10.831,0,0,1,9.8,0l14.011,8.088c2.7,1.564,2.7,4.1,0,5.657a10.823,10.823,0,0,1-9.8,0l-14.009-8.088C144.368,303.19,144.366,300.658,147.073,299.095Z" transform="translate(-145.044 -260.183)" fill="#020026"/>
          </g>
        </g>
      </g>
    </g>
    <g id="Gruppe_83" data-name="Gruppe 83" transform="translate(812.453 228.732)">
      <path id="Pfad_111" data-name="Pfad 111" d="M458,182.267l43.021,24.841a9.946,9.946,0,0,0,8.99,0c2.482-1.434,2.48-3.758,0-5.191l-43.023-24.839a9.935,9.935,0,0,0-8.988,0C455.522,178.512,455.522,180.836,458,182.267Z" transform="translate(-399.637 -176.003)" fill="#151b6e"/>
      <path id="Pfad_112" data-name="Pfad 112" d="M448.861,182.357c-2.482,1.432-2.482,3.756,0,5.189l36.729,21.3a9.933,9.933,0,0,0,8.99,0c2.482-1.432,2.482-3.756,0-5.189l-36.729-21.3A9.932,9.932,0,0,0,448.861,182.357Z" transform="translate(-409.329 -170.408)" fill="#151b6e" opacity="0.6"/>
      <path id="Pfad_113" data-name="Pfad 113" d="M439.718,192.826l13.271,7.661a9.935,9.935,0,0,0,8.988,0c2.484-1.434,2.482-3.758,0-5.191l-13.269-7.661a9.939,9.939,0,0,0-8.99,0C437.236,189.069,437.236,191.393,439.718,192.826Z" transform="translate(-419.022 -164.812)" fill="#151b6e"/>
      <path id="Pfad_114" data-name="Pfad 114" d="M430.575,198.1l37.459,21.627a9.941,9.941,0,0,0,8.988,0c2.482-1.434,2.482-3.758,0-5.191l-37.457-21.625a9.933,9.933,0,0,0-8.99,0C428.092,194.348,428.094,196.672,430.575,198.1Z" transform="translate(-428.714 -159.216)" fill="#020026"/>
      <path id="Pfad_115" data-name="Pfad 115" d="M487.423,215.127c2.482-1.434,2.482-3.758,0-5.191L463.1,195.947a9.933,9.933,0,0,0-8.99,0c-2.48,1.434-2.48,3.758,0,5.189l24.319,13.99A9.945,9.945,0,0,0,487.423,215.127Z" transform="translate(-403.76 -156.001)" fill="#151b6e"/>
    </g>
    <path id="Pfad_116" data-name="Pfad 116" d="M107.837,236.6l43.021,24.839a9.933,9.933,0,0,0,8.99,0c2.482-1.432,2.482-3.756,0-5.189l-43.021-24.839a9.933,9.933,0,0,0-8.99,0C105.355,232.849,105.355,235.173,107.837,236.6Z" transform="translate(41.607 110.331)" fill="#151b6e"/>
    <path id="Pfad_117" data-name="Pfad 117" d="M98.694,236.694c-2.482,1.432-2.48,3.756,0,5.189l36.731,21.3a9.928,9.928,0,0,0,8.988,0c2.482-1.432,2.482-3.758,0-5.189l-36.729-21.3A9.933,9.933,0,0,0,98.694,236.694Z" transform="translate(31.915 115.927)" fill="#151b6e" opacity="0.6"/>
    <g id="Gruppe_86" data-name="Gruppe 86" transform="translate(357.107 179.81)">
      <g id="Gruppe_84" data-name="Gruppe 84">
        <path id="Pfad_118" data-name="Pfad 118" d="M584.747,212.592c-.9-2.334-1.982-4.652-3.148-6.955-.863,8.008-4.135,16.015-7.971,24.025a59.076,59.076,0,0,1-.185,15.686l-9.246,3.3-25.362,24.871-33.814,17.4-38.963,13.6-45.578,8.086h-38.96l-45.946-8.455-52.928-13.232-42.269-29.406-16.493-14.629a59.612,59.612,0,0,1-.828-9.641c-4.159-8.516-6.856-17.83-9.569-27.428q-.776,1.786-1.448,3.587l-4.357-7.536v32.982l.08-.074c.867,27.521,19.451,54.885,55.826,75.888,74.54,43.035,195.392,43.037,269.928,0,37.436-21.615,56.03-49.97,55.853-78.3l.027.029V205.866Z" transform="translate(-207.682 -95.667)" fill="url(#radial-gradient)"/>
        <path id="Pfad_119" data-name="Pfad 119" d="M271.423,219.725c68.558-39.583,179.716-39.581,248.276,0,31.161,17.991,48.113,41.06,50.942,64.592,3.836-8.01,7.107-16.017,7.971-24.025a84.562,84.562,0,0,0-6.747-11.147l5.519-.484-27.2-47.539L470.546,162.9l-71.8-8.821L337.367,161.8,298.4,169.148l-31.61,14.7-32.712,23.891L217.91,239.718l-2.04,14.493a79.134,79.134,0,0,0-5.371,10.261c2.713,9.6,5.41,18.912,9.569,27.428C219.843,265.793,236.921,239.646,271.423,219.725Z" transform="translate(-204.695 -150.324)" fill="url(#radial-gradient-2)"/>
        <path id="Pfad_120" data-name="Pfad 120" d="M533.512,184.534c-74.54-43.035-195.39-43.037-269.928,0s-74.536,112.809,0,155.844,195.392,43.035,269.928,0S608.053,227.569,533.512,184.534ZM522.691,334.127c-68.558,39.583-179.716,39.581-248.276,0s-68.562-103.761,0-143.343,179.716-39.583,248.276,0S591.251,294.545,522.691,334.127Z" transform="translate(-207.682 -152.256)" fill="url(#radial-gradient-3)"/>
      </g>
      <g id="Gruppe_85" data-name="Gruppe 85" transform="translate(306.416 199.79)">
        <path id="Pfad_121" data-name="Pfad 121" d="M606.148,410.165a11.687,11.687,0,0,1-5.869-1.58L362.3,271.189a11.761,11.761,0,0,1,11.763-20.37l237.974,137.4a11.763,11.763,0,0,1-5.892,21.95Z" transform="translate(-356.421 -249.237)" fill="url(#linear-gradient)"/>
      </g>
      <path id="Pfad_122" data-name="Pfad 122" d="M374.066,250.819a11.761,11.761,0,0,0-11.763,20.37l17.152,9.9h0s-6.238-15.78,12.251-20.088h0Z" transform="translate(-50.005 -49.447)" fill="#020230" opacity="0.6"/>
    </g>
  </g>
</svg>
