<svg xmlns="http://www.w3.org/2000/svg" width="984.4" height="248.697" viewBox="0 0 984.4 248.697">
  <g id="Gruppe_450" data-name="Gruppe 450" transform="translate(-157.645 -248.771)">
    <g id="Gruppe_140" data-name="Gruppe 140" transform="translate(157.645 248.771)">
      <g id="Gruppe_139" data-name="Gruppe 139" transform="translate(0 0)" style="isolation: isolate">
        <path id="Pfad_134" data-name="Pfad 134" d="M204.665,418.622q2.284,16.153,8.985,24.149,12.245,14.556,41.967,14.554,17.8,0,28.9-3.838,21.064-7.358,21.064-27.349,0-11.676-10.319-18.073-10.323-6.237-32.729-11.036l-25.525-5.6q-37.624-8.316-51.7-18.073-23.829-16.313-23.829-51.018,0-31.667,23.312-52.618t68.486-20.952q37.721,0,64.358,19.747,26.629,19.764,27.928,57.34h-47.34q-1.315-21.27-19.022-30.227-11.805-5.916-29.347-5.917-19.514,0-31.153,7.678t-11.641,21.43q0,12.637,11.478,18.873,7.378,4.159,31.32,9.757l41.37,9.755q27.2,6.4,40.776,17.114,21.076,16.631,21.076,48.139,0,32.307-24.977,53.654-24.979,21.365-70.562,21.355-46.559,0-73.23-21.035t-26.671-57.812Z" transform="translate(-157.645 -248.771)" fill="#020126"/>
        <path id="Pfad_135" data-name="Pfad 135" d="M526.567,404.629Q528,416.785,532.835,421.9q8.51,9.117,31.491,9.116,13.5,0,21.455-4t7.959-12a12.932,12.932,0,0,0-6.414-11.674q-6.408-4-47.683-13.754-29.713-7.358-41.865-18.393-12.153-10.874-12.154-31.348,0-24.147,18.995-41.5T558.065,281q32.7,0,53.29,13.031,20.6,13.046,23.646,45.027H589.421q-.97-8.8-4.973-13.915-7.54-9.276-25.657-9.277-14.921,0-21.249,4.64T531.2,331.38q0,7.838,6.732,11.354,6.742,3.679,47.594,12.636,27.233,6.4,40.835,19.353Q639.8,387.836,639.8,407.509q0,25.91-19.313,42.3t-59.694,16.4q-41.185,0-60.815-17.356t-19.634-44.219Z" transform="translate(153.799 -217.666)" fill="#020126"/>
        <path id="Pfad_136" data-name="Pfad 136" d="M703.7,314.26a51.16,51.16,0,0,1,21.585,17.128,45.644,45.644,0,0,1,8.751,20.091q1.6,10.317,1.6,33.694v102.45H689.1V381.463q0-14.084-4.767-22.733-6.194-12.168-23.5-12.17-17.937,0-27.228,12.085t-9.283,34.508v94.469H578.742V252.677h45.581v83.168q9.871-15.2,22.848-21.2a64.441,64.441,0,0,1,27.311-5.994A73.692,73.692,0,0,1,703.7,314.26Z" transform="translate(248.763 -245.001)" fill="#020126"/>
      </g>
      <path id="Pfad_137" data-name="Pfad 137" d="M469.8,325.28a104.794,104.794,0,0,0-16.81-38.064,77.869,77.869,0,0,0-40.173-29.907q-14.567-4.8-36.492-5.119H274.679v41.022H322.5v-.078h45.494q33.639,0,44.93,19.27t11.294,55.261q0,26.069-7.529,44.94-13.774,34.388-48.7,34.386H322.5v-.018H274.679v40.963H376.321q53.458,0,79.072-43.983,18.883-32.625,18.889-79.648A182.3,182.3,0,0,0,469.8,325.28Z" transform="translate(-44.694 -245.473)" fill="#020126"/>
      <path id="Pfad_138" data-name="Pfad 138" d="M541.313,381.315h.022V335.624q0-31.508-22.33-42.863t-51.079-11.354q-44.177,0-62.322,23.031-11.413,14.712-12.848,37.585h43.981q1.624-10.078,6.481-15.994,6.809-8,23.184-8,14.588,0,22.131,4.074,7.54,4.089,7.54,14.8,0,8.8-9.833,12.956-5.471,2.4-18.2,4l-15.628,1.92q-26.582,3.358-40.281,11.2-24.973,14.394-24.973,46.54,0,24.79,15.523,38.31,15.525,13.5,39.328,13.51,18.668,0,33.464-8.478a94.146,94.146,0,0,0,21.882-17.433q.48,5.919,1.279,10.557a50.818,50.818,0,0,0,2.879,9.916h39.8ZM495.9,392.082q-.477,22.871-13.068,31.507a47.632,47.632,0,0,1-27.523,8.637,24.975,24.975,0,0,1-16-5.2q-6.567-5.188-6.571-16.87,0-13.115,10.769-19.351,6.349-3.679,20.95-6.239l10.374-1.918a75.439,75.439,0,0,0,12.239-3.115,51.176,51.176,0,0,0,8.833-4.4Z" transform="translate(63.861 -217.273)" fill="#020126"/>
    </g>
    <path id="Pfad_139" data-name="Pfad 139" d="M377.061,299.718a25.485,25.485,0,0,0-8.649,1.531c-.222.079-.446.157-.666.244-.446.169-.88.362-1.315.556-.4.182-.8.369-1.187.572-.267.137-.529.285-.792.432-.507.287-1.008.586-1.492.906-.152.1-.3.2-.446.3-.56.389-1.108.794-1.637,1.224-.075.061-.147.124-.222.185-.583.489-1.152,1-1.69,1.537l-.025.026c-.332.332-.676.649-.991,1-7.906,8.141-15.556,8.761-26.311,8.635-10.313-.12-18.366-.837-25.967-9.1-5.184-5.632-11.083-8.888-19.16-8.983a25.542,25.542,0,0,0-.594,51.081c8.079.094,14.051-3.022,19.365-8.536,7.792-8.085,15.858-8.617,26.172-8.5,11.675.136,19.861,1.869,23.849,5.95a25.6,25.6,0,1,0,21.758-39.063Z" transform="translate(99.435 48.264)" fill="#020126"/>
  </g>
</svg>
