<svg xmlns="http://www.w3.org/2000/svg" xmlns:xlink="http://www.w3.org/1999/xlink" viewBox="0 0 174.39 98.2"><defs><clipPath id="clip-path"><rect x="1.76" y="196.69" width="1920" height="668" style="fill:none"/></clipPath><clipPath id="clip-path-2"><rect x="0.46" y="199.66" width="1923.02" height="668" style="fill:#222221"/></clipPath></defs><g style="isolation:isolate"><g id="ART"><path d="M11.41,75.92l4.28-3.29-.59-.88a38.92,38.92,0,0,1-3-5.55,37.87,37.87,0,0,1-2.07-5.93A40.73,40.73,0,0,1,8.78,47.84a40.17,40.17,0,0,1,8.53-23A40.22,40.22,0,0,1,61.82,11.43,40.13,40.13,0,0,1,79.68,23.52l5.74-4.41A45.43,45.43,0,0,0,77,11.22,49,49,0,0,0,70.79,7.4c-1.1-.51-2.17-1.08-3.31-1.52L65.8,5.2l-1.73-.59a47.39,47.39,0,0,0-28.62-.2A46.74,46.74,0,0,0,12.14,20.84a48.93,48.93,0,0,0-3.9,6.07,49.77,49.77,0,0,0-2.92,6.6,46.91,46.91,0,0,0-2.6,14.11,46.32,46.32,0,0,0,7.85,27.1C10.84,75.13,11.13,75.52,11.41,75.92Z" style="fill:#f5ac00;mix-blend-mode:multiply"/><path d="M76.58,81.28A45,45,0,0,1,71.28,85a41.92,41.92,0,0,1-37,2.74,39.5,39.5,0,0,1-5.66-2.86,40,40,0,0,1-5.17-3.67,44.46,44.46,0,0,1-4.25-4.1L15,80.31A45.65,45.65,0,0,0,60.28,93.48,45,45,0,0,0,83.38,78.6l-2.1-1.81A47.44,47.44,0,0,1,76.58,81.28Z" style="fill:#222221"/><polygon points="41.92 52.41 58.74 52.41 58.74 46.36 41.92 46.36 41.92 38.41 60.9 38.41 60.9 32.37 35.25 32.37 35.25 66.7 61.14 66.7 61.14 60.65 41.92 60.65 41.92 52.41" style="fill:#222221"/><path d="M128.9,48.79a8.16,8.16,0,0,0,4.27-7.46c0-5.44-4.48-9-11.41-9H106.32V66.7h15.91c7.09,0,11.67-3.79,11.67-9.64C133.9,53,132.22,50.22,128.9,48.79Zm-16-2.28V38.37H121c3.55,0,5.51,1.39,5.51,3.92,0,3.67-3.72,4.22-5.94,4.22Zm9.39,14.19h-9.39V52.27h9c5.07,0,5.75,2.1,5.75,4.16C127.6,59.38,126,60.7,122.28,60.7Z" style="fill:#222221"/><path d="M155.12,32.09c-10.08,0-17.68,7.52-17.68,17.49S145,67,155,67s17.67-7.52,17.67-17.49S165.14,32.09,155.12,32.09Zm10.73,17.49c0,6.44-4.62,11.29-10.73,11.29S144.3,56,144.3,49.48,148.91,38.19,155,38.19,165.85,43.09,165.85,49.58Z" style="fill:#222221"/><polygon points="83.58 47.9 73.58 32.37 66.7 32.37 66.7 66.7 73.28 66.7 73.28 43.62 83.54 58.92 83.56 58.92 93.79 43.52 93.79 66.7 100.46 66.7 100.46 32.37 93.58 32.37 83.58 47.9" style="fill:#222221"/><g style="clip-path:url(#clip-path)"><g style="mix-blend-mode:multiply"><rect x="0.46" y="199.66" width="1923.02" height="668" style="fill:#222221"/><g style="clip-path:url(#clip-path-2)"><image id="chemistry-4520676.psd" width="3500" height="2333" transform="translate(0.46 -427.37) scale(0.67)" xlink:href="../../PHOTOS/STOCK/EDITED/oil-in-water-1438382%20copy.jpg" style="opacity:0.6000000000000001;mix-blend-mode:lighten"/></g></g><g style="opacity:0.07;mix-blend-mode:lighten"><circle cx="-78.09" cy="280.68" r="184.64" style="fill:none;stroke:#fff;stroke-miterlimit:10;stroke-width:2px"/><circle cx="-78.09" cy="280.68" r="214.59" style="fill:none;stroke:#fff;stroke-miterlimit:10;stroke-width:2px"/><circle cx="-78.09" cy="280.68" r="244.54" style="fill:none;stroke:#fff;stroke-miterlimit:10;stroke-width:2px"/><circle cx="-78.09" cy="280.68" r="274.49" style="fill:none;stroke:#fff;stroke-miterlimit:10;stroke-width:2px"/><circle cx="-78.09" cy="280.68" r="304.44" style="fill:none;stroke:#fff;stroke-miterlimit:10;stroke-width:2px"/><circle cx="-78.09" cy="280.68" r="334.39" style="fill:none;stroke:#fff;stroke-miterlimit:10;stroke-width:2px"/><circle cx="-78.09" cy="280.68" r="364.34" style="fill:none;stroke:#fff;stroke-miterlimit:10;stroke-width:2px"/><circle cx="-78.09" cy="280.68" r="394.29" style="fill:none;stroke:#fff;stroke-miterlimit:10;stroke-width:2px"/><circle cx="-78.09" cy="280.68" r="424.24" style="fill:none;stroke:#fff;stroke-miterlimit:10;stroke-width:2px"/><circle cx="-78.09" cy="280.68" r="454.19" style="fill:none;stroke:#fff;stroke-miterlimit:10;stroke-width:2px"/><circle cx="-78.09" cy="280.68" r="484.14" style="fill:none;stroke:#fff;stroke-miterlimit:10;stroke-width:2px"/></g></g></g></g></svg>