<svg xmlns="http://www.w3.org/2000/svg" width="681.745" height="160.132" viewBox="0 0 681.745 160.132">
  <g id="Gruppe_4293" data-name="Gruppe 4293" transform="translate(5997.745 7311)">
    <g id="Logo" transform="translate(-5997.745 -7311)">
      <path id="Pfad_1819" data-name="Pfad 1819" d="M67.923,12.615c-7.418.918-14.38,3.719-21.229,6.492-4.631,1.873-9.436,3.864-12.687,7.422s-4.421,9.182-1.254,12.8c-6.935,1.528-14.353,3.316-18.979,8.295a14.964,14.964,0,0,0-3.7,13.447,16.378,16.378,0,0,0,9.345,10.914c4.221,1.877,9.244,2.177,13.054,4.685,3.249,2.142,5.454,5.787,9.307,6.777,4.263,1.1,8.737-1.555,13.12-.974,4.85.643,8.193,5,12.91,6.215,4.917,1.271,10.261-1.114,15.228-.012,6.363,1.414,9.564,7.691,13.582,12.43,2.424,2.861,5.754,5.468,9.7,5.626s8.074-3.283,6.971-6.763c-.622-1.96-2.561-3.269-4.031-4.8s-2.491-3.945-1.089-5.53c1.116-1.259,3.143-1.307,4.906-1.447,7.911-.635,15.225-5.59,18.226-12.332a19.144,19.144,0,0,0-3.569-20.524c-1.982-2.146-4.48-3.943-5.916-6.43-1.4-2.415-1.641-5.227-2.268-7.9A30.279,30.279,0,0,0,105.976,22.7c-3.1-1.941-6.354-2.69-9.717-4.015-4.318-1.7-8.058-3.986-12.678-5.121A43.514,43.514,0,0,0,67.923,12.615Z" transform="translate(10.368 14.337)" fill="#95c1d2"/>
      <path id="path26" d="M0,80.066C0,35.845,35.884,0,81.342,0a80.682,80.682,0,0,1,52.19,19.018V31.346A71.237,71.237,0,0,0,81.716,9.139a70.68,70.68,0,1,0,0,141.359,71.237,71.237,0,0,0,51.816-22.207v12.822a80.672,80.672,0,0,1-52.19,19.02C35.922,160.132,0,124.285,0,80.066Z" fill="#1f1f1f"/>
      <path id="Pfad_1820" data-name="Pfad 1820" d="M137,63.985A24.789,24.789,0,0,0,126.34,50.2l-.009-1.129a32.49,32.49,0,0,0-.215-3.3,29.493,29.493,0,0,0-1.546-6.45,31.285,31.285,0,0,0-7.212-11.307,34.459,34.459,0,0,0-11.541-7.619,36.541,36.541,0,0,0-12.58-2.619A30.885,30.885,0,0,0,84.368,12.6a32.864,32.864,0,0,0-23.275.108,30.616,30.616,0,0,0-8.864,5.313,24.614,24.614,0,0,0-11.153,3.318A26.111,26.111,0,0,0,36.147,25.1a26.963,26.963,0,0,0-2.062,2.2l-.92,1.172a10.941,10.941,0,0,0-.886,1.431,13.343,13.343,0,0,0-1.488,5.946,10.228,10.228,0,0,0,.4,2.921,7.224,7.224,0,0,0,.6,1.673c.1.192.218.372.332.558a35.433,35.433,0,0,0-4.769.118,26.992,26.992,0,0,0-8.969,2.347,18.169,18.169,0,0,0-7.311,6.122,17.58,17.58,0,0,0-2.969,8.733,19,19,0,0,0,1.438,9.037,20.816,20.816,0,0,0,5.626,7.579,23.827,23.827,0,0,0,8.561,4.687,25.542,25.542,0,0,0,4.908,1c.806.079,1.667.114,2.437.118A18.362,18.362,0,0,0,35.7,85.88a20.016,20.016,0,0,0,8.723,3.777,19.41,19.41,0,0,0,2.419.277l1.2.039.994,0,3.976.014,6.42-.01a19.6,19.6,0,0,0,10.195,4.734,22.267,22.267,0,0,0,3.27.221l2.709-.012,3.182-.014L90.723,95c3.433,5.183,7.8,9.541,12.67,14.358q1.245,1.231,2.547,2.531l1.622,1.625,2-1.209a49.637,49.637,0,0,0,8.025-5.793l1.811-1.6-1.5-1.848c-.6-.74-1.205-1.462-1.8-2.177-1.643-1.97-3.178-3.833-4.531-5.812.5-.017.992-.019,1.486-.062a28.867,28.867,0,0,0,5.128-.912A28.016,28.016,0,0,0,134.253,82.65,22.067,22.067,0,0,0,137,63.985Zm-6.611,8.671a16,16,0,0,1-2.5,6.459,21.3,21.3,0,0,1-15.542,9.078c-.633.056-1.236.079-1.9.087l-2.076.006c-.518-.008-1.447-.025-2.435-.043a2.5,2.5,0,0,0-2.558,3.322c2.136,5.022,5.285,8.964,8.447,12.75h0a40.348,40.348,0,0,1-3.377,2.409c-.307-.306-.615-.608-.916-.91-5.621-5.566-10.242-10.141-13.5-15.961a2.728,2.728,0,0,0-2.372-1.375l-4.286-.025c-3.213.033-5.846.056-6.355.054L75.6,88.485l-2.709-.012a14.838,14.838,0,0,1-4.762-.8A7.433,7.433,0,0,1,64,84.952a3.639,3.639,0,0,0-3.014-1.557h-.022l-7.955-.014L49.03,83.4l-.994,0-.794-.023a11.351,11.351,0,0,1-1.524-.161,12.687,12.687,0,0,1-5.541-2.351A11.593,11.593,0,0,1,38.041,78.8c-.132-.165-.267-.333-.4-.509a7.554,7.554,0,0,1-1.625-4.029l0-.019a6.5,6.5,0,0,1,.034-2.407,11.558,11.558,0,0,1,.936-2.644,20.134,20.134,0,0,1,1.631-2.611l.132-.178a1.269,1.269,0,0,0,.092-1.389,1.539,1.539,0,0,0-1.988-.583A14,14,0,0,0,33.4,66.706a12.43,12.43,0,0,0-2.664,3.242,10.36,10.36,0,0,0-1.389,4.205c0,.035,0,.07,0,.105h-.022a18.089,18.089,0,0,1-3.49-.626,17.028,17.028,0,0,1-6.2-3.2A13.957,13.957,0,0,1,14.295,58.66a13.725,13.725,0,0,1,1.815-6.322,14.229,14.229,0,0,1,4.861-4.817c3.606-2.3,8.231-3.488,13.042-4.342.184.159.368.318.561.463a14.272,14.272,0,0,0,8.058,2.686c.864.017,1.185.006,1.746.039a13.931,13.931,0,0,1,1.463.134,7.166,7.166,0,0,1,2.291.647,1.8,1.8,0,0,1,.53.393V71.9a4.073,4.073,0,0,0,8.128-.234V56.855c0-5.014,3.092-8.109,7.592-8.109s7.19,2.847,7.19,7.923V71.658A3.975,3.975,0,0,0,74.9,75.545,3.932,3.932,0,0,0,79.7,71.9V56.855c0-5.262,3.157-8.109,7.592-8.109,4.567,0,7.188,2.787,7.188,7.985V66.994l0,.014,0,.012v.014a4.023,4.023,0,0,0,.092.827,9.024,9.024,0,0,0,8.828,7.747,4.182,4.182,0,0,0,4.47-3.31,3.891,3.891,0,0,0-4.055-4.207,1.2,1.2,0,0,1-1.207-1.121V54.442c0-7.985-4.7-12.5-12.428-12.5A14.64,14.64,0,0,0,78.223,47.7c-1.881-3.467-5.511-5.758-10.617-5.758-5.442,0-8.53,2.723-10.816,5.634l-.049-.056a8.561,8.561,0,0,0-1.423-3.24,8.694,8.694,0,0,0-4.634-3.145,14.794,14.794,0,0,0-4.529-.55c-.7.008-1.371.06-2.024.13-.6.054-1.436.186-1.735.225a8.936,8.936,0,0,1-5.11-.829A4.6,4.6,0,0,1,34.579,36.6a9.865,9.865,0,0,1,1.436-4.9,5.993,5.993,0,0,1,.633-.831l.88-.912a23.046,23.046,0,0,1,1.9-1.673A21.589,21.589,0,0,1,43.761,25.7a23.36,23.36,0,0,1,9.71-2.039,3.188,3.188,0,0,0,2.166-.819l.016-.012A25.158,25.158,0,0,1,72.705,16.44a25.5,25.5,0,0,1,11.734,2.932,33.128,33.128,0,0,0-15.2,8.962,1.205,1.205,0,0,0,0,1.675,1.469,1.469,0,0,0,1.955.126,30.049,30.049,0,0,1,19.692-6.4,38.609,38.609,0,0,1,12.156,2.4,27.511,27.511,0,0,1,9.142,6.186,24.8,24.8,0,0,1,5.61,9.041,23.236,23.236,0,0,1,1.158,5.113c.065.622.079,1.249.1,1.875-.316.014-.633.021-.943.048a10.752,10.752,0,0,0-3,.686,9.422,9.422,0,0,0-2.578,1.418A1.287,1.287,0,0,0,112,51.566a1.381,1.381,0,0,0,1.47,1.271l.177,0a13.132,13.132,0,0,1,4.174.515,11.219,11.219,0,0,1,1.806.688,26.271,26.271,0,0,1,4.1,2.779,17.854,17.854,0,0,1,6.153,8.95A16.46,16.46,0,0,1,130.389,72.656Z" transform="translate(8.584 11.237)" fill="#1f1f1f"/>
    </g>
    <path id="Pfad_14312" data-name="Pfad 14312" d="M18.166,22.426V8.908q-.056.363-.084.6a3.243,3.243,0,0,1-.1.489q-.07.251-.182.6t-.335.936L13.251,22.426H10.095L6.24,11.729Q6.1,11.338,6,11.045a4.366,4.366,0,0,1-.154-.6q-.056-.307-.126-.684T5.542,8.8v13.63H2.358V3.992H6.575l4.916,13.155q.14.391.223.642a4.011,4.011,0,0,1,.14.782q.084-.642.14-.866a4.1,4.1,0,0,1,.2-.559L17.3,3.992h4.217V22.426ZM36.8,21.169q-.475.251-.824.419t-.573.279a10.386,10.386,0,0,1-4.273.922,7.018,7.018,0,0,1-2.611-.461,5.6,5.6,0,0,1-1.983-1.313,5.679,5.679,0,0,1-1.257-2.053,7.864,7.864,0,0,1-.433-2.681,8.217,8.217,0,0,1,.489-2.863,6.882,6.882,0,0,1,1.369-2.29A6.365,6.365,0,0,1,28.766,9.62a6.12,6.12,0,0,1,2.584-.545,5.521,5.521,0,0,1,2.206.433,4.927,4.927,0,0,1,1.718,1.215,5.659,5.659,0,0,1,1.117,1.885,6.961,6.961,0,0,1,.4,2.416v1.424h-8.6a10.959,10.959,0,0,0,.14,1.243,2.676,2.676,0,0,0,.307.824,2.97,2.97,0,0,0,1.2,1.145,3.551,3.551,0,0,0,1.7.419,6.95,6.95,0,0,0,.768-.042,3.4,3.4,0,0,0,.768-.182,6.3,6.3,0,0,0,1.089-.419q.5-.251,1.4-.81Zm-3.352-6.815a3.479,3.479,0,0,0-.6-2.137,2.156,2.156,0,0,0-1.718-.628A2.477,2.477,0,0,0,29.3,12.3a3.673,3.673,0,0,0-.936,2.053Zm14.915,7.681a9.806,9.806,0,0,1-3.8.754,7.54,7.54,0,0,1-2.737-.475,5.721,5.721,0,0,1-2.081-1.355,6.178,6.178,0,0,1-1.327-2.123,7.735,7.735,0,0,1-.475-2.779,7.868,7.868,0,0,1,.5-2.863,6.534,6.534,0,0,1,1.4-2.22A6.093,6.093,0,0,1,42,9.55a7.647,7.647,0,0,1,2.835-.5,10.006,10.006,0,0,1,1.075.056q.517.056,1.047.168a7.476,7.476,0,0,1,1.187.377,12.439,12.439,0,0,1,1.3.684l-1.592,2.542a5.5,5.5,0,0,0-1.3-.782,3.634,3.634,0,0,0-1.327-.223,3.675,3.675,0,0,0-1.522.307,3.52,3.52,0,0,0-1.187.866,4.033,4.033,0,0,0-.782,1.313,5.167,5.167,0,0,0-.028,3.268,3.752,3.752,0,0,0,.7,1.243,3.032,3.032,0,0,0,1.075.8,3.366,3.366,0,0,0,1.383.279,5,5,0,0,0,1.564-.237,9.11,9.11,0,0,0,1.788-.88l1.229,2.709Zm11.312.391V14.075a4.331,4.331,0,0,0-.237-1.718.864.864,0,0,0-.852-.489,2.352,2.352,0,0,0-1.285.545,13.51,13.51,0,0,0-1.843,1.718l-.447.475v7.82H51.655V2.065h3.352v9.524a8.808,8.808,0,0,1,2.206-1.843,4.738,4.738,0,0,1,2.29-.559q3.519,0,3.519,3.687v9.552Zm17.093.168h-.7A8.283,8.283,0,0,1,75,22.538a2.224,2.224,0,0,1-.74-.223,1.691,1.691,0,0,1-.545-.447,4.551,4.551,0,0,1-.447-.7,6.689,6.689,0,0,1-1.788,1.215,4.567,4.567,0,0,1-1.843.377,3.831,3.831,0,0,1-2.723-.978,3.317,3.317,0,0,1-1.047-2.542,4.137,4.137,0,0,1,.223-1.313A3.158,3.158,0,0,1,67.114,16.5a6.521,6.521,0,0,1,2.109-.95l3.687-1.061V13.4q0-2.039-1.592-2.039a2.286,2.286,0,0,0-1.285.349.991.991,0,0,0-.531.824.587.587,0,0,0,.014.14,1.817,1.817,0,0,0,.07.2l-3.184.7a3.155,3.155,0,0,1-.14-.461,2.569,2.569,0,0,1-.028-.433,3,3,0,0,1,1.438-2.667,7.5,7.5,0,0,1,4.092-.936,4.941,4.941,0,0,1,3.421.992,4.088,4.088,0,0,1,1.075,3.142v5.418a4.78,4.78,0,0,0,.042.712,1.1,1.1,0,0,0,.14.419.556.556,0,0,0,.307.223,2.4,2.4,0,0,0,.545.1Zm-3.854-5.949-3.324,1.089q-.14.391-.2.614a1.952,1.952,0,0,0-.056.475,1.216,1.216,0,0,0,1.341,1.341,2.79,2.79,0,0,0,1.369-.391,3.123,3.123,0,0,0,.335-.2q.168-.112.531-.391Zm15.278,5.782V14.075a4.331,4.331,0,0,0-.237-1.718.864.864,0,0,0-.852-.489,2.352,2.352,0,0,0-1.285.545,13.51,13.51,0,0,0-1.843,1.718l-.447.475v7.82H80.171V9.439h3.352v2.151a8.808,8.808,0,0,1,2.206-1.843,4.738,4.738,0,0,1,2.29-.559q3.519,0,3.519,3.687v9.552Zm7.01,0V9.439h3.324V22.426ZM98.745,4.774A2.432,2.432,0,0,1,98.2,6.38a1.665,1.665,0,0,1-1.327.656,1.7,1.7,0,0,1-1.341-.656,2.393,2.393,0,0,1-.559-1.606,2.393,2.393,0,0,1,.559-1.606,1.7,1.7,0,0,1,1.341-.656,1.665,1.665,0,0,1,1.327.656A2.432,2.432,0,0,1,98.745,4.774Zm11.982,8.267q-.559-.363-.894-.559a6.582,6.582,0,0,0-1.48-.656,5.185,5.185,0,0,0-1.508-.237,3.064,3.064,0,0,0-1.55.335,1.007,1.007,0,0,0-.573.894.952.952,0,0,0,.363.754,4.108,4.108,0,0,0,1.257.614q.531.2,1.131.433t1.145.489q.545.251.978.475a4.844,4.844,0,0,1,.656.391,3.089,3.089,0,0,1,.978,1.229,3.867,3.867,0,0,1,.363,1.648,3.462,3.462,0,0,1-.377,1.62,3.721,3.721,0,0,1-1.047,1.243,4.865,4.865,0,0,1-1.634.8,7.661,7.661,0,0,1-2.137.279,10.221,10.221,0,0,1-2.123-.251q-.447-.084-.81-.182a6.387,6.387,0,0,1-.712-.237q-.349-.14-.754-.321t-.936-.461l1.061-2.709q.5.307.866.517t.67.363q.307.154.6.265t.656.223a4.586,4.586,0,0,0,1.452.251,3.162,3.162,0,0,0,1.508-.293.906.906,0,0,0,.531-.824q0-.866-1.313-1.369l-2.234-.866A6.419,6.419,0,0,1,102.32,15.3a3.267,3.267,0,0,1-.81-2.234,3.608,3.608,0,0,1,.377-1.662,3.82,3.82,0,0,1,1.075-1.285,5.056,5.056,0,0,1,1.676-.838,7.461,7.461,0,0,1,2.151-.293,10.916,10.916,0,0,1,2.151.251q.447.084.8.182t.656.209a5.213,5.213,0,0,1,.628.279q.321.168.768.419Zm20.082,9.384V14.075a4.331,4.331,0,0,0-.237-1.718.841.841,0,0,0-.824-.489,3.2,3.2,0,0,0-1.815.95q-.363.307-.754.7t-1.033,1.117v7.792h-3.352V14.075a4.331,4.331,0,0,0-.237-1.718.864.864,0,0,0-.852-.489,2.352,2.352,0,0,0-1.285.545,13.51,13.51,0,0,0-1.843,1.718l-.447.475v7.82h-3.352V9.439h3.352v2.151a8.809,8.809,0,0,1,2.206-1.843,4.738,4.738,0,0,1,2.29-.559q2.933,0,3.407,2.542a6.029,6.029,0,0,1,4.608-2.542q3.519,0,3.519,3.687v9.552Zm15.641-9.384q-.559-.363-.894-.559a6.582,6.582,0,0,0-1.48-.656,5.185,5.185,0,0,0-1.508-.237,3.065,3.065,0,0,0-1.55.335,1.008,1.008,0,0,0-.573.894.952.952,0,0,0,.363.754,4.107,4.107,0,0,0,1.257.614q.531.2,1.131.433t1.145.489q.545.251.978.475a4.844,4.844,0,0,1,.656.391,3.089,3.089,0,0,1,.978,1.229,3.867,3.867,0,0,1,.363,1.648,3.462,3.462,0,0,1-.377,1.62,3.722,3.722,0,0,1-1.047,1.243,4.865,4.865,0,0,1-1.634.8,7.661,7.661,0,0,1-2.137.279A10.221,10.221,0,0,1,140,22.538q-.447-.084-.81-.182a6.388,6.388,0,0,1-.712-.237q-.349-.14-.754-.321t-.936-.461l1.061-2.709q.5.307.866.517t.67.363q.307.154.6.265t.656.223a4.586,4.586,0,0,0,1.452.251,3.162,3.162,0,0,0,1.508-.293.906.906,0,0,0,.531-.824q0-.866-1.313-1.369l-2.234-.866a6.419,6.419,0,0,1-2.542-1.592,3.267,3.267,0,0,1-.81-2.234,3.608,3.608,0,0,1,.377-1.662,3.821,3.821,0,0,1,1.075-1.285,5.056,5.056,0,0,1,1.676-.838,7.461,7.461,0,0,1,2.151-.293,10.916,10.916,0,0,1,2.151.251q.447.084.8.182t.656.209a5.213,5.213,0,0,1,.628.279q.321.168.768.419Zm20.92,9.552h-.7a8.283,8.283,0,0,1-1.061-.056,2.224,2.224,0,0,1-.74-.223,1.691,1.691,0,0,1-.545-.447,4.552,4.552,0,0,1-.447-.7,6.689,6.689,0,0,1-1.788,1.215,4.567,4.567,0,0,1-1.843.377,3.831,3.831,0,0,1-2.723-.978,3.317,3.317,0,0,1-1.047-2.542,4.137,4.137,0,0,1,.223-1.313,3.158,3.158,0,0,1,1.019-1.424,6.521,6.521,0,0,1,2.109-.95l3.687-1.061V13.4q0-2.039-1.592-2.039a2.286,2.286,0,0,0-1.285.349.991.991,0,0,0-.531.824.588.588,0,0,0,.014.14,1.819,1.819,0,0,0,.07.2l-3.184.7a3.155,3.155,0,0,1-.14-.461,2.567,2.567,0,0,1-.028-.433,3,3,0,0,1,1.438-2.667,7.5,7.5,0,0,1,4.092-.936,4.941,4.941,0,0,1,3.421.992,4.088,4.088,0,0,1,1.075,3.142v5.418a4.779,4.779,0,0,0,.042.712,1.1,1.1,0,0,0,.14.419.556.556,0,0,0,.307.223,2.394,2.394,0,0,0,.545.1Zm-3.854-5.949-3.324,1.089q-.14.391-.2.614a1.952,1.952,0,0,0-.056.475,1.216,1.216,0,0,0,1.341,1.341,2.79,2.79,0,0,0,1.369-.391,3.121,3.121,0,0,0,.335-.2q.168-.112.531-.391Zm15.278,5.782V14.075a4.331,4.331,0,0,0-.237-1.718.864.864,0,0,0-.852-.489,2.352,2.352,0,0,0-1.285.545,13.51,13.51,0,0,0-1.843,1.718l-.447.475v7.82h-3.352V9.439h3.352v2.151a8.808,8.808,0,0,1,2.206-1.843,4.738,4.738,0,0,1,2.29-.559q3.519,0,3.519,3.687v9.552Zm14.97,0v-1.76a7.057,7.057,0,0,1-.614.838,3.265,3.265,0,0,1-.7.559,4.462,4.462,0,0,1-2.43.726A4.68,4.68,0,0,1,187.9,22.3a5.154,5.154,0,0,1-1.69-1.355,6.5,6.5,0,0,1-1.117-2.053,7.953,7.953,0,0,1-.4-2.584,8.136,8.136,0,0,1,.489-2.835,7.47,7.47,0,0,1,1.327-2.3,6.347,6.347,0,0,1,1.969-1.55,5.276,5.276,0,0,1,2.416-.573,5.457,5.457,0,0,1,1.145.14,6.089,6.089,0,0,1,.852.279,6.581,6.581,0,0,1,.88.5v-7.9h3.324V22.426Zm0-7.765a8.168,8.168,0,0,0-.056-1.005,6.121,6.121,0,0,0-.112-.67,1.523,1.523,0,0,0-.782-.866,2.869,2.869,0,0,0-1.4-.335,2.631,2.631,0,0,0-1.285.321,3.2,3.2,0,0,0-1.019.894,4.288,4.288,0,0,0-.67,1.355,5.842,5.842,0,0,0-.237,1.7,5.115,5.115,0,0,0,.74,2.877,2.241,2.241,0,0,0,1.941,1.117,2.677,2.677,0,0,0,1.522-.5,5,5,0,0,0,1.355-1.452Zm31.226-1.508a9.783,9.783,0,0,1-.656,3.547,9.219,9.219,0,0,1-1.885,3.016q-2.542,2.709-7.457,2.709h-6.815V3.992h6.843a13.042,13.042,0,0,1,4.371.628A7.95,7.95,0,0,1,222.5,6.7a9.017,9.017,0,0,1,1.843,2.961A9.671,9.671,0,0,1,224.988,13.153Zm-3.8.028a7.389,7.389,0,0,0-.573-2.933,4.894,4.894,0,0,0-1.55-2.067,4.8,4.8,0,0,0-1.815-.824,11.1,11.1,0,0,0-2.6-.265h-2.793V19.326h2.793a6.8,6.8,0,0,0,4.846-1.592A5.953,5.953,0,0,0,221.19,13.181Zm6.284,9.245V9.439H230.8V22.426Zm3.547-17.652a2.432,2.432,0,0,1-.545,1.606,1.665,1.665,0,0,1-1.327.656,1.7,1.7,0,0,1-1.341-.656,2.393,2.393,0,0,1-.559-1.606,2.393,2.393,0,0,1,.559-1.606,1.7,1.7,0,0,1,1.341-.656,1.665,1.665,0,0,1,1.327.656A2.431,2.431,0,0,1,231.021,4.774ZM243,13.042q-.559-.363-.894-.559a6.582,6.582,0,0,0-1.48-.656,5.185,5.185,0,0,0-1.508-.237,3.064,3.064,0,0,0-1.55.335,1.007,1.007,0,0,0-.573.894.952.952,0,0,0,.363.754,4.108,4.108,0,0,0,1.257.614q.531.2,1.131.433t1.145.489q.545.251.978.475a4.844,4.844,0,0,1,.656.391,3.089,3.089,0,0,1,.978,1.229,3.867,3.867,0,0,1,.363,1.648,3.462,3.462,0,0,1-.377,1.62,3.721,3.721,0,0,1-1.047,1.243,4.865,4.865,0,0,1-1.634.8,7.661,7.661,0,0,1-2.137.279,10.221,10.221,0,0,1-2.123-.251q-.447-.084-.81-.182a6.385,6.385,0,0,1-.712-.237q-.349-.14-.754-.321t-.936-.461l1.061-2.709q.5.307.866.517t.67.363q.307.154.6.265t.656.223a4.586,4.586,0,0,0,1.452.251,3.162,3.162,0,0,0,1.508-.293.906.906,0,0,0,.531-.824q0-.866-1.313-1.369l-2.234-.866A6.419,6.419,0,0,1,234.6,15.3a3.267,3.267,0,0,1-.81-2.234,3.608,3.608,0,0,1,.377-1.662,3.82,3.82,0,0,1,1.075-1.285,5.056,5.056,0,0,1,1.676-.838,7.461,7.461,0,0,1,2.151-.293,10.916,10.916,0,0,1,2.151.251q.447.084.8.182t.656.209a5.214,5.214,0,0,1,.628.279q.321.168.768.419Zm10.753,8.128q-.335.223-.642.4l-.586.349a5.838,5.838,0,0,1-2.9.866q-2.542,0-2.542-2.821V11.9h-1.927V9.774l1.927-.335V5.556h3.156V9.439h2.821V11.9h-2.821v5.782a5.146,5.146,0,0,0,.14,1.48.526.526,0,0,0,.531.391,1.8,1.8,0,0,0,.7-.168,7.176,7.176,0,0,0,1.089-.642Zm9.831,1.257V20.247a8.33,8.33,0,0,1-2.206,1.857,4.836,4.836,0,0,1-2.29.545q-3.519,0-3.519-3.659V9.439h3.352V17.79a4.344,4.344,0,0,0,.237,1.7.839.839,0,0,0,.824.5,2.37,2.37,0,0,0,1.313-.545,13.509,13.509,0,0,0,1.843-1.718l.447-.475V9.439h3.352V22.426ZM277.469,13.4a1.636,1.636,0,0,0-1.005-.391,2.209,2.209,0,0,0-1.62.978,3.81,3.81,0,0,0-.894,2.486v5.949h-3.324V9.439H273.5l.14,2.849a12.287,12.287,0,0,1,1.634-2.346,2.013,2.013,0,0,1,1.438-.7,2.383,2.383,0,0,1,1.815.922Zm14.691,1.927a8.636,8.636,0,0,1-.531,3.114,6.669,6.669,0,0,1-1.508,2.36,6.471,6.471,0,0,1-2.388,1.494,9.167,9.167,0,0,1-3.17.517,12.413,12.413,0,0,1-1.285-.07,13.352,13.352,0,0,1-1.341-.209q-.5-.084-.866-.168a8.908,8.908,0,0,1-.978-.307v-20h3.324V9.774a7.155,7.155,0,0,1,3.24-.7,5.769,5.769,0,0,1,2.276.433,4.669,4.669,0,0,1,1.732,1.257,5.854,5.854,0,0,1,1.1,1.983A8.05,8.05,0,0,1,292.16,15.332Zm-3.491.168a4.268,4.268,0,0,0-.866-2.807,2.884,2.884,0,0,0-2.346-1.047,3.264,3.264,0,0,0-.978.14,7.359,7.359,0,0,0-1.061.447v7.737a6.292,6.292,0,0,0,.866.293,3.024,3.024,0,0,0,.67.07,3.082,3.082,0,0,0,1.466-.363,3.634,3.634,0,0,0,1.187-1.019,4.977,4.977,0,0,0,.782-1.536A6.293,6.293,0,0,0,288.669,15.5Zm16,7.094h-.7a8.283,8.283,0,0,1-1.061-.056,2.224,2.224,0,0,1-.74-.223,1.691,1.691,0,0,1-.545-.447,4.553,4.553,0,0,1-.447-.7,6.689,6.689,0,0,1-1.788,1.215,4.567,4.567,0,0,1-1.843.377,3.831,3.831,0,0,1-2.723-.978,3.317,3.317,0,0,1-1.047-2.542A4.136,4.136,0,0,1,294,17.929a3.157,3.157,0,0,1,1.019-1.424,6.521,6.521,0,0,1,2.109-.95l3.687-1.061V13.4q0-2.039-1.592-2.039a2.286,2.286,0,0,0-1.285.349.991.991,0,0,0-.531.824.588.588,0,0,0,.014.14,1.819,1.819,0,0,0,.07.2l-3.184.7a3.153,3.153,0,0,1-.14-.461,2.568,2.568,0,0,1-.028-.433,3,3,0,0,1,1.438-2.667,7.5,7.5,0,0,1,4.092-.936,4.941,4.941,0,0,1,3.421.992,4.088,4.088,0,0,1,1.075,3.142v5.418a4.78,4.78,0,0,0,.042.712,1.1,1.1,0,0,0,.14.419.556.556,0,0,0,.307.223,2.394,2.394,0,0,0,.545.1Zm-3.854-5.949-3.324,1.089q-.14.391-.2.614a1.951,1.951,0,0,0-.056.475,1.216,1.216,0,0,0,1.341,1.341,2.79,2.79,0,0,0,1.369-.391,3.129,3.129,0,0,0,.335-.2q.168-.112.531-.391ZM316.1,22.426V14.075a4.332,4.332,0,0,0-.237-1.718.864.864,0,0,0-.852-.489,2.352,2.352,0,0,0-1.285.545,13.509,13.509,0,0,0-1.843,1.718l-.447.475v7.82H308.08V9.439h3.352v2.151a8.808,8.808,0,0,1,2.206-1.843,4.738,4.738,0,0,1,2.29-.559q3.519,0,3.519,3.687v9.552Zm16.311-.391a9.806,9.806,0,0,1-3.8.754,7.54,7.54,0,0,1-2.737-.475,5.721,5.721,0,0,1-2.081-1.355,6.178,6.178,0,0,1-1.327-2.123,7.735,7.735,0,0,1-.475-2.779,7.868,7.868,0,0,1,.5-2.863,6.533,6.533,0,0,1,1.4-2.22,6.093,6.093,0,0,1,2.165-1.424,7.647,7.647,0,0,1,2.835-.5,10.006,10.006,0,0,1,1.075.056q.517.056,1.047.168a7.476,7.476,0,0,1,1.187.377,12.438,12.438,0,0,1,1.3.684L331.9,12.874a5.5,5.5,0,0,0-1.3-.782,3.634,3.634,0,0,0-1.327-.223,3.675,3.675,0,0,0-1.522.307,3.519,3.519,0,0,0-1.187.866,4.033,4.033,0,0,0-.782,1.313,5.167,5.167,0,0,0-.028,3.268,3.752,3.752,0,0,0,.7,1.243,3.032,3.032,0,0,0,1.075.8,3.366,3.366,0,0,0,1.383.279,5,5,0,0,0,1.564-.237,9.111,9.111,0,0,0,1.788-.88l1.229,2.709Zm13.909-.866q-.475.251-.824.419t-.573.279a10.386,10.386,0,0,1-4.273.922,7.018,7.018,0,0,1-2.611-.461,5.6,5.6,0,0,1-1.983-1.313,5.679,5.679,0,0,1-1.257-2.053,7.864,7.864,0,0,1-.433-2.681,8.217,8.217,0,0,1,.489-2.863,6.882,6.882,0,0,1,1.369-2.29,6.365,6.365,0,0,1,2.067-1.508,6.12,6.12,0,0,1,2.583-.545,5.521,5.521,0,0,1,2.206.433,4.927,4.927,0,0,1,1.718,1.215,5.659,5.659,0,0,1,1.117,1.885,6.961,6.961,0,0,1,.4,2.416v1.424h-8.6a10.961,10.961,0,0,0,.14,1.243,2.676,2.676,0,0,0,.307.824,2.97,2.97,0,0,0,1.2,1.145,3.551,3.551,0,0,0,1.7.419,6.949,6.949,0,0,0,.768-.042,3.4,3.4,0,0,0,.768-.182,6.3,6.3,0,0,0,1.089-.419q.5-.251,1.4-.81Zm-3.352-6.815a3.479,3.479,0,0,0-.6-2.137,2.156,2.156,0,0,0-1.718-.628,2.477,2.477,0,0,0-1.829.712,3.673,3.673,0,0,0-.936,2.053Zm14.244-1.313q-.559-.363-.894-.559a6.583,6.583,0,0,0-1.48-.656,5.185,5.185,0,0,0-1.508-.237,3.065,3.065,0,0,0-1.55.335,1.008,1.008,0,0,0-.573.894.951.951,0,0,0,.363.754,4.107,4.107,0,0,0,1.257.614q.531.2,1.131.433t1.145.489q.545.251.978.475a4.846,4.846,0,0,1,.656.391,3.089,3.089,0,0,1,.978,1.229,3.868,3.868,0,0,1,.363,1.648,3.463,3.463,0,0,1-.377,1.62,3.721,3.721,0,0,1-1.047,1.243,4.865,4.865,0,0,1-1.634.8,7.661,7.661,0,0,1-2.137.279,10.221,10.221,0,0,1-2.123-.251q-.447-.084-.81-.182a6.387,6.387,0,0,1-.712-.237q-.349-.14-.754-.321t-.936-.461l1.061-2.709q.5.307.866.517t.67.363q.307.154.6.265T351.4,20a4.586,4.586,0,0,0,1.452.251,3.162,3.162,0,0,0,1.508-.293.906.906,0,0,0,.531-.824q0-.866-1.313-1.369l-2.234-.866A6.419,6.419,0,0,1,348.8,15.3a3.267,3.267,0,0,1-.81-2.234,3.608,3.608,0,0,1,.377-1.662,3.82,3.82,0,0,1,1.075-1.285,5.056,5.056,0,0,1,1.676-.838,7.461,7.461,0,0,1,2.151-.293,10.915,10.915,0,0,1,2.151.251q.447.084.8.182t.656.209a5.214,5.214,0,0,1,.628.279q.321.168.768.419Zm10.837,9.384V9.439h3.324V22.426Zm3.547-17.652a2.432,2.432,0,0,1-.545,1.606,1.665,1.665,0,0,1-1.327.656,1.7,1.7,0,0,1-1.341-.656,2.393,2.393,0,0,1-.559-1.606,2.393,2.393,0,0,1,.559-1.606,1.7,1.7,0,0,1,1.341-.656,1.665,1.665,0,0,1,1.327.656A2.432,2.432,0,0,1,371.593,4.774Zm11.563,17.652V14.075a4.33,4.33,0,0,0-.237-1.718.864.864,0,0,0-.852-.489,2.352,2.352,0,0,0-1.285.545,13.51,13.51,0,0,0-1.843,1.718l-.447.475v7.82H375.14V9.439h3.352v2.151A8.808,8.808,0,0,1,380.7,9.746a4.738,4.738,0,0,1,2.29-.559q3.519,0,3.519,3.687v9.552Zm30.7,0V8.908q-.056.363-.084.6a3.248,3.248,0,0,1-.1.489q-.07.251-.182.6t-.335.936l-4.217,10.893H405.78l-3.854-10.7q-.14-.391-.237-.684a4.359,4.359,0,0,1-.154-.6q-.056-.307-.126-.684t-.182-.964v13.63h-3.184V3.992h4.217l4.916,13.155q.14.391.223.642a4.014,4.014,0,0,1,.14.782q.084-.642.14-.866a4.1,4.1,0,0,1,.2-.559l5.111-13.155H417.2V22.426Zm18.629-1.257q-.475.251-.824.419t-.573.279a10.386,10.386,0,0,1-4.273.922,7.017,7.017,0,0,1-2.611-.461,5.6,5.6,0,0,1-1.983-1.313,5.679,5.679,0,0,1-1.257-2.053,7.864,7.864,0,0,1-.433-2.681,8.218,8.218,0,0,1,.489-2.863,6.882,6.882,0,0,1,1.369-2.29,6.365,6.365,0,0,1,2.067-1.508,6.12,6.12,0,0,1,2.584-.545,5.521,5.521,0,0,1,2.206.433,4.928,4.928,0,0,1,1.718,1.215,5.66,5.66,0,0,1,1.117,1.885,6.961,6.961,0,0,1,.4,2.416v1.424h-8.6a10.967,10.967,0,0,0,.14,1.243,2.676,2.676,0,0,0,.307.824,2.97,2.97,0,0,0,1.2,1.145,3.551,3.551,0,0,0,1.7.419,6.95,6.95,0,0,0,.768-.042,3.4,3.4,0,0,0,.768-.182,6.3,6.3,0,0,0,1.089-.419q.5-.251,1.4-.81Zm-3.352-6.815a3.479,3.479,0,0,0-.6-2.137,2.156,2.156,0,0,0-1.718-.628,2.476,2.476,0,0,0-1.829.712,3.673,3.673,0,0,0-.936,2.053Zm21.841,8.072V14.075a4.331,4.331,0,0,0-.237-1.718.841.841,0,0,0-.824-.489,3.2,3.2,0,0,0-1.815.95q-.363.307-.754.7t-1.033,1.117v7.792h-3.352V14.075a4.33,4.33,0,0,0-.237-1.718.864.864,0,0,0-.852-.489,2.352,2.352,0,0,0-1.285.545,13.51,13.51,0,0,0-1.843,1.718l-.447.475v7.82h-3.352V9.439h3.352v2.151A8.808,8.808,0,0,1,440.5,9.746a4.738,4.738,0,0,1,2.29-.559q2.933,0,3.407,2.542A6.03,6.03,0,0,1,450.8,9.187q3.519,0,3.519,3.687v9.552Zm18.965-6.508a7.3,7.3,0,0,1-.5,2.737,6.745,6.745,0,0,1-1.383,2.179,6.305,6.305,0,0,1-2.067,1.438,6.717,6.717,0,0,1-5.167,0,6.305,6.305,0,0,1-2.067-1.438,6.746,6.746,0,0,1-1.383-2.179,7.3,7.3,0,0,1-.5-2.737,7.227,7.227,0,0,1,.5-2.709,6.746,6.746,0,0,1,1.383-2.179,6.305,6.305,0,0,1,2.067-1.438,6.717,6.717,0,0,1,5.167,0,6.305,6.305,0,0,1,2.067,1.438,6.745,6.745,0,0,1,1.383,2.179A7.227,7.227,0,0,1,469.935,15.918Zm-3.463,0a5.091,5.091,0,0,0-.251-1.62,4.8,4.8,0,0,0-.67-1.327,3.34,3.34,0,0,0-.978-.908,2.246,2.246,0,0,0-1.173-.335,2.294,2.294,0,0,0-1.2.335,3.34,3.34,0,0,0-.978.908,4.531,4.531,0,0,0-.656,1.327,5.366,5.366,0,0,0-.237,1.62,5.5,5.5,0,0,0,.237,1.634,4.5,4.5,0,0,0,.656,1.341,3.34,3.34,0,0,0,.978.908,2.294,2.294,0,0,0,1.2.335,2.246,2.246,0,0,0,1.173-.335,3.34,3.34,0,0,0,.978-.908,4.757,4.757,0,0,0,.67-1.341A5.22,5.22,0,0,0,466.472,15.918Zm12.68-2.514a1.636,1.636,0,0,0-1.005-.391,2.209,2.209,0,0,0-1.62.978,3.81,3.81,0,0,0-.894,2.486v5.949h-3.324V9.439h2.877l.14,2.849a12.286,12.286,0,0,1,1.634-2.346,2.013,2.013,0,0,1,1.438-.7,2.383,2.383,0,0,1,1.815.922Zm8.463,8.323q-.251.7-.475,1.257t-.461,1.061q-.237.5-.517,1.019t-.642,1.1q-.307.5-.545.88t-.489.74q-.251.363-.545.74t-.712.908l-2.737-1.788q.447-.5.782-.866t.6-.7q.265-.335.5-.67t.517-.754q.307-.5.559-.922a10.063,10.063,0,0,0,.475-.894q.223-.475.447-1.047t.5-1.355l-4.776-11h3.631l2.29,5.782.335,1.564.363-1.564,1.955-5.782h3.3ZM14.591,43.588A7.08,7.08,0,0,0,10.346,42.3a6.561,6.561,0,0,0-2.458.447,5.773,5.773,0,0,0-1.927,1.243,5.549,5.549,0,0,0-1.257,1.9,6.376,6.376,0,0,0-.447,2.416A7.347,7.347,0,0,0,4.732,51a5.98,5.98,0,0,0,1.341,2.081,5.8,5.8,0,0,0,2.095,1.327,7.745,7.745,0,0,0,2.737.461,9.128,9.128,0,0,0,1.9-.2,14.4,14.4,0,0,0,2.151-.67l.642,2.961-.768.335q-.321.14-.6.237t-.545.168l-.573.154a13.752,13.752,0,0,1-2.961.307,11.409,11.409,0,0,1-3.771-.559,8.607,8.607,0,0,1-2.9-1.732,9.1,9.1,0,0,1-2.29-3.268A10.488,10.488,0,0,1,.375,48.5,9.89,9.89,0,0,1,1.1,44.719,9.189,9.189,0,0,1,3.2,41.6a8.533,8.533,0,0,1,3.03-1.969,11.4,11.4,0,0,1,3.924-.6,10.787,10.787,0,0,1,3.17.433,8.546,8.546,0,0,1,2.611,1.327ZM29.618,51.3a7.3,7.3,0,0,1-.5,2.737,6.746,6.746,0,0,1-1.383,2.179,6.305,6.305,0,0,1-2.067,1.438,6.717,6.717,0,0,1-5.167,0,6.305,6.305,0,0,1-2.067-1.438,6.746,6.746,0,0,1-1.383-2.179,7.3,7.3,0,0,1-.5-2.737,7.227,7.227,0,0,1,.5-2.709,6.746,6.746,0,0,1,1.383-2.179A6.305,6.305,0,0,1,20.5,44.97a6.717,6.717,0,0,1,5.167,0,6.305,6.305,0,0,1,2.067,1.438,6.746,6.746,0,0,1,1.383,2.179A7.227,7.227,0,0,1,29.618,51.3Zm-3.463,0a5.091,5.091,0,0,0-.251-1.62,4.8,4.8,0,0,0-.67-1.327,3.34,3.34,0,0,0-.978-.908,2.246,2.246,0,0,0-1.173-.335,2.294,2.294,0,0,0-1.2.335,3.34,3.34,0,0,0-.978.908,4.531,4.531,0,0,0-.656,1.327,5.366,5.366,0,0,0-.237,1.62,5.5,5.5,0,0,0,.237,1.634,4.5,4.5,0,0,0,.656,1.341,3.34,3.34,0,0,0,.978.908,2.294,2.294,0,0,0,1.2.335,2.246,2.246,0,0,0,1.173-.335,3.34,3.34,0,0,0,.978-.908,4.758,4.758,0,0,0,.67-1.341A5.221,5.221,0,0,0,26.154,51.3ZM40.287,57.8V49.453a4.331,4.331,0,0,0-.237-1.718.864.864,0,0,0-.852-.489,2.352,2.352,0,0,0-1.285.545,13.51,13.51,0,0,0-1.843,1.718l-.447.475V57.8H32.271V44.817h3.352v2.151a8.808,8.808,0,0,1,2.206-1.843,4.738,4.738,0,0,1,2.29-.559q3.519,0,3.519,3.687V57.8ZM55.928,48.42q-.559-.363-.894-.559a6.583,6.583,0,0,0-1.48-.656,5.185,5.185,0,0,0-1.508-.237,3.064,3.064,0,0,0-1.55.335,1.007,1.007,0,0,0-.573.894.952.952,0,0,0,.363.754,4.108,4.108,0,0,0,1.257.614q.531.2,1.131.433t1.145.489q.545.251.978.475a4.844,4.844,0,0,1,.656.391,3.089,3.089,0,0,1,.978,1.229,3.867,3.867,0,0,1,.363,1.648,3.462,3.462,0,0,1-.377,1.62,3.721,3.721,0,0,1-1.047,1.243,4.865,4.865,0,0,1-1.634.8,7.66,7.66,0,0,1-2.137.279,10.221,10.221,0,0,1-2.123-.251q-.447-.084-.81-.182a6.387,6.387,0,0,1-.712-.237q-.349-.14-.754-.321t-.936-.461l1.061-2.709q.5.307.866.517t.67.363q.307.154.6.265t.656.223a4.586,4.586,0,0,0,1.452.251,3.162,3.162,0,0,0,1.508-.293.906.906,0,0,0,.531-.824q0-.866-1.313-1.369l-2.234-.866a6.419,6.419,0,0,1-2.542-1.592,3.267,3.267,0,0,1-.81-2.234,3.608,3.608,0,0,1,.377-1.662A3.82,3.82,0,0,1,48.163,45.5a5.056,5.056,0,0,1,1.676-.838,7.461,7.461,0,0,1,2.151-.293,10.916,10.916,0,0,1,2.151.251q.447.084.8.182t.656.209a5.213,5.213,0,0,1,.628.279q.321.168.768.419ZM71.736,51.3a7.3,7.3,0,0,1-.5,2.737,6.746,6.746,0,0,1-1.383,2.179,6.306,6.306,0,0,1-2.067,1.438,6.717,6.717,0,0,1-5.167,0,6.305,6.305,0,0,1-2.067-1.438,6.746,6.746,0,0,1-1.383-2.179,7.3,7.3,0,0,1-.5-2.737,7.227,7.227,0,0,1,.5-2.709,6.746,6.746,0,0,1,1.383-2.179,6.305,6.305,0,0,1,2.067-1.438,6.717,6.717,0,0,1,5.167,0,6.305,6.305,0,0,1,2.067,1.438,6.746,6.746,0,0,1,1.383,2.179A7.227,7.227,0,0,1,71.736,51.3Zm-3.463,0a5.091,5.091,0,0,0-.251-1.62,4.8,4.8,0,0,0-.67-1.327,3.34,3.34,0,0,0-.978-.908,2.246,2.246,0,0,0-1.173-.335,2.294,2.294,0,0,0-1.2.335,3.34,3.34,0,0,0-.978.908,4.531,4.531,0,0,0-.656,1.327,5.366,5.366,0,0,0-.237,1.62,5.5,5.5,0,0,0,.237,1.634,4.5,4.5,0,0,0,.656,1.341,3.34,3.34,0,0,0,.978.908,2.294,2.294,0,0,0,1.2.335,2.246,2.246,0,0,0,1.173-.335,3.34,3.34,0,0,0,.978-.908,4.758,4.758,0,0,0,.67-1.341A5.221,5.221,0,0,0,68.273,51.3ZM74.082,57.8V37.443h3.324V57.8Zm6.787,0V44.817h3.324V57.8Zm3.547-17.652a2.431,2.431,0,0,1-.545,1.606,1.665,1.665,0,0,1-1.327.656,1.7,1.7,0,0,1-1.341-.656,2.588,2.588,0,0,1,0-3.212,1.7,1.7,0,0,1,1.341-.656,1.665,1.665,0,0,1,1.327.656A2.432,2.432,0,0,1,84.417,40.152ZM95.728,57.8v-1.76a7.06,7.06,0,0,1-.614.838,3.265,3.265,0,0,1-.7.559,4.462,4.462,0,0,1-2.43.726,4.68,4.68,0,0,1-2.123-.489,5.154,5.154,0,0,1-1.69-1.355,6.5,6.5,0,0,1-1.117-2.053,7.953,7.953,0,0,1-.4-2.584,8.135,8.135,0,0,1,.489-2.835,7.47,7.47,0,0,1,1.327-2.3A6.347,6.347,0,0,1,90.435,45a5.276,5.276,0,0,1,2.416-.573,5.458,5.458,0,0,1,1.145.14,6.091,6.091,0,0,1,.852.279,6.581,6.581,0,0,1,.88.5v-7.9h3.324V57.8Zm0-7.765a8.166,8.166,0,0,0-.056-1.005c-.037-.3-.112-.67-.112-.67a2.74,2.74,0,0,0-.782-.866,2.868,2.868,0,0,0-1.4-.335,2.631,2.631,0,0,0-1.285.321,3.2,3.2,0,0,0-1.019.894,4.289,4.289,0,0,0-.67,1.355,5.842,5.842,0,0,0-.237,1.7,5.115,5.115,0,0,0,.74,2.877,2.241,2.241,0,0,0,1.941,1.117,2.677,2.677,0,0,0,1.522-.5,5,5,0,0,0,1.355-1.452Zm16.954,7.932h-.7a8.283,8.283,0,0,1-1.061-.056,2.224,2.224,0,0,1-.74-.223,1.691,1.691,0,0,1-.545-.447,4.551,4.551,0,0,1-.447-.7,6.689,6.689,0,0,1-1.788,1.215,4.567,4.567,0,0,1-1.843.377,3.831,3.831,0,0,1-2.723-.978,3.317,3.317,0,0,1-1.047-2.542,4.137,4.137,0,0,1,.223-1.313,3.158,3.158,0,0,1,1.019-1.424,6.521,6.521,0,0,1,2.109-.95l3.687-1.061V48.783q0-2.039-1.592-2.039a2.286,2.286,0,0,0-1.285.349.991.991,0,0,0-.531.824.588.588,0,0,0,.014.14,1.818,1.818,0,0,0,.07.2l-3.184.7a3.154,3.154,0,0,1-.14-.461,2.568,2.568,0,0,1-.028-.433,3,3,0,0,1,1.438-2.667,7.5,7.5,0,0,1,4.092-.936,4.941,4.941,0,0,1,3.421.992,4.088,4.088,0,0,1,1.075,3.142v5.418a4.78,4.78,0,0,0,.042.712,1.1,1.1,0,0,0,.14.419.556.556,0,0,0,.307.223,2.4,2.4,0,0,0,.545.1Zm-3.854-5.949L105.5,53.112q-.14.391-.2.614a1.952,1.952,0,0,0-.056.475,1.216,1.216,0,0,0,1.341,1.341,2.79,2.79,0,0,0,1.369-.391,3.123,3.123,0,0,0,.335-.2q.168-.112.531-.391Zm13.965,4.525q-.335.223-.642.4l-.587.349a5.838,5.838,0,0,1-2.9.866q-2.542,0-2.542-2.821V47.274H114.19V45.152l1.927-.335V40.934h3.156v3.882h2.821v2.458h-2.821v5.782a5.147,5.147,0,0,0,.14,1.48.526.526,0,0,0,.531.391,1.8,1.8,0,0,0,.7-.168,7.175,7.175,0,0,0,1.089-.642Zm1.732,1.257V44.817h3.324V57.8Zm3.547-17.652a2.432,2.432,0,0,1-.545,1.606,1.665,1.665,0,0,1-1.327.656,1.7,1.7,0,0,1-1.341-.656,2.588,2.588,0,0,1,0-3.212,1.7,1.7,0,0,1,1.341-.656,1.665,1.665,0,0,1,1.327.656A2.432,2.432,0,0,1,128.071,40.152ZM143.377,51.3a7.3,7.3,0,0,1-.5,2.737,6.746,6.746,0,0,1-1.383,2.179,6.306,6.306,0,0,1-2.067,1.438,6.717,6.717,0,0,1-5.167,0,6.306,6.306,0,0,1-2.067-1.438,6.746,6.746,0,0,1-1.383-2.179,7.3,7.3,0,0,1-.5-2.737,7.227,7.227,0,0,1,.5-2.709,6.746,6.746,0,0,1,1.383-2.179,6.306,6.306,0,0,1,2.067-1.438,6.717,6.717,0,0,1,5.167,0,6.306,6.306,0,0,1,2.067,1.438,6.746,6.746,0,0,1,1.383,2.179A7.227,7.227,0,0,1,143.377,51.3Zm-3.463,0a5.092,5.092,0,0,0-.251-1.62,4.8,4.8,0,0,0-.67-1.327,3.34,3.34,0,0,0-.978-.908,2.246,2.246,0,0,0-1.173-.335,2.294,2.294,0,0,0-1.2.335,3.34,3.34,0,0,0-.978.908,4.531,4.531,0,0,0-.656,1.327,5.366,5.366,0,0,0-.237,1.62,5.5,5.5,0,0,0,.237,1.634,4.5,4.5,0,0,0,.656,1.341,3.34,3.34,0,0,0,.978.908,2.294,2.294,0,0,0,1.2.335,2.246,2.246,0,0,0,1.173-.335,3.34,3.34,0,0,0,.978-.908,4.758,4.758,0,0,0,.67-1.341A5.221,5.221,0,0,0,139.914,51.3ZM154.046,57.8V49.453a4.331,4.331,0,0,0-.237-1.718.864.864,0,0,0-.852-.489,2.352,2.352,0,0,0-1.285.545,13.511,13.511,0,0,0-1.843,1.718l-.447.475V57.8H146.03V44.817h3.352v2.151a8.809,8.809,0,0,1,2.206-1.843,4.738,4.738,0,0,1,2.29-.559q3.519,0,3.519,3.687V57.8Zm10.949-1.871a2.175,2.175,0,0,1-.642,1.578,2.106,2.106,0,0,1-1.564.656,2.242,2.242,0,0,1-1.578-3.826,2.175,2.175,0,0,1,1.578-.642,2.129,2.129,0,0,1,1.564.642A2.162,2.162,0,0,1,164.995,55.933Zm0-9.245a2.175,2.175,0,0,1-.642,1.578,2.106,2.106,0,0,1-1.564.656,2.234,2.234,0,0,1,0-4.469,2.106,2.106,0,0,1,1.564.656A2.175,2.175,0,0,1,164.995,46.688Zm14.3-4.329v4.748h6.48v2.961h-6.48V57.8h-3.519V39.37H187.2v2.989Zm15.5,6.424a1.636,1.636,0,0,0-1.005-.391,2.209,2.209,0,0,0-1.62.978,3.81,3.81,0,0,0-.894,2.486V57.8h-3.324V44.817h2.877l.14,2.849a12.286,12.286,0,0,1,1.634-2.346,2.013,2.013,0,0,1,1.438-.7,2.383,2.383,0,0,1,1.815.922ZM209.4,51.3a7.3,7.3,0,0,1-.5,2.737,6.746,6.746,0,0,1-1.383,2.179,6.305,6.305,0,0,1-2.067,1.438,6.717,6.717,0,0,1-5.167,0,6.305,6.305,0,0,1-2.067-1.438,6.746,6.746,0,0,1-1.383-2.179,7.3,7.3,0,0,1-.5-2.737,7.227,7.227,0,0,1,.5-2.709,6.746,6.746,0,0,1,1.383-2.179,6.305,6.305,0,0,1,2.067-1.438,6.717,6.717,0,0,1,5.167,0,6.305,6.305,0,0,1,2.067,1.438,6.745,6.745,0,0,1,1.383,2.179A7.227,7.227,0,0,1,209.4,51.3Zm-3.463,0a5.091,5.091,0,0,0-.251-1.62,4.8,4.8,0,0,0-.67-1.327,3.34,3.34,0,0,0-.978-.908,2.246,2.246,0,0,0-1.173-.335,2.294,2.294,0,0,0-1.2.335,3.34,3.34,0,0,0-.978.908,4.531,4.531,0,0,0-.656,1.327,5.366,5.366,0,0,0-.237,1.62,5.5,5.5,0,0,0,.237,1.634,4.5,4.5,0,0,0,.656,1.341,3.34,3.34,0,0,0,.978.908,2.294,2.294,0,0,0,1.2.335,2.246,2.246,0,0,0,1.173-.335,3.34,3.34,0,0,0,.978-.908,4.758,4.758,0,0,0,.67-1.341A5.221,5.221,0,0,0,205.94,51.3ZM228.089,57.8V49.453a4.331,4.331,0,0,0-.237-1.718.841.841,0,0,0-.824-.489,3.2,3.2,0,0,0-1.815.95q-.363.307-.754.7t-1.033,1.117V57.8h-3.352V49.453a4.331,4.331,0,0,0-.237-1.718.864.864,0,0,0-.852-.489,2.352,2.352,0,0,0-1.285.545,13.511,13.511,0,0,0-1.843,1.718l-.447.475V57.8h-3.352V44.817h3.352v2.151a8.808,8.808,0,0,1,2.206-1.843,4.738,4.738,0,0,1,2.29-.559q2.933,0,3.407,2.542a6.029,6.029,0,0,1,4.608-2.542q3.519,0,3.519,3.687V57.8Zm22.623-9.384q-.559-.363-.894-.559a6.583,6.583,0,0,0-1.48-.656,5.185,5.185,0,0,0-1.508-.237,3.064,3.064,0,0,0-1.55.335,1.007,1.007,0,0,0-.573.894.952.952,0,0,0,.363.754,4.107,4.107,0,0,0,1.257.614q.531.2,1.131.433t1.145.489q.545.251.978.475a4.844,4.844,0,0,1,.656.391,3.089,3.089,0,0,1,.978,1.229,3.868,3.868,0,0,1,.363,1.648,3.462,3.462,0,0,1-.377,1.62,3.721,3.721,0,0,1-1.047,1.243,4.865,4.865,0,0,1-1.634.8,7.66,7.66,0,0,1-2.137.279,10.221,10.221,0,0,1-2.123-.251q-.447-.084-.81-.182a6.386,6.386,0,0,1-.712-.237q-.349-.14-.754-.321t-.936-.461l1.061-2.709q.5.307.866.517t.67.363q.307.154.6.265t.656.223a4.586,4.586,0,0,0,1.452.251,3.162,3.162,0,0,0,1.508-.293.906.906,0,0,0,.531-.824q0-.866-1.313-1.369l-2.234-.866a6.418,6.418,0,0,1-2.542-1.592,3.267,3.267,0,0,1-.81-2.234,3.608,3.608,0,0,1,.377-1.662,3.82,3.82,0,0,1,1.075-1.285,5.056,5.056,0,0,1,1.676-.838,7.461,7.461,0,0,1,2.151-.293,10.915,10.915,0,0,1,2.151.251q.447.084.8.182t.656.209a5.213,5.213,0,0,1,.628.279q.321.168.768.419Zm9.664,8.686q-.251.7-.475,1.257t-.461,1.061q-.237.5-.517,1.019t-.642,1.1q-.307.5-.545.88t-.489.74q-.251.363-.545.74t-.712.908l-2.737-1.788q.447-.5.782-.866t.6-.7q.265-.335.5-.67t.517-.754q.307-.5.559-.922a10.071,10.071,0,0,0,.475-.894q.223-.475.447-1.047t.5-1.355l-4.776-11h3.631l2.29,5.782.335,1.564.363-1.564,1.955-5.782h3.3Zm14.5.7V49.453a4.331,4.331,0,0,0-.237-1.718.864.864,0,0,0-.852-.489,2.352,2.352,0,0,0-1.285.545,13.509,13.509,0,0,0-1.843,1.718l-.447.475V57.8h-3.352V44.817h3.352v2.151a8.808,8.808,0,0,1,2.206-1.843,4.738,4.738,0,0,1,2.29-.559q3.519,0,3.519,3.687V57.8Zm17.093.168h-.7a8.283,8.283,0,0,1-1.061-.056,2.224,2.224,0,0,1-.74-.223,1.691,1.691,0,0,1-.545-.447,4.554,4.554,0,0,1-.447-.7,6.689,6.689,0,0,1-1.788,1.215,4.567,4.567,0,0,1-1.843.377,3.831,3.831,0,0,1-2.723-.978,3.317,3.317,0,0,1-1.047-2.542,4.137,4.137,0,0,1,.223-1.313,3.158,3.158,0,0,1,1.019-1.424,6.521,6.521,0,0,1,2.109-.95l3.687-1.061V48.783q0-2.039-1.592-2.039a2.286,2.286,0,0,0-1.285.349.991.991,0,0,0-.531.824.588.588,0,0,0,.014.14,1.812,1.812,0,0,0,.07.2l-3.184.7a3.157,3.157,0,0,1-.14-.461,2.572,2.572,0,0,1-.028-.433,3,3,0,0,1,1.438-2.667,7.5,7.5,0,0,1,4.092-.936,4.941,4.941,0,0,1,3.421.992,4.088,4.088,0,0,1,1.075,3.142v5.418a4.776,4.776,0,0,0,.042.712,1.1,1.1,0,0,0,.14.419.556.556,0,0,0,.307.223,2.394,2.394,0,0,0,.545.1Zm-3.854-5.949-3.324,1.089q-.14.391-.2.614a1.951,1.951,0,0,0-.056.475,1.216,1.216,0,0,0,1.341,1.341,2.791,2.791,0,0,0,1.369-.391,3.125,3.125,0,0,0,.335-.2q.168-.112.531-.391Zm19.383-1.089a8.217,8.217,0,0,1-.489,2.863,7.319,7.319,0,0,1-1.341,2.3,6.277,6.277,0,0,1-2,1.536,5.594,5.594,0,0,1-2.486.559,6.276,6.276,0,0,1-1.033-.084,3.851,3.851,0,0,1-.908-.265,3.762,3.762,0,0,1-.8-.573v7.038h-3.352v-19.5h3.352v1.76a8.848,8.848,0,0,1,.782-.95,4.223,4.223,0,0,1,.642-.531,3.977,3.977,0,0,1,2.234-.642,4.828,4.828,0,0,1,2.165.489,5.11,5.11,0,0,1,1.7,1.355,6.5,6.5,0,0,1,1.117,2.053A7.953,7.953,0,0,1,307.494,50.933ZM304,51.157a5.043,5.043,0,0,0-.754-2.877,2.252,2.252,0,0,0-1.927-1.117,3.415,3.415,0,0,0-2.877,2.039v4.329a2.508,2.508,0,0,0,.154,1.019,1.255,1.255,0,0,0,.573.545,3.825,3.825,0,0,0,.782.279,3.565,3.565,0,0,0,.866.112,2.492,2.492,0,0,0,1.257-.335,3.152,3.152,0,0,0,1.005-.922,4.934,4.934,0,0,0,.67-1.369A5.54,5.54,0,0,0,304,51.157Zm14.831-2.737q-.559-.363-.894-.559a6.583,6.583,0,0,0-1.48-.656,5.185,5.185,0,0,0-1.508-.237,3.065,3.065,0,0,0-1.55.335,1.008,1.008,0,0,0-.573.894.952.952,0,0,0,.363.754,4.107,4.107,0,0,0,1.257.614q.531.2,1.131.433t1.145.489q.545.251.978.475a4.843,4.843,0,0,1,.656.391,3.089,3.089,0,0,1,.978,1.229,3.868,3.868,0,0,1,.363,1.648,3.462,3.462,0,0,1-.377,1.62,3.721,3.721,0,0,1-1.047,1.243,4.865,4.865,0,0,1-1.634.8,7.66,7.66,0,0,1-2.137.279,10.221,10.221,0,0,1-2.123-.251q-.447-.084-.81-.182a6.385,6.385,0,0,1-.712-.237q-.349-.14-.754-.321t-.936-.461l1.061-2.709q.5.307.866.517t.67.363q.307.154.6.265t.656.223a4.586,4.586,0,0,0,1.452.251,3.162,3.162,0,0,0,1.508-.293.906.906,0,0,0,.531-.824q0-.866-1.313-1.369l-2.234-.866a6.418,6.418,0,0,1-2.542-1.592,3.267,3.267,0,0,1-.81-2.234,3.608,3.608,0,0,1,.377-1.662,3.82,3.82,0,0,1,1.075-1.285,5.055,5.055,0,0,1,1.676-.838,7.461,7.461,0,0,1,2.151-.293,10.916,10.916,0,0,1,2.151.251q.447.084.8.182t.656.209a5.218,5.218,0,0,1,.628.279q.321.168.768.419ZM333.5,56.547q-.475.251-.824.419t-.573.279a10.386,10.386,0,0,1-4.273.922,7.018,7.018,0,0,1-2.611-.461,5.6,5.6,0,0,1-1.983-1.313,5.679,5.679,0,0,1-1.257-2.053,7.864,7.864,0,0,1-.433-2.681,8.218,8.218,0,0,1,.489-2.863,6.882,6.882,0,0,1,1.369-2.29A6.366,6.366,0,0,1,325.467,45a6.12,6.12,0,0,1,2.583-.545,5.521,5.521,0,0,1,2.206.433,4.927,4.927,0,0,1,1.718,1.215,5.659,5.659,0,0,1,1.117,1.885,6.961,6.961,0,0,1,.4,2.416v1.424h-8.6a10.96,10.96,0,0,0,.14,1.243,2.675,2.675,0,0,0,.307.824,2.97,2.97,0,0,0,1.2,1.145,3.551,3.551,0,0,0,1.7.419,6.949,6.949,0,0,0,.768-.042,3.4,3.4,0,0,0,.768-.182,6.3,6.3,0,0,0,1.089-.419q.5-.251,1.4-.81Zm-3.352-6.815a3.479,3.479,0,0,0-.6-2.137,2.156,2.156,0,0,0-1.718-.628,2.477,2.477,0,0,0-1.829.712,3.673,3.673,0,0,0-.936,2.053Zm14.244-1.313q-.559-.363-.894-.559a6.582,6.582,0,0,0-1.48-.656,5.185,5.185,0,0,0-1.508-.237,3.064,3.064,0,0,0-1.55.335,1.007,1.007,0,0,0-.573.894.952.952,0,0,0,.363.754,4.108,4.108,0,0,0,1.257.614q.531.2,1.131.433t1.145.489q.545.251.978.475a4.844,4.844,0,0,1,.656.391,3.089,3.089,0,0,1,.978,1.229,3.868,3.868,0,0,1,.363,1.648,3.463,3.463,0,0,1-.377,1.62,3.721,3.721,0,0,1-1.047,1.243,4.865,4.865,0,0,1-1.634.8,7.66,7.66,0,0,1-2.137.279,10.221,10.221,0,0,1-2.123-.251q-.447-.084-.81-.182a6.387,6.387,0,0,1-.712-.237q-.349-.14-.754-.321t-.936-.461l1.061-2.709q.5.307.866.517t.67.363q.307.154.6.265t.656.223a4.586,4.586,0,0,0,1.452.251,3.162,3.162,0,0,0,1.508-.293.906.906,0,0,0,.531-.824q0-.866-1.313-1.369l-2.234-.866a6.419,6.419,0,0,1-2.542-1.592,3.267,3.267,0,0,1-.81-2.234,3.608,3.608,0,0,1,.377-1.662,3.82,3.82,0,0,1,1.075-1.285,5.056,5.056,0,0,1,1.676-.838,7.461,7.461,0,0,1,2.151-.293,10.915,10.915,0,0,1,2.151.251q.447.084.8.182t.656.209a5.211,5.211,0,0,1,.628.279q.321.168.768.419Zm17.736,8.128q-.335.223-.642.4l-.586.349a5.838,5.838,0,0,1-2.9.866q-2.542,0-2.542-2.821V47.274h-1.927V45.152l1.927-.335V40.934h3.156v3.882h2.821v2.458h-2.821v5.782a5.146,5.146,0,0,0,.14,1.48.526.526,0,0,0,.531.391,1.8,1.8,0,0,0,.7-.168,7.175,7.175,0,0,0,1.089-.642ZM375.811,51.3a7.3,7.3,0,0,1-.5,2.737,6.746,6.746,0,0,1-1.383,2.179,6.305,6.305,0,0,1-2.067,1.438,6.717,6.717,0,0,1-5.167,0,6.306,6.306,0,0,1-2.067-1.438,6.745,6.745,0,0,1-1.383-2.179,7.3,7.3,0,0,1-.5-2.737,7.227,7.227,0,0,1,.5-2.709,6.745,6.745,0,0,1,1.383-2.179,6.306,6.306,0,0,1,2.067-1.438,6.717,6.717,0,0,1,5.167,0,6.305,6.305,0,0,1,2.067,1.438,6.746,6.746,0,0,1,1.383,2.179A7.227,7.227,0,0,1,375.811,51.3Zm-3.463,0a5.092,5.092,0,0,0-.251-1.62,4.8,4.8,0,0,0-.67-1.327,3.34,3.34,0,0,0-.978-.908,2.246,2.246,0,0,0-1.173-.335,2.294,2.294,0,0,0-1.2.335,3.34,3.34,0,0,0-.978.908,4.532,4.532,0,0,0-.656,1.327,5.366,5.366,0,0,0-.237,1.62,5.5,5.5,0,0,0,.237,1.634,4.5,4.5,0,0,0,.656,1.341,3.34,3.34,0,0,0,.978.908,2.294,2.294,0,0,0,1.2.335,2.246,2.246,0,0,0,1.173-.335,3.34,3.34,0,0,0,.978-.908,4.758,4.758,0,0,0,.67-1.341A5.221,5.221,0,0,0,372.347,51.3Zm21.534-2.877q-.559-.363-.894-.559a6.582,6.582,0,0,0-1.48-.656A5.185,5.185,0,0,0,390,46.967a3.065,3.065,0,0,0-1.55.335,1.008,1.008,0,0,0-.573.894.952.952,0,0,0,.363.754,4.108,4.108,0,0,0,1.257.614q.531.2,1.131.433t1.145.489q.545.251.978.475a4.846,4.846,0,0,1,.656.391,3.089,3.089,0,0,1,.978,1.229,3.868,3.868,0,0,1,.363,1.648,3.462,3.462,0,0,1-.377,1.62,3.721,3.721,0,0,1-1.047,1.243,4.865,4.865,0,0,1-1.634.8,7.66,7.66,0,0,1-2.137.279,10.221,10.221,0,0,1-2.123-.251q-.447-.084-.81-.182a6.387,6.387,0,0,1-.712-.237q-.349-.14-.754-.321t-.936-.461l1.061-2.709q.5.307.866.517t.67.363q.307.154.6.265t.656.223a4.586,4.586,0,0,0,1.452.251,3.162,3.162,0,0,0,1.508-.293.906.906,0,0,0,.531-.824q0-.866-1.313-1.369l-2.234-.866a6.418,6.418,0,0,1-2.542-1.592,3.267,3.267,0,0,1-.81-2.234,3.608,3.608,0,0,1,.377-1.662,3.82,3.82,0,0,1,1.075-1.285,5.056,5.056,0,0,1,1.676-.838,7.461,7.461,0,0,1,2.151-.293,10.915,10.915,0,0,1,2.151.251q.447.084.8.182t.656.209a5.213,5.213,0,0,1,.628.279q.321.168.768.419Zm9.664,8.686q-.251.7-.475,1.257t-.461,1.061q-.237.5-.517,1.019t-.642,1.1q-.307.5-.545.88t-.489.74q-.251.363-.545.74t-.712.908l-2.737-1.788q.447-.5.782-.866t.6-.7q.265-.335.5-.67t.517-.754q.307-.5.559-.922a10.079,10.079,0,0,0,.475-.894q.223-.475.447-1.047t.5-1.355l-4.776-11h3.631l2.29,5.782.335,1.564.363-1.564,1.955-5.782h3.3ZM418.46,48.42q-.559-.363-.894-.559a6.582,6.582,0,0,0-1.48-.656,5.185,5.185,0,0,0-1.508-.237,3.064,3.064,0,0,0-1.55.335,1.007,1.007,0,0,0-.573.894.952.952,0,0,0,.363.754,4.107,4.107,0,0,0,1.257.614q.531.2,1.131.433t1.145.489q.545.251.978.475a4.844,4.844,0,0,1,.656.391,3.089,3.089,0,0,1,.978,1.229,3.868,3.868,0,0,1,.363,1.648,3.463,3.463,0,0,1-.377,1.62,3.721,3.721,0,0,1-1.047,1.243,4.865,4.865,0,0,1-1.634.8,7.66,7.66,0,0,1-2.137.279,10.221,10.221,0,0,1-2.123-.251q-.447-.084-.81-.182a6.387,6.387,0,0,1-.712-.237q-.349-.14-.754-.321t-.936-.461l1.061-2.709q.5.307.866.517t.67.363q.307.154.6.265t.656.223a4.586,4.586,0,0,0,1.452.251,3.162,3.162,0,0,0,1.508-.293.906.906,0,0,0,.531-.824q0-.866-1.313-1.369l-2.234-.866a6.419,6.419,0,0,1-2.542-1.592,3.267,3.267,0,0,1-.81-2.234,3.608,3.608,0,0,1,.377-1.662A3.82,3.82,0,0,1,410.7,45.5a5.055,5.055,0,0,1,1.676-.838,7.461,7.461,0,0,1,2.151-.293,10.915,10.915,0,0,1,2.151.251q.447.084.8.182t.656.209a5.209,5.209,0,0,1,.628.279q.321.168.768.419Zm10.753,8.128q-.335.223-.642.4l-.587.349a5.838,5.838,0,0,1-2.9.866q-2.542,0-2.542-2.821V47.274h-1.927V45.152l1.927-.335V40.934h3.156v3.882h2.821v2.458h-2.821v5.782a5.146,5.146,0,0,0,.14,1.48.526.526,0,0,0,.531.391,1.8,1.8,0,0,0,.7-.168,7.176,7.176,0,0,0,1.089-.642Zm12.541,0q-.475.251-.824.419t-.573.279a10.386,10.386,0,0,1-4.273.922,7.018,7.018,0,0,1-2.611-.461,5.6,5.6,0,0,1-1.983-1.313,5.679,5.679,0,0,1-1.257-2.053,7.864,7.864,0,0,1-.433-2.681,8.218,8.218,0,0,1,.489-2.863,6.882,6.882,0,0,1,1.369-2.29A6.366,6.366,0,0,1,433.724,45a6.12,6.12,0,0,1,2.584-.545,5.521,5.521,0,0,1,2.206.433,4.927,4.927,0,0,1,1.718,1.215,5.659,5.659,0,0,1,1.117,1.885,6.961,6.961,0,0,1,.4,2.416v1.424h-8.6a10.967,10.967,0,0,0,.14,1.243,2.676,2.676,0,0,0,.307.824,2.97,2.97,0,0,0,1.2,1.145,3.551,3.551,0,0,0,1.7.419,6.95,6.95,0,0,0,.768-.042,3.4,3.4,0,0,0,.768-.182,6.3,6.3,0,0,0,1.089-.419q.5-.251,1.4-.81ZM438.4,49.732a3.479,3.479,0,0,0-.6-2.137,2.156,2.156,0,0,0-1.718-.628,2.477,2.477,0,0,0-1.829.712,3.673,3.673,0,0,0-.936,2.053ZM460.243,57.8V49.453a4.331,4.331,0,0,0-.237-1.718.841.841,0,0,0-.824-.489,3.2,3.2,0,0,0-1.815.95q-.363.307-.754.7t-1.033,1.117V57.8h-3.352V49.453a4.33,4.33,0,0,0-.237-1.718.864.864,0,0,0-.852-.489,2.352,2.352,0,0,0-1.285.545,13.51,13.51,0,0,0-1.843,1.718l-.447.475V57.8h-3.352V44.817h3.352v2.151a8.808,8.808,0,0,1,2.206-1.843,4.738,4.738,0,0,1,2.29-.559q2.933,0,3.407,2.542a6.029,6.029,0,0,1,4.608-2.542q3.519,0,3.519,3.687V57.8Zm15.641-9.384q-.559-.363-.894-.559a6.583,6.583,0,0,0-1.48-.656A5.185,5.185,0,0,0,472,46.967a3.064,3.064,0,0,0-1.55.335,1.008,1.008,0,0,0-.573.894.951.951,0,0,0,.363.754,4.107,4.107,0,0,0,1.257.614q.531.2,1.131.433t1.145.489q.545.251.978.475a4.844,4.844,0,0,1,.656.391,3.089,3.089,0,0,1,.978,1.229,3.868,3.868,0,0,1,.363,1.648,3.463,3.463,0,0,1-.377,1.62,3.722,3.722,0,0,1-1.047,1.243,4.865,4.865,0,0,1-1.634.8,7.66,7.66,0,0,1-2.137.279,10.221,10.221,0,0,1-2.123-.251q-.447-.084-.81-.182a6.386,6.386,0,0,1-.712-.237q-.349-.14-.754-.321t-.936-.461l1.061-2.709q.5.307.866.517t.67.363q.307.154.6.265t.656.223a4.586,4.586,0,0,0,1.452.251,3.162,3.162,0,0,0,1.508-.293.906.906,0,0,0,.531-.824q0-.866-1.313-1.369l-2.234-.866a6.419,6.419,0,0,1-2.542-1.592,3.267,3.267,0,0,1-.81-2.234,3.608,3.608,0,0,1,.377-1.662A3.82,3.82,0,0,1,468.12,45.5a5.055,5.055,0,0,1,1.676-.838,7.461,7.461,0,0,1,2.151-.293,10.916,10.916,0,0,1,2.151.251q.447.084.8.182t.656.209a5.216,5.216,0,0,1,.628.279q.321.168.768.419Z" transform="translate(-5807.972 -7225.43)" fill="#1f1f1f"/>
    <path id="Pfad_14311" data-name="Pfad 14311" d="M24.873,14.254q-5.921-2.625-9.552-2.625a7.355,7.355,0,0,0-3.966.922,2.9,2.9,0,0,0-.67,4.5,11.2,11.2,0,0,0,2.737,1.9q8.547,4.581,11.06,7.094a8.26,8.26,0,0,1,1.843,2.9A10.123,10.123,0,0,1,27,32.632a9.326,9.326,0,0,1-3.407,7.709q-3.407,2.737-9.552,2.737-.838,0-1.676-.056t-1.62-.168q-1.005-.112-1.788-.279a15.21,15.21,0,0,1-1.62-.447Q6.5,41.849,5.49,41.4T3.032,40.285q-.726-.335-2.4-1.117l2.961-6.48q1.005.559,1.76.95t1.341.67q.587.279,1.089.5t1.061.447a19.574,19.574,0,0,0,2.793.782,12.945,12.945,0,0,0,2.514.279,6.76,6.76,0,0,0,3.91-1.005,3.111,3.111,0,0,0,1.452-2.681,3.183,3.183,0,0,0-.726-2.067,8.894,8.894,0,0,0-2.514-1.9l-5.7-3.24a43.81,43.81,0,0,1-4.106-2.6,13.982,13.982,0,0,1-2.625-2.4,7.836,7.836,0,0,1-1.4-2.458A8.7,8.7,0,0,1,2.027,15.2a9.727,9.727,0,0,1,.391-2.737,9.4,9.4,0,0,1,1.061-2.4A10.588,10.588,0,0,1,6.216,7.328,16.885,16.885,0,0,1,8.2,6.183,12.463,12.463,0,0,1,10.266,5.4a12.815,12.815,0,0,1,2.346-.419q1.257-.112,2.877-.112a26.631,26.631,0,0,1,3.519.223,23.234,23.234,0,0,1,3.407.726q.67.223,1.229.419t1.145.419q.587.223,1.257.531t1.62.754Zm16.479-2.793v9.5h12.96v5.921H41.352V42.352H34.314V5.484H57.16v5.977ZM89.559,32.521q0,4.8-2.9,7.318t-8.491,2.514H63.137V5.484H76.488a23.672,23.672,0,0,1,5.642.531A8.157,8.157,0,0,1,85.7,7.942a8.217,8.217,0,0,1,2.123,2.989,8.778,8.778,0,0,1,.223,6.7,8.676,8.676,0,0,1-1.564,2.709,7.832,7.832,0,0,1-2.57,2.011,9.316,9.316,0,0,1-3.3.67A9.2,9.2,0,0,1,87.1,25.65,9.4,9.4,0,0,1,89.559,32.521Zm-7.709-.782a4.584,4.584,0,0,0-1.732-3.854,8.088,8.088,0,0,0-5.027-1.341H70.511V36.71h4.581a17.915,17.915,0,0,0,2.542-.14,5.689,5.689,0,0,0,1.7-.531,4.589,4.589,0,0,0,1.843-1.732A4.9,4.9,0,0,0,81.851,31.739ZM80.789,15.763A4.215,4.215,0,0,0,79.281,12.3a6.456,6.456,0,0,0-4.189-1.229H70.511v9.5H74.7Q80.789,20.567,80.789,15.763ZM113.97,42.352V20.567h-6.312V14.981h12.96V42.352Zm34.8-1.452a12.481,12.481,0,0,1-1.2,5.5,12.116,12.116,0,0,1-3.407,4.245,16.254,16.254,0,0,1-5.307,2.737,22.872,22.872,0,0,1-6.9.978h-1.536q-.922,0-2.039-.056V49h2.179q1.341,0,2.346-.056t1.788-.168a14.394,14.394,0,0,0,1.452-.279,12.944,12.944,0,0,0,1.285-.391,7.067,7.067,0,0,0,1.9-1.117,7.423,7.423,0,0,0,1.508-1.648,8.727,8.727,0,0,0,.978-1.955,6.279,6.279,0,0,0,.363-2.095q0-5.251-6.424-5.251H131.9V30.789a18.386,18.386,0,0,0,6.508-2.877,5.2,5.2,0,0,0,1.927-4.217,3.66,3.66,0,0,0-.838-2.514,2.769,2.769,0,0,0-2.179-.95,6.689,6.689,0,0,0-2.57.587,27.985,27.985,0,0,0-3.91,2.206L128.047,18.5q.782-.559,1.4-.922t1.061-.642a16.6,16.6,0,0,1,8.211-2.458,8.341,8.341,0,0,1,6.173,2.262,8.417,8.417,0,0,1,2.262,6.228,10.007,10.007,0,0,1-.614,3.575,7.286,7.286,0,0,1-1.788,2.737,8.8,8.8,0,0,1-1.676,1.229,29.562,29.562,0,0,1-2.737,1.285,9.6,9.6,0,0,1,6.2,2.849A8.818,8.818,0,0,1,148.771,40.9Zm11,1.452V20.567h-6.312V14.981h12.96V42.352Zm34.577-1.732q0,7.15-5.307,10.949a15.351,15.351,0,0,1-4.581,2.179,16.975,16.975,0,0,1-1.732.447,16.294,16.294,0,0,1-1.9.251q-1.061.084-2.374.14t-3.1.056V48.664q.782,0,1.341-.028t.95-.028q1.452-.056,2.458-.112a11.009,11.009,0,0,0,1.76-.223,9.685,9.685,0,0,0,1.341-.391,6.675,6.675,0,0,0,1.2-.614,6.493,6.493,0,0,0,2.318-2.486,7.3,7.3,0,0,0,.866-3.547q0-6.312-7.653-6.983l-3.91-.335V14.981h17.261v5.586H182.4v8.1l2.458.335a10.474,10.474,0,0,1,6.983,3.687A12.121,12.121,0,0,1,194.353,40.62Z" transform="translate(-5807.752 -7291.906)" fill="#1f1f1f"/>
  </g>
</svg>
