<svg id="Komponente_19_21" data-name="Komponente 19 – 21" xmlns="http://www.w3.org/2000/svg" width="366.135" height="86" viewBox="0 0 366.135 86">
  <g id="Logo">
    <path id="Pfad_1819" data-name="Pfad 1819" d="M40.975,12.468a45.683,45.683,0,0,0-11.4,3.486c-2.487,1.006-5.067,2.075-6.813,3.986s-2.374,4.931-.673,6.876c-3.725.821-7.708,1.781-10.193,4.455a8.036,8.036,0,0,0-1.985,7.222,8.8,8.8,0,0,0,5.019,5.861c2.267,1.008,4.965,1.169,7.011,2.516,1.745,1.15,2.929,3.108,5,3.64,2.29.588,4.692-.835,7.046-.523,2.6.345,4.4,2.684,6.933,3.338,2.641.683,5.511-.6,8.178-.007,3.417.759,5.136,4.13,7.294,6.675a7.566,7.566,0,0,0,5.21,3.021c2.12.084,4.336-1.763,3.744-3.632-.334-1.053-1.376-1.755-2.165-2.578s-1.338-2.119-.585-2.97c.6-.676,1.688-.7,2.635-.777a11.882,11.882,0,0,0,9.789-6.623A10.281,10.281,0,0,0,73.1,35.412a21.67,21.67,0,0,1-3.177-3.453A15.009,15.009,0,0,1,68.7,27.717a16.262,16.262,0,0,0-7.293-9.831,29.6,29.6,0,0,0-5.219-2.156c-2.319-.915-4.328-2.141-6.809-2.75A23.369,23.369,0,0,0,40.975,12.468Z" transform="translate(1.072 4.155)" fill="#95c1d2"/>
    <path id="path26" d="M0,43C0,19.251,19.272,0,43.685,0A43.331,43.331,0,0,1,71.714,10.214v6.621A38.258,38.258,0,0,0,43.886,4.908a37.959,37.959,0,1,0,0,75.918A38.258,38.258,0,0,0,71.714,68.9v6.886A43.325,43.325,0,0,1,43.685,86C19.292,86,0,66.748,0,43Z" fill="#1f1f1f"/>
    <path id="Pfad_1820" data-name="Pfad 1820" d="M77.3,39.237a13.313,13.313,0,0,0-5.725-7.4l0-.606a17.45,17.45,0,0,0-.116-1.772,15.839,15.839,0,0,0-.83-3.464,16.8,16.8,0,0,0-3.873-6.072,18.506,18.506,0,0,0-6.2-4.092A19.625,19.625,0,0,0,53.8,14.419a16.587,16.587,0,0,0-4.763-2.777,17.65,17.65,0,0,0-12.5.058,16.443,16.443,0,0,0-4.76,2.854,13.219,13.219,0,0,0-5.99,1.782,14.023,14.023,0,0,0-2.647,2.016,14.481,14.481,0,0,0-1.108,1.183l-.494.63a5.876,5.876,0,0,0-.476.768,7.166,7.166,0,0,0-.8,3.193,5.493,5.493,0,0,0,.216,1.569,3.88,3.88,0,0,0,.323.9c.052.1.117.2.178.3a19.03,19.03,0,0,0-2.561.063,14.5,14.5,0,0,0-4.817,1.26A9.758,9.758,0,0,0,9.672,31.5a9.441,9.441,0,0,0-1.594,4.69,10.205,10.205,0,0,0,.773,4.853,11.179,11.179,0,0,0,3.021,4.071,12.8,12.8,0,0,0,4.6,2.517,13.717,13.717,0,0,0,2.636.535c.433.042.9.061,1.309.063A9.862,9.862,0,0,0,22.895,51a10.75,10.75,0,0,0,4.685,2.029,10.424,10.424,0,0,0,1.3.149l.642.021.534,0,2.136.008,3.448-.006a10.526,10.526,0,0,0,5.475,2.543,11.958,11.958,0,0,0,1.756.119l1.455-.007,1.709-.008,6.413.05a49.994,49.994,0,0,0,6.8,7.711q.669.661,1.368,1.359l.871.873,1.076-.65a26.657,26.657,0,0,0,4.31-3.111l.973-.857-.807-.993c-.324-.4-.647-.785-.968-1.169C65.191,58,64.366,57,63.64,55.938c.268-.009.533-.01.8-.033a15.5,15.5,0,0,0,2.754-.49,15.046,15.046,0,0,0,8.633-6.154A11.851,11.851,0,0,0,77.3,39.237Zm-3.55,4.657A8.593,8.593,0,0,1,72.4,47.363a11.437,11.437,0,0,1-8.347,4.875c-.34.03-.664.042-1.018.047l-1.115,0-1.308-.023a1.341,1.341,0,0,0-1.374,1.784A27.371,27.371,0,0,0,63.778,60.9h0a21.67,21.67,0,0,1-1.814,1.294c-.165-.164-.33-.326-.492-.489-3.019-2.989-5.5-5.446-7.249-8.572a1.465,1.465,0,0,0-1.274-.738l-2.3-.013c-1.726.018-3.139.03-3.413.029l-2.911-.012-1.455-.007a7.969,7.969,0,0,1-2.557-.429A3.992,3.992,0,0,1,38.093,50.5a1.954,1.954,0,0,0-1.619-.836h-.012l-4.272-.008-2.136.009h-.534l-.427-.012a6.1,6.1,0,0,1-.818-.087A6.814,6.814,0,0,1,25.3,48.3a6.226,6.226,0,0,1-1.147-1.107c-.071-.089-.143-.179-.215-.273a4.057,4.057,0,0,1-.873-2.164v-.01a3.492,3.492,0,0,1,.018-1.292,6.207,6.207,0,0,1,.5-1.42,10.813,10.813,0,0,1,.876-1.4l.071-.1a.681.681,0,0,0,.049-.746.827.827,0,0,0-1.068-.313,7.52,7.52,0,0,0-1.854,1.22,6.675,6.675,0,0,0-1.431,1.741,5.564,5.564,0,0,0-.746,2.258c0,.019,0,.038,0,.057H19.47a9.715,9.715,0,0,1-1.874-.336A9.145,9.145,0,0,1,14.268,42.7,7.5,7.5,0,0,1,11.4,36.377a7.371,7.371,0,0,1,.975-3.4,7.642,7.642,0,0,1,2.61-2.587,19.438,19.438,0,0,1,7-2.332c.1.085.2.171.3.249a7.665,7.665,0,0,0,4.328,1.442c.464.009.636,0,.938.021a7.482,7.482,0,0,1,.786.072,3.849,3.849,0,0,1,1.23.348.968.968,0,0,1,.284.211v13.08a2.187,2.187,0,0,0,4.365-.125V35.408c0-2.693,1.661-4.355,4.077-4.355s3.861,1.529,3.861,4.255v8.05a2.135,2.135,0,0,0,1.79,2.087,2.112,2.112,0,0,0,2.575-1.96V35.408c0-2.826,1.7-4.355,4.077-4.355,2.453,0,3.86,1.5,3.86,4.288v5.534a2.16,2.16,0,0,0,.049.444,4.847,4.847,0,0,0,4.741,4.16,2.246,2.246,0,0,0,2.4-1.778,2.09,2.09,0,0,0-2.178-2.26.643.643,0,0,1-.648-.6V34.112c0-4.288-2.525-6.715-6.674-6.715a7.863,7.863,0,0,0-6.421,3.092,6.131,6.131,0,0,0-5.7-3.092,6.952,6.952,0,0,0-5.809,3.026l-.027-.03a4.6,4.6,0,0,0-.764-1.74,4.669,4.669,0,0,0-2.489-1.689,7.945,7.945,0,0,0-2.432-.3c-.376,0-.736.032-1.087.07-.323.029-.771.1-.932.121a4.8,4.8,0,0,1-2.744-.445,2.47,2.47,0,0,1-1.455-1.885,5.3,5.3,0,0,1,.771-2.63,3.219,3.219,0,0,1,.34-.446l.472-.49a12.376,12.376,0,0,1,1.021-.9,11.594,11.594,0,0,1,2.327-1.387,12.545,12.545,0,0,1,5.215-1.095,1.712,1.712,0,0,0,1.163-.44l.008-.007A13.511,13.511,0,0,1,42.77,13.7a13.694,13.694,0,0,1,6.3,1.574,17.792,17.792,0,0,0-8.163,4.813.647.647,0,0,0,0,.9.789.789,0,0,0,1.05.068,16.138,16.138,0,0,1,10.575-3.439,20.735,20.735,0,0,1,6.528,1.291,14.775,14.775,0,0,1,4.91,3.322,13.319,13.319,0,0,1,3.013,4.856,12.479,12.479,0,0,1,.622,2.746c.035.334.042.671.053,1.007-.17.008-.34.011-.506.026a5.774,5.774,0,0,0-1.613.369A5.06,5.06,0,0,0,64.157,32a.691.691,0,0,0-.286.571.742.742,0,0,0,.789.683l.1,0A7.052,7.052,0,0,1,67,33.524a6.025,6.025,0,0,1,.97.37,14.109,14.109,0,0,1,2.2,1.492,9.589,9.589,0,0,1,3.3,4.807A8.84,8.84,0,0,1,73.749,43.894Z" transform="translate(0.887 1.162)" fill="#1f1f1f"/>
  </g>
  <path id="Pfad_14311" data-name="Pfad 14311" d="M9.93,13V5.74q-.03.2-.045.322a1.742,1.742,0,0,1-.052.263q-.037.135-.1.322t-.18.5L7.29,13h-1.7L3.525,7.255q-.075-.21-.128-.368a2.345,2.345,0,0,1-.082-.322Q3.285,6.4,3.247,6.2t-.1-.517V13H1.44V3.1H3.7l2.64,7.065q.075.21.12.345a2.154,2.154,0,0,1,.075.42q.045-.345.075-.465a2.2,2.2,0,0,1,.105-.3L9.465,3.1H11.73V13Zm10-.675q-.255.135-.442.225l-.308.15a5.578,5.578,0,0,1-2.3.495,3.769,3.769,0,0,1-1.4-.247,3.005,3.005,0,0,1-1.065-.7,3.05,3.05,0,0,1-.675-1.1,4.223,4.223,0,0,1-.233-1.44,4.413,4.413,0,0,1,.262-1.537,3.7,3.7,0,0,1,.735-1.23,3.419,3.419,0,0,1,1.11-.81A3.287,3.287,0,0,1,17.01,5.83a2.965,2.965,0,0,1,1.185.232,2.646,2.646,0,0,1,.923.653,3.039,3.039,0,0,1,.6,1.012,3.739,3.739,0,0,1,.217,1.3V9.79h-4.62a5.885,5.885,0,0,0,.075.668,1.437,1.437,0,0,0,.165.442,1.6,1.6,0,0,0,.645.615,1.907,1.907,0,0,0,.915.225,3.733,3.733,0,0,0,.413-.023,1.825,1.825,0,0,0,.413-.1,3.383,3.383,0,0,0,.585-.225q.27-.135.75-.435Zm-1.8-3.66a1.868,1.868,0,0,0-.323-1.148,1.158,1.158,0,0,0-.923-.338,1.33,1.33,0,0,0-.982.383,1.973,1.973,0,0,0-.5,1.1Zm8.01,4.125a5.266,5.266,0,0,1-2.04.4,4.049,4.049,0,0,1-1.47-.255,3.072,3.072,0,0,1-1.118-.727,3.318,3.318,0,0,1-.712-1.14A4.154,4.154,0,0,1,20.55,9.58a4.226,4.226,0,0,1,.27-1.538,3.509,3.509,0,0,1,.75-1.192,3.272,3.272,0,0,1,1.163-.765,4.107,4.107,0,0,1,1.523-.27,5.374,5.374,0,0,1,.577.03q.277.03.563.09a4.015,4.015,0,0,1,.638.2,6.681,6.681,0,0,1,.7.368L25.875,7.87a2.953,2.953,0,0,0-.7-.42,1.952,1.952,0,0,0-.713-.12,1.974,1.974,0,0,0-.817.165,1.89,1.89,0,0,0-.638.465,2.166,2.166,0,0,0-.42.7,2.775,2.775,0,0,0-.015,1.755,2.015,2.015,0,0,0,.375.667,1.628,1.628,0,0,0,.577.428,1.808,1.808,0,0,0,.743.15,2.688,2.688,0,0,0,.84-.127,4.893,4.893,0,0,0,.96-.472l.66,1.455ZM32.22,13V8.515a2.326,2.326,0,0,0-.128-.922.464.464,0,0,0-.457-.262,1.263,1.263,0,0,0-.69.293,7.256,7.256,0,0,0-.99.923l-.24.255V13h-1.8V2.065h1.8V7.18A4.731,4.731,0,0,1,30.9,6.19a2.545,2.545,0,0,1,1.23-.3q1.89,0,1.89,1.98V13Zm9.18.09h-.375a4.448,4.448,0,0,1-.57-.03,1.194,1.194,0,0,1-.4-.12.908.908,0,0,1-.292-.24,2.444,2.444,0,0,1-.24-.375,3.592,3.592,0,0,1-.96.653,2.453,2.453,0,0,1-.99.2,2.057,2.057,0,0,1-1.462-.525,1.782,1.782,0,0,1-.562-1.365,2.222,2.222,0,0,1,.12-.7,1.7,1.7,0,0,1,.548-.765,3.5,3.5,0,0,1,1.132-.51l1.98-.57V8.155q0-1.1-.855-1.095a1.228,1.228,0,0,0-.69.188.532.532,0,0,0-.285.443.315.315,0,0,0,.007.075.976.976,0,0,0,.038.105l-1.71.375A1.694,1.694,0,0,1,35.76,8a1.379,1.379,0,0,1-.015-.233,1.61,1.61,0,0,1,.772-1.432,4.027,4.027,0,0,1,2.2-.5,2.654,2.654,0,0,1,1.838.532A2.2,2.2,0,0,1,41.13,8.05v2.91a2.567,2.567,0,0,0,.022.382.593.593,0,0,0,.075.225.3.3,0,0,0,.165.12,1.286,1.286,0,0,0,.292.052ZM39.33,9.9l-1.785.585q-.075.21-.1.33a1.048,1.048,0,0,0-.03.255.653.653,0,0,0,.72.72,1.5,1.5,0,0,0,.735-.21,1.677,1.677,0,0,0,.18-.1q.09-.06.285-.21Zm8.2,3.1V8.515a2.326,2.326,0,0,0-.127-.922.464.464,0,0,0-.458-.262,1.263,1.263,0,0,0-.69.293,7.256,7.256,0,0,0-.99.923l-.24.255V13h-1.8V6.025h1.8V7.18a4.731,4.731,0,0,1,1.185-.99,2.545,2.545,0,0,1,1.23-.3q1.89,0,1.89,1.98V13ZM51.3,13V6.025h1.785V13Zm1.905-9.48a1.306,1.306,0,0,1-.293.863.894.894,0,0,1-.712.352.915.915,0,0,1-.72-.352,1.285,1.285,0,0,1-.3-.863,1.285,1.285,0,0,1,.3-.862.915.915,0,0,1,.72-.352.894.894,0,0,1,.712.352A1.306,1.306,0,0,1,53.205,3.52ZM59.64,7.96q-.3-.2-.48-.3a3.535,3.535,0,0,0-.795-.352,2.784,2.784,0,0,0-.81-.128,1.646,1.646,0,0,0-.832.18.541.541,0,0,0-.308.48.511.511,0,0,0,.195.405,2.206,2.206,0,0,0,.675.33q.285.1.607.232t.615.262q.292.135.525.255a2.6,2.6,0,0,1,.353.21,1.659,1.659,0,0,1,.525.66,2.077,2.077,0,0,1,.195.885,1.859,1.859,0,0,1-.2.87,2,2,0,0,1-.562.668,2.613,2.613,0,0,1-.877.427,4.114,4.114,0,0,1-1.147.15,5.489,5.489,0,0,1-1.14-.135q-.24-.045-.435-.1a3.43,3.43,0,0,1-.382-.127q-.187-.075-.4-.172t-.5-.248l.57-1.455q.27.165.465.278t.36.195q.165.083.323.142t.352.12a2.463,2.463,0,0,0,.78.135,1.7,1.7,0,0,0,.81-.158.487.487,0,0,0,.285-.443q0-.465-.7-.735l-1.2-.465a3.447,3.447,0,0,1-1.365-.855,1.755,1.755,0,0,1-.435-1.2,1.938,1.938,0,0,1,.2-.892,2.052,2.052,0,0,1,.577-.69,2.715,2.715,0,0,1,.9-.45,4.007,4.007,0,0,1,1.155-.158,5.862,5.862,0,0,1,1.155.135q.24.045.428.1t.353.113a2.8,2.8,0,0,1,.337.15q.173.09.413.225ZM70.425,13V8.515a2.326,2.326,0,0,0-.128-.922.452.452,0,0,0-.443-.262,1.72,1.72,0,0,0-.975.51q-.195.165-.4.375t-.555.6V13h-1.8V8.515a2.326,2.326,0,0,0-.128-.922.464.464,0,0,0-.457-.262,1.263,1.263,0,0,0-.69.293,7.256,7.256,0,0,0-.99.923l-.24.255V13h-1.8V6.025h1.8V7.18A4.731,4.731,0,0,1,64.8,6.19a2.545,2.545,0,0,1,1.23-.3,1.616,1.616,0,0,1,1.83,1.365A3.238,3.238,0,0,1,70.335,5.89q1.89,0,1.89,1.98V13Zm8.4-5.04q-.3-.2-.48-.3a3.535,3.535,0,0,0-.795-.352,2.784,2.784,0,0,0-.81-.128,1.646,1.646,0,0,0-.833.18.541.541,0,0,0-.307.48.511.511,0,0,0,.195.405,2.206,2.206,0,0,0,.675.33q.285.1.608.232t.615.262q.292.135.525.255a2.6,2.6,0,0,1,.353.21,1.659,1.659,0,0,1,.525.66,2.077,2.077,0,0,1,.195.885,1.859,1.859,0,0,1-.2.87,2,2,0,0,1-.562.668,2.613,2.613,0,0,1-.877.427,4.114,4.114,0,0,1-1.148.15,5.489,5.489,0,0,1-1.14-.135q-.24-.045-.435-.1a3.43,3.43,0,0,1-.382-.127q-.187-.075-.4-.172t-.5-.248l.57-1.455q.27.165.465.278t.36.195q.165.083.322.142t.353.12a2.463,2.463,0,0,0,.78.135,1.7,1.7,0,0,0,.81-.158.487.487,0,0,0,.285-.443q0-.465-.705-.735l-1.2-.465a3.447,3.447,0,0,1-1.365-.855,1.755,1.755,0,0,1-.435-1.2,1.938,1.938,0,0,1,.2-.892,2.052,2.052,0,0,1,.577-.69,2.715,2.715,0,0,1,.9-.45,4.007,4.007,0,0,1,1.155-.158,5.862,5.862,0,0,1,1.155.135q.24.045.427.1t.353.113a2.8,2.8,0,0,1,.338.15q.172.09.412.225ZM90.06,13.09h-.375a4.448,4.448,0,0,1-.57-.03,1.194,1.194,0,0,1-.4-.12.908.908,0,0,1-.293-.24,2.445,2.445,0,0,1-.24-.375,3.593,3.593,0,0,1-.96.653,2.453,2.453,0,0,1-.99.2,2.057,2.057,0,0,1-1.463-.525,1.782,1.782,0,0,1-.562-1.365,2.222,2.222,0,0,1,.12-.7,1.7,1.7,0,0,1,.548-.765,3.5,3.5,0,0,1,1.132-.51l1.98-.57V8.155q0-1.1-.855-1.095a1.228,1.228,0,0,0-.69.188.532.532,0,0,0-.285.443.316.316,0,0,0,.007.075.976.976,0,0,0,.037.105l-1.71.375A1.694,1.694,0,0,1,84.42,8a1.379,1.379,0,0,1-.015-.233,1.61,1.61,0,0,1,.772-1.432,4.027,4.027,0,0,1,2.2-.5,2.654,2.654,0,0,1,1.837.532A2.2,2.2,0,0,1,89.79,8.05v2.91a2.567,2.567,0,0,0,.022.382.593.593,0,0,0,.075.225.3.3,0,0,0,.165.12,1.286,1.286,0,0,0,.293.052ZM87.99,9.9,86.2,10.48q-.075.21-.1.33a1.048,1.048,0,0,0-.03.255.653.653,0,0,0,.72.72,1.5,1.5,0,0,0,.735-.21,1.676,1.676,0,0,0,.18-.1q.09-.06.285-.21ZM96.195,13V8.515a2.326,2.326,0,0,0-.128-.922.464.464,0,0,0-.457-.262,1.263,1.263,0,0,0-.69.293,7.256,7.256,0,0,0-.99.923l-.24.255V13h-1.8V6.025h1.8V7.18a4.731,4.731,0,0,1,1.185-.99,2.545,2.545,0,0,1,1.23-.3q1.89,0,1.89,1.98V13Zm8.04,0v-.945a3.79,3.79,0,0,1-.33.45,1.754,1.754,0,0,1-.375.3,2.4,2.4,0,0,1-1.305.39,2.513,2.513,0,0,1-1.14-.262,2.768,2.768,0,0,1-.908-.727,3.49,3.49,0,0,1-.6-1.1,4.271,4.271,0,0,1-.217-1.387,4.369,4.369,0,0,1,.262-1.523,4.012,4.012,0,0,1,.713-1.238,3.409,3.409,0,0,1,1.058-.832,2.833,2.833,0,0,1,1.3-.307,2.931,2.931,0,0,1,.615.075,3.271,3.271,0,0,1,.457.15,3.535,3.535,0,0,1,.473.27V2.065h1.785V13Zm0-4.17a4.386,4.386,0,0,0-.03-.54,3.288,3.288,0,0,0-.06-.36.818.818,0,0,0-.42-.465,1.541,1.541,0,0,0-.75-.18,1.413,1.413,0,0,0-.69.173,1.719,1.719,0,0,0-.548.48,2.3,2.3,0,0,0-.36.727,3.138,3.138,0,0,0-.128.915,2.747,2.747,0,0,0,.4,1.545,1.2,1.2,0,0,0,1.043.6,1.438,1.438,0,0,0,.817-.27,2.687,2.687,0,0,0,.728-.78ZM121,8.02a5.254,5.254,0,0,1-.353,1.9,4.951,4.951,0,0,1-1.012,1.62A5.23,5.23,0,0,1,115.635,13h-3.66V3.1h3.675A7,7,0,0,1,118,3.438a4.269,4.269,0,0,1,1.673,1.117,4.843,4.843,0,0,1,.99,1.59A5.194,5.194,0,0,1,121,8.02Zm-2.04.015a3.968,3.968,0,0,0-.308-1.575,2.628,2.628,0,0,0-.832-1.11,2.58,2.58,0,0,0-.975-.443,5.96,5.96,0,0,0-1.4-.143h-1.5v6.57h1.5a3.653,3.653,0,0,0,2.6-.855A3.2,3.2,0,0,0,118.965,8.035ZM122.34,13V6.025h1.785V13Zm1.9-9.48a1.306,1.306,0,0,1-.292.863.894.894,0,0,1-.713.352.915.915,0,0,1-.72-.352,1.285,1.285,0,0,1-.3-.863,1.285,1.285,0,0,1,.3-.862.915.915,0,0,1,.72-.352.894.894,0,0,1,.713.352A1.306,1.306,0,0,1,124.245,3.52Zm6.435,4.44q-.3-.2-.48-.3a3.535,3.535,0,0,0-.795-.352,2.784,2.784,0,0,0-.81-.128,1.646,1.646,0,0,0-.833.18.541.541,0,0,0-.307.48.511.511,0,0,0,.195.405,2.206,2.206,0,0,0,.675.33q.285.1.607.232t.615.262q.292.135.525.255a2.6,2.6,0,0,1,.353.21,1.659,1.659,0,0,1,.525.66,2.077,2.077,0,0,1,.2.885,1.859,1.859,0,0,1-.2.87,2,2,0,0,1-.562.668,2.613,2.613,0,0,1-.878.427,4.114,4.114,0,0,1-1.148.15,5.489,5.489,0,0,1-1.14-.135q-.24-.045-.435-.1a3.43,3.43,0,0,1-.382-.127q-.187-.075-.4-.172t-.5-.248l.57-1.455q.27.165.465.278t.36.195q.165.083.322.142t.353.12a2.463,2.463,0,0,0,.78.135,1.7,1.7,0,0,0,.81-.158.487.487,0,0,0,.285-.443q0-.465-.705-.735l-1.2-.465a3.447,3.447,0,0,1-1.365-.855,1.755,1.755,0,0,1-.435-1.2,1.938,1.938,0,0,1,.2-.892,2.052,2.052,0,0,1,.577-.69,2.715,2.715,0,0,1,.9-.45,4.007,4.007,0,0,1,1.155-.158,5.862,5.862,0,0,1,1.155.135q.24.045.427.1t.353.113a2.8,2.8,0,0,1,.337.15q.173.09.413.225Zm5.775,4.365q-.18.12-.345.217l-.315.188a3.135,3.135,0,0,1-1.56.465q-1.365,0-1.365-1.515V7.345h-1.035V6.2l1.035-.18V3.94h1.695V6.025h1.515v1.32h-1.515V10.45a2.764,2.764,0,0,0,.075.8.283.283,0,0,0,.285.21.969.969,0,0,0,.375-.09,3.854,3.854,0,0,0,.585-.345Zm5.28.675V11.83a4.473,4.473,0,0,1-1.185,1,2.6,2.6,0,0,1-1.23.292q-1.89,0-1.89-1.965V6.025h1.8V10.51a2.333,2.333,0,0,0,.128.915.45.45,0,0,0,.443.27,1.273,1.273,0,0,0,.705-.292,7.255,7.255,0,0,0,.99-.923l.24-.255v-4.2h1.8V13Zm7.455-4.845a.879.879,0,0,0-.54-.21,1.186,1.186,0,0,0-.87.525,2.046,2.046,0,0,0-.48,1.335V13h-1.785V6.025h1.545l.075,1.53a6.6,6.6,0,0,1,.878-1.26,1.081,1.081,0,0,1,.772-.375,1.28,1.28,0,0,1,.975.495Zm7.89,1.035a4.638,4.638,0,0,1-.285,1.673,3.582,3.582,0,0,1-.81,1.267,3.475,3.475,0,0,1-1.283.8,4.923,4.923,0,0,1-1.7.278,6.667,6.667,0,0,1-.69-.038,7.171,7.171,0,0,1-.72-.112q-.27-.045-.465-.09a4.784,4.784,0,0,1-.525-.165V2.065h1.785V6.2a3.843,3.843,0,0,1,1.74-.375,3.1,3.1,0,0,1,1.223.232,2.507,2.507,0,0,1,.93.675A3.144,3.144,0,0,1,156.87,7.8,4.323,4.323,0,0,1,157.08,9.19Zm-1.875.09a2.292,2.292,0,0,0-.465-1.507,1.549,1.549,0,0,0-1.26-.562,1.753,1.753,0,0,0-.525.075,3.952,3.952,0,0,0-.57.24V11.68a3.379,3.379,0,0,0,.465.157,1.624,1.624,0,0,0,.36.038A1.655,1.655,0,0,0,154,11.68a1.951,1.951,0,0,0,.637-.548,2.673,2.673,0,0,0,.42-.825A3.379,3.379,0,0,0,155.205,9.28Zm8.6,3.81h-.375a4.449,4.449,0,0,1-.57-.03,1.194,1.194,0,0,1-.4-.12.908.908,0,0,1-.292-.24,2.444,2.444,0,0,1-.24-.375,3.592,3.592,0,0,1-.96.653,2.452,2.452,0,0,1-.99.2,2.057,2.057,0,0,1-1.463-.525,1.782,1.782,0,0,1-.562-1.365,2.222,2.222,0,0,1,.12-.7,1.7,1.7,0,0,1,.548-.765,3.5,3.5,0,0,1,1.132-.51l1.98-.57V8.155q0-1.1-.855-1.095a1.228,1.228,0,0,0-.69.188.532.532,0,0,0-.285.443.316.316,0,0,0,.007.075.977.977,0,0,0,.038.105l-1.71.375A1.694,1.694,0,0,1,158.16,8a1.38,1.38,0,0,1-.015-.233,1.61,1.61,0,0,1,.772-1.432,4.027,4.027,0,0,1,2.2-.5,2.654,2.654,0,0,1,1.837.532,2.2,2.2,0,0,1,.577,1.687v2.91a2.567,2.567,0,0,0,.023.382.593.593,0,0,0,.075.225.3.3,0,0,0,.165.12,1.286,1.286,0,0,0,.293.052ZM161.73,9.9l-1.785.585q-.075.21-.105.33a1.048,1.048,0,0,0-.03.255.653.653,0,0,0,.72.72,1.5,1.5,0,0,0,.735-.21,1.678,1.678,0,0,0,.18-.1q.09-.06.285-.21Zm8.205,3.1V8.515a2.326,2.326,0,0,0-.128-.922.464.464,0,0,0-.457-.262,1.263,1.263,0,0,0-.69.293,7.255,7.255,0,0,0-.99.923l-.24.255V13h-1.8V6.025h1.8V7.18a4.73,4.73,0,0,1,1.185-.99,2.545,2.545,0,0,1,1.23-.3q1.89,0,1.89,1.98V13Zm8.76-.21a5.266,5.266,0,0,1-2.04.4,4.049,4.049,0,0,1-1.47-.255,3.072,3.072,0,0,1-1.118-.727,3.318,3.318,0,0,1-.712-1.14A4.154,4.154,0,0,1,173.1,9.58a4.225,4.225,0,0,1,.27-1.538,3.509,3.509,0,0,1,.75-1.192,3.272,3.272,0,0,1,1.162-.765,4.107,4.107,0,0,1,1.523-.27,5.374,5.374,0,0,1,.577.03q.277.03.563.09a4.015,4.015,0,0,1,.637.2,6.68,6.68,0,0,1,.7.368l-.855,1.365a2.953,2.953,0,0,0-.7-.42,1.952,1.952,0,0,0-.713-.12,1.974,1.974,0,0,0-.817.165,1.89,1.89,0,0,0-.637.465,2.166,2.166,0,0,0-.42.7,2.775,2.775,0,0,0-.015,1.755,2.016,2.016,0,0,0,.375.667,1.629,1.629,0,0,0,.577.428,1.808,1.808,0,0,0,.743.15,2.688,2.688,0,0,0,.84-.127,4.893,4.893,0,0,0,.96-.472l.66,1.455Zm7.47-.465q-.255.135-.443.225l-.307.15a5.578,5.578,0,0,1-2.295.495,3.769,3.769,0,0,1-1.4-.247,3.006,3.006,0,0,1-1.065-.7,3.05,3.05,0,0,1-.675-1.1,4.223,4.223,0,0,1-.232-1.44,4.413,4.413,0,0,1,.262-1.537,3.7,3.7,0,0,1,.735-1.23,3.419,3.419,0,0,1,1.11-.81,3.287,3.287,0,0,1,1.387-.292,2.965,2.965,0,0,1,1.185.232,2.646,2.646,0,0,1,.923.653,3.039,3.039,0,0,1,.6,1.012,3.739,3.739,0,0,1,.217,1.3V9.79h-4.62a5.887,5.887,0,0,0,.075.668,1.437,1.437,0,0,0,.165.442,1.6,1.6,0,0,0,.645.615,1.907,1.907,0,0,0,.915.225,3.733,3.733,0,0,0,.412-.023,1.825,1.825,0,0,0,.413-.1,3.383,3.383,0,0,0,.585-.225q.27-.135.75-.435Zm-1.8-3.66a1.868,1.868,0,0,0-.322-1.148,1.158,1.158,0,0,0-.923-.338,1.33,1.33,0,0,0-.982.383,1.973,1.973,0,0,0-.5,1.1Zm7.65-.7q-.3-.2-.48-.3a3.535,3.535,0,0,0-.8-.352,2.784,2.784,0,0,0-.81-.128,1.646,1.646,0,0,0-.832.18.541.541,0,0,0-.308.48.511.511,0,0,0,.2.405,2.206,2.206,0,0,0,.675.33q.285.1.607.232t.615.262q.293.135.525.255a2.6,2.6,0,0,1,.352.21,1.659,1.659,0,0,1,.525.66,2.077,2.077,0,0,1,.195.885,1.859,1.859,0,0,1-.2.87,2,2,0,0,1-.562.668,2.613,2.613,0,0,1-.878.427,4.114,4.114,0,0,1-1.147.15,5.489,5.489,0,0,1-1.14-.135q-.24-.045-.435-.1a3.43,3.43,0,0,1-.383-.127q-.187-.075-.4-.172t-.5-.248l.57-1.455q.27.165.465.278t.36.195q.165.083.322.142t.353.12a2.463,2.463,0,0,0,.78.135,1.7,1.7,0,0,0,.81-.158.487.487,0,0,0,.285-.443q0-.465-.705-.735l-1.2-.465a3.447,3.447,0,0,1-1.365-.855,1.755,1.755,0,0,1-.435-1.2,1.938,1.938,0,0,1,.2-.892,2.052,2.052,0,0,1,.577-.69,2.715,2.715,0,0,1,.9-.45,4.007,4.007,0,0,1,1.155-.158,5.862,5.862,0,0,1,1.155.135q.24.045.428.1t.352.113a2.8,2.8,0,0,1,.338.15q.173.09.412.225Zm5.82,5.04V6.025h1.785V13Zm1.9-9.48a1.306,1.306,0,0,1-.293.863.894.894,0,0,1-.712.352.915.915,0,0,1-.72-.352,1.285,1.285,0,0,1-.3-.863,1.285,1.285,0,0,1,.3-.862.915.915,0,0,1,.72-.352.894.894,0,0,1,.712.352A1.306,1.306,0,0,1,199.74,3.52ZM205.95,13V8.515a2.326,2.326,0,0,0-.128-.922.464.464,0,0,0-.457-.262,1.263,1.263,0,0,0-.69.293,7.255,7.255,0,0,0-.99.923l-.24.255V13h-1.8V6.025h1.8V7.18a4.73,4.73,0,0,1,1.185-.99,2.545,2.545,0,0,1,1.23-.3q1.89,0,1.89,1.98V13Zm16.485,0V5.74q-.03.2-.045.322a1.742,1.742,0,0,1-.052.263q-.038.135-.1.322t-.18.5L219.795,13H218.1l-2.07-5.745q-.075-.21-.127-.368a2.345,2.345,0,0,1-.083-.322q-.03-.165-.068-.368t-.1-.517V13h-1.71V3.1h2.265l2.64,7.065q.075.21.12.345a2.155,2.155,0,0,1,.075.42q.045-.345.075-.465a2.2,2.2,0,0,1,.1-.3L221.97,3.1h2.265V13Zm10.005-.675q-.255.135-.443.225l-.307.15a5.578,5.578,0,0,1-2.295.495,3.769,3.769,0,0,1-1.4-.247,3.006,3.006,0,0,1-1.065-.7,3.05,3.05,0,0,1-.675-1.1,4.223,4.223,0,0,1-.232-1.44,4.413,4.413,0,0,1,.262-1.537,3.7,3.7,0,0,1,.735-1.23,3.419,3.419,0,0,1,1.11-.81,3.287,3.287,0,0,1,1.387-.292,2.965,2.965,0,0,1,1.185.232,2.646,2.646,0,0,1,.923.653,3.039,3.039,0,0,1,.6,1.012,3.739,3.739,0,0,1,.217,1.3V9.79h-4.62a5.887,5.887,0,0,0,.075.668,1.437,1.437,0,0,0,.165.442,1.6,1.6,0,0,0,.645.615,1.907,1.907,0,0,0,.915.225,3.733,3.733,0,0,0,.412-.023,1.825,1.825,0,0,0,.413-.1,3.383,3.383,0,0,0,.585-.225q.27-.135.75-.435Zm-1.8-3.66a1.868,1.868,0,0,0-.322-1.148,1.158,1.158,0,0,0-.923-.338,1.33,1.33,0,0,0-.982.383,1.973,1.973,0,0,0-.5,1.1ZM242.37,13V8.515a2.326,2.326,0,0,0-.128-.922.452.452,0,0,0-.443-.262,1.72,1.72,0,0,0-.975.51q-.2.165-.4.375t-.555.6V13h-1.8V8.515a2.326,2.326,0,0,0-.128-.922.464.464,0,0,0-.457-.262,1.263,1.263,0,0,0-.69.293,7.255,7.255,0,0,0-.99.923l-.24.255V13h-1.8V6.025h1.8V7.18a4.73,4.73,0,0,1,1.185-.99,2.545,2.545,0,0,1,1.23-.3,1.616,1.616,0,0,1,1.83,1.365A3.238,3.238,0,0,1,242.28,5.89q1.89,0,1.89,1.98V13Zm10.185-3.495a3.922,3.922,0,0,1-.27,1.47,3.623,3.623,0,0,1-.743,1.17,3.386,3.386,0,0,1-1.11.772,3.607,3.607,0,0,1-2.775,0,3.386,3.386,0,0,1-1.11-.772,3.623,3.623,0,0,1-.742-1.17,3.922,3.922,0,0,1-.27-1.47,3.881,3.881,0,0,1,.27-1.455,3.623,3.623,0,0,1,.742-1.17,3.386,3.386,0,0,1,1.11-.773,3.607,3.607,0,0,1,2.775,0,3.386,3.386,0,0,1,1.11.773,3.623,3.623,0,0,1,.743,1.17A3.881,3.881,0,0,1,252.555,9.505Zm-1.86,0a2.734,2.734,0,0,0-.135-.87,2.576,2.576,0,0,0-.36-.713,1.794,1.794,0,0,0-.525-.488,1.206,1.206,0,0,0-.63-.18,1.232,1.232,0,0,0-.645.18,1.794,1.794,0,0,0-.525.488,2.434,2.434,0,0,0-.352.713,2.882,2.882,0,0,0-.128.87,2.955,2.955,0,0,0,.128.877,2.417,2.417,0,0,0,.352.72,1.794,1.794,0,0,0,.525.488,1.232,1.232,0,0,0,.645.18,1.206,1.206,0,0,0,.63-.18,1.794,1.794,0,0,0,.525-.488,2.555,2.555,0,0,0,.36-.72A2.8,2.8,0,0,0,250.7,9.505Zm6.81-1.35a.879.879,0,0,0-.54-.21,1.186,1.186,0,0,0-.87.525,2.046,2.046,0,0,0-.48,1.335V13H253.83V6.025h1.545l.075,1.53a6.6,6.6,0,0,1,.877-1.26,1.081,1.081,0,0,1,.773-.375,1.28,1.28,0,0,1,.975.495Zm4.545,4.47q-.135.375-.255.675t-.247.57q-.127.27-.278.547t-.345.593q-.165.27-.292.472t-.263.4q-.135.2-.292.4t-.383.487l-1.47-.96q.24-.27.42-.465t.323-.375q.143-.18.27-.36t.278-.4q.165-.27.3-.495a5.406,5.406,0,0,0,.255-.48q.12-.255.24-.562t.27-.728l-2.565-5.91h1.95L261.2,9.13l.18.84.2-.84,1.05-3.105h1.77ZM8.01,24.365a3.8,3.8,0,0,0-2.28-.69,3.523,3.523,0,0,0-1.32.24,3.1,3.1,0,0,0-1.035.667A2.98,2.98,0,0,0,2.7,25.6a3.424,3.424,0,0,0-.24,1.3,3.946,3.946,0,0,0,.255,1.448,3.211,3.211,0,0,0,.72,1.118,3.113,3.113,0,0,0,1.125.712,4.159,4.159,0,0,0,1.47.247,4.9,4.9,0,0,0,1.02-.1A7.734,7.734,0,0,0,8.2,29.96l.345,1.59-.412.18q-.173.075-.323.128t-.293.09l-.307.082a7.386,7.386,0,0,1-1.59.165A6.127,6.127,0,0,1,3.6,31.9a4.622,4.622,0,0,1-1.56-.93A4.887,4.887,0,0,1,.81,29.21a5.632,5.632,0,0,1-.435-2.2,5.311,5.311,0,0,1,.39-2.033A4.935,4.935,0,0,1,1.89,23.3a4.582,4.582,0,0,1,1.628-1.057,6.125,6.125,0,0,1,2.107-.323,5.793,5.793,0,0,1,1.7.233,4.589,4.589,0,0,1,1.4.712Zm8.07,4.14a3.922,3.922,0,0,1-.27,1.47,3.623,3.623,0,0,1-.743,1.17,3.386,3.386,0,0,1-1.11.772,3.607,3.607,0,0,1-2.775,0,3.386,3.386,0,0,1-1.11-.772,3.623,3.623,0,0,1-.743-1.17,3.922,3.922,0,0,1-.27-1.47,3.881,3.881,0,0,1,.27-1.455,3.623,3.623,0,0,1,.743-1.17,3.386,3.386,0,0,1,1.11-.773,3.607,3.607,0,0,1,2.775,0,3.386,3.386,0,0,1,1.11.773,3.623,3.623,0,0,1,.743,1.17A3.881,3.881,0,0,1,16.08,28.505Zm-1.86,0a2.734,2.734,0,0,0-.135-.87,2.577,2.577,0,0,0-.36-.712,1.794,1.794,0,0,0-.525-.488,1.206,1.206,0,0,0-.63-.18,1.232,1.232,0,0,0-.645.18,1.794,1.794,0,0,0-.525.488,2.433,2.433,0,0,0-.352.712,2.882,2.882,0,0,0-.127.87,2.956,2.956,0,0,0,.127.877,2.417,2.417,0,0,0,.352.72,1.794,1.794,0,0,0,.525.487,1.232,1.232,0,0,0,.645.18,1.206,1.206,0,0,0,.63-.18,1.794,1.794,0,0,0,.525-.487,2.555,2.555,0,0,0,.36-.72A2.8,2.8,0,0,0,14.22,28.505ZM21.81,32V27.515a2.326,2.326,0,0,0-.128-.923.464.464,0,0,0-.458-.262,1.263,1.263,0,0,0-.69.292,7.256,7.256,0,0,0-.99.923l-.24.255V32h-1.8V25.025h1.8V26.18a4.731,4.731,0,0,1,1.185-.99,2.545,2.545,0,0,1,1.23-.3q1.89,0,1.89,1.98V32Zm8.4-5.04q-.3-.195-.48-.3a3.535,3.535,0,0,0-.8-.353,2.785,2.785,0,0,0-.81-.127,1.646,1.646,0,0,0-.833.18.541.541,0,0,0-.307.48.511.511,0,0,0,.195.4,2.206,2.206,0,0,0,.675.33q.285.1.608.232t.615.263q.292.135.525.255a2.6,2.6,0,0,1,.352.21,1.659,1.659,0,0,1,.525.66,2.077,2.077,0,0,1,.195.885,1.859,1.859,0,0,1-.2.87,2,2,0,0,1-.562.667,2.613,2.613,0,0,1-.878.427,4.114,4.114,0,0,1-1.147.15,5.489,5.489,0,0,1-1.14-.135q-.24-.045-.435-.1a3.43,3.43,0,0,1-.382-.128q-.187-.075-.405-.172t-.5-.247l.57-1.455q.27.165.465.278t.36.2q.165.082.323.142t.353.12a2.463,2.463,0,0,0,.78.135,1.7,1.7,0,0,0,.81-.157.487.487,0,0,0,.285-.443q0-.465-.7-.735l-1.2-.465a3.447,3.447,0,0,1-1.365-.855,1.755,1.755,0,0,1-.435-1.2,1.938,1.938,0,0,1,.2-.892,2.052,2.052,0,0,1,.577-.69,2.715,2.715,0,0,1,.9-.45,4.007,4.007,0,0,1,1.155-.158,5.862,5.862,0,0,1,1.155.135q.24.045.427.1t.352.113a2.8,2.8,0,0,1,.338.15q.172.09.412.225Zm8.49,1.545a3.922,3.922,0,0,1-.27,1.47,3.623,3.623,0,0,1-.743,1.17,3.386,3.386,0,0,1-1.11.772,3.608,3.608,0,0,1-2.775,0,3.386,3.386,0,0,1-1.11-.772,3.623,3.623,0,0,1-.743-1.17,3.922,3.922,0,0,1-.27-1.47,3.881,3.881,0,0,1,.27-1.455,3.623,3.623,0,0,1,.743-1.17,3.386,3.386,0,0,1,1.11-.773,3.608,3.608,0,0,1,2.775,0,3.386,3.386,0,0,1,1.11.773,3.623,3.623,0,0,1,.743,1.17A3.881,3.881,0,0,1,38.7,28.505Zm-1.86,0a2.734,2.734,0,0,0-.135-.87,2.577,2.577,0,0,0-.36-.712,1.794,1.794,0,0,0-.525-.488,1.206,1.206,0,0,0-.63-.18,1.232,1.232,0,0,0-.645.18,1.794,1.794,0,0,0-.525.488,2.433,2.433,0,0,0-.353.712,2.882,2.882,0,0,0-.127.87,2.956,2.956,0,0,0,.127.877,2.417,2.417,0,0,0,.353.72,1.794,1.794,0,0,0,.525.487,1.232,1.232,0,0,0,.645.18,1.206,1.206,0,0,0,.63-.18,1.794,1.794,0,0,0,.525-.487,2.555,2.555,0,0,0,.36-.72A2.8,2.8,0,0,0,36.84,28.505ZM39.96,32V21.065h1.785V32ZM43.6,32V25.025H45.39V32Zm1.905-9.48a1.306,1.306,0,0,1-.293.862.894.894,0,0,1-.712.353.915.915,0,0,1-.72-.353,1.39,1.39,0,0,1,0-1.725.915.915,0,0,1,.72-.353.894.894,0,0,1,.712.353A1.306,1.306,0,0,1,45.51,22.52ZM51.585,32v-.945a3.791,3.791,0,0,1-.33.45,1.754,1.754,0,0,1-.375.3,2.4,2.4,0,0,1-1.305.39,2.513,2.513,0,0,1-1.14-.262,2.768,2.768,0,0,1-.907-.728,3.49,3.49,0,0,1-.6-1.1,4.271,4.271,0,0,1-.217-1.388,4.369,4.369,0,0,1,.263-1.522,4.012,4.012,0,0,1,.712-1.238,3.409,3.409,0,0,1,1.058-.833,2.833,2.833,0,0,1,1.3-.307,2.931,2.931,0,0,1,.615.075,3.271,3.271,0,0,1,.458.15,3.534,3.534,0,0,1,.472.27V21.065H53.37V32Zm0-4.17a4.386,4.386,0,0,0-.03-.54,3.29,3.29,0,0,0-.06-.36.818.818,0,0,0-.42-.465,1.541,1.541,0,0,0-.75-.18,1.413,1.413,0,0,0-.69.173,1.719,1.719,0,0,0-.548.48,2.3,2.3,0,0,0-.36.728,3.138,3.138,0,0,0-.127.915,2.747,2.747,0,0,0,.4,1.545,1.2,1.2,0,0,0,1.042.6,1.438,1.438,0,0,0,.818-.27,2.687,2.687,0,0,0,.728-.78Zm9.1,4.26h-.375a4.448,4.448,0,0,1-.57-.03,1.194,1.194,0,0,1-.4-.12.908.908,0,0,1-.292-.24,2.444,2.444,0,0,1-.24-.375,3.592,3.592,0,0,1-.96.653,2.453,2.453,0,0,1-.99.2,2.057,2.057,0,0,1-1.462-.525,1.782,1.782,0,0,1-.562-1.365,2.222,2.222,0,0,1,.12-.705,1.7,1.7,0,0,1,.548-.765,3.5,3.5,0,0,1,1.132-.51l1.98-.57v-.585q0-1.095-.855-1.095a1.228,1.228,0,0,0-.69.188.532.532,0,0,0-.285.443.315.315,0,0,0,.008.075.976.976,0,0,0,.037.1l-1.71.375A1.694,1.694,0,0,1,55.05,27a1.379,1.379,0,0,1-.015-.233,1.61,1.61,0,0,1,.772-1.432,4.027,4.027,0,0,1,2.2-.5,2.654,2.654,0,0,1,1.838.532,2.2,2.2,0,0,1,.577,1.688v2.91a2.567,2.567,0,0,0,.022.383.593.593,0,0,0,.075.225.3.3,0,0,0,.165.12,1.286,1.286,0,0,0,.292.052ZM58.62,28.9l-1.785.585q-.075.21-.1.33a1.048,1.048,0,0,0-.03.255.653.653,0,0,0,.72.72,1.5,1.5,0,0,0,.735-.21,1.677,1.677,0,0,0,.18-.105q.09-.06.285-.21Zm7.5,2.43q-.18.12-.345.217l-.315.188a3.135,3.135,0,0,1-1.56.465q-1.365,0-1.365-1.515V26.345H61.5V25.2l1.035-.18V22.94H64.23v2.085h1.515v1.32H64.23V29.45a2.764,2.764,0,0,0,.075.8.283.283,0,0,0,.285.21.969.969,0,0,0,.375-.09,3.854,3.854,0,0,0,.585-.345Zm.93.675V25.025h1.785V32Zm1.9-9.48a1.306,1.306,0,0,1-.292.862.894.894,0,0,1-.713.353.915.915,0,0,1-.72-.353,1.39,1.39,0,0,1,0-1.725.915.915,0,0,1,.72-.353.894.894,0,0,1,.713.353A1.306,1.306,0,0,1,68.955,22.52Zm8.22,5.985a3.922,3.922,0,0,1-.27,1.47,3.623,3.623,0,0,1-.743,1.17,3.386,3.386,0,0,1-1.11.772,3.608,3.608,0,0,1-2.775,0,3.386,3.386,0,0,1-1.11-.772,3.623,3.623,0,0,1-.743-1.17,3.922,3.922,0,0,1-.27-1.47,3.881,3.881,0,0,1,.27-1.455,3.623,3.623,0,0,1,.743-1.17,3.386,3.386,0,0,1,1.11-.773,3.608,3.608,0,0,1,2.775,0,3.386,3.386,0,0,1,1.11.773,3.623,3.623,0,0,1,.743,1.17A3.881,3.881,0,0,1,77.175,28.505Zm-1.86,0a2.734,2.734,0,0,0-.135-.87,2.577,2.577,0,0,0-.36-.712,1.794,1.794,0,0,0-.525-.488,1.206,1.206,0,0,0-.63-.18,1.232,1.232,0,0,0-.645.18,1.794,1.794,0,0,0-.525.488,2.433,2.433,0,0,0-.352.712,2.882,2.882,0,0,0-.128.87,2.956,2.956,0,0,0,.128.877,2.417,2.417,0,0,0,.352.72,1.794,1.794,0,0,0,.525.487,1.232,1.232,0,0,0,.645.18,1.206,1.206,0,0,0,.63-.18,1.794,1.794,0,0,0,.525-.487,2.555,2.555,0,0,0,.36-.72A2.8,2.8,0,0,0,75.315,28.505ZM82.905,32V27.515a2.326,2.326,0,0,0-.128-.923.464.464,0,0,0-.457-.262,1.263,1.263,0,0,0-.69.292,7.256,7.256,0,0,0-.99.923l-.24.255V32H78.6V25.025h1.8V26.18a4.731,4.731,0,0,1,1.185-.99,2.545,2.545,0,0,1,1.23-.3q1.89,0,1.89,1.98V32Zm5.88-1a1.168,1.168,0,0,1-.345.847,1.131,1.131,0,0,1-.84.352,1.2,1.2,0,0,1-.847-2.055A1.168,1.168,0,0,1,87.6,29.8a1.143,1.143,0,0,1,.84.345A1.161,1.161,0,0,1,88.785,31Zm0-4.965a1.168,1.168,0,0,1-.345.847,1.131,1.131,0,0,1-.84.353,1.2,1.2,0,0,1,0-2.4,1.131,1.131,0,0,1,.84.353A1.168,1.168,0,0,1,88.785,26.03Zm7.68-2.325v2.55h3.48v1.59h-3.48V32h-1.89V22.1h6.135V23.7Zm8.325,3.45a.879.879,0,0,0-.54-.21,1.186,1.186,0,0,0-.87.525,2.046,2.046,0,0,0-.48,1.335V32h-1.785V25.025h1.545l.075,1.53a6.6,6.6,0,0,1,.877-1.26,1.081,1.081,0,0,1,.772-.375,1.28,1.28,0,0,1,.975.5Zm7.845,1.35a3.922,3.922,0,0,1-.27,1.47,3.623,3.623,0,0,1-.743,1.17,3.386,3.386,0,0,1-1.11.772,3.608,3.608,0,0,1-2.775,0,3.386,3.386,0,0,1-1.11-.772,3.623,3.623,0,0,1-.743-1.17,3.922,3.922,0,0,1-.27-1.47,3.881,3.881,0,0,1,.27-1.455,3.623,3.623,0,0,1,.743-1.17,3.386,3.386,0,0,1,1.11-.773,3.608,3.608,0,0,1,2.775,0,3.386,3.386,0,0,1,1.11.773,3.623,3.623,0,0,1,.743,1.17A3.881,3.881,0,0,1,112.635,28.505Zm-1.86,0a2.734,2.734,0,0,0-.135-.87,2.577,2.577,0,0,0-.36-.712,1.794,1.794,0,0,0-.525-.488,1.206,1.206,0,0,0-.63-.18,1.232,1.232,0,0,0-.645.18,1.794,1.794,0,0,0-.525.488,2.433,2.433,0,0,0-.353.712,2.882,2.882,0,0,0-.127.87,2.956,2.956,0,0,0,.127.877,2.417,2.417,0,0,0,.353.72,1.794,1.794,0,0,0,.525.487,1.232,1.232,0,0,0,.645.18,1.206,1.206,0,0,0,.63-.18,1.794,1.794,0,0,0,.525-.487,2.555,2.555,0,0,0,.36-.72A2.8,2.8,0,0,0,110.775,28.505ZM122.67,32V27.515a2.326,2.326,0,0,0-.127-.923.452.452,0,0,0-.442-.262,1.72,1.72,0,0,0-.975.51q-.195.165-.4.375t-.555.6V32h-1.8V27.515a2.326,2.326,0,0,0-.128-.923.464.464,0,0,0-.458-.262,1.263,1.263,0,0,0-.69.292,7.256,7.256,0,0,0-.99.923l-.24.255V32h-1.8V25.025h1.8V26.18a4.731,4.731,0,0,1,1.185-.99,2.545,2.545,0,0,1,1.23-.3,1.616,1.616,0,0,1,1.83,1.365,3.238,3.238,0,0,1,2.475-1.365q1.89,0,1.89,1.98V32Zm12.15-5.04q-.3-.195-.48-.3a3.535,3.535,0,0,0-.795-.353,2.785,2.785,0,0,0-.81-.127,1.646,1.646,0,0,0-.832.18.541.541,0,0,0-.308.48.511.511,0,0,0,.2.4,2.206,2.206,0,0,0,.675.33q.285.1.607.232t.615.263q.293.135.525.255a2.6,2.6,0,0,1,.352.21,1.659,1.659,0,0,1,.525.66,2.077,2.077,0,0,1,.195.885,1.859,1.859,0,0,1-.2.87,2,2,0,0,1-.562.667,2.613,2.613,0,0,1-.878.427,4.114,4.114,0,0,1-1.147.15,5.489,5.489,0,0,1-1.14-.135q-.24-.045-.435-.1a3.43,3.43,0,0,1-.383-.128q-.187-.075-.4-.172t-.5-.247l.57-1.455q.27.165.465.278t.36.2q.165.082.322.142t.353.12a2.463,2.463,0,0,0,.78.135,1.7,1.7,0,0,0,.81-.157.487.487,0,0,0,.285-.443q0-.465-.705-.735l-1.2-.465a3.447,3.447,0,0,1-1.365-.855,1.755,1.755,0,0,1-.435-1.2,1.938,1.938,0,0,1,.2-.892,2.052,2.052,0,0,1,.577-.69,2.715,2.715,0,0,1,.9-.45,4.007,4.007,0,0,1,1.155-.158,5.862,5.862,0,0,1,1.155.135q.24.045.428.1t.352.113a2.8,2.8,0,0,1,.338.15q.173.09.412.225Zm5.19,4.665q-.135.375-.255.675t-.247.57q-.128.27-.277.548t-.345.592q-.165.27-.292.472t-.263.4q-.135.2-.292.4t-.382.487l-1.47-.96q.24-.27.42-.465t.322-.375q.143-.18.27-.36t.277-.4q.165-.27.3-.495a5.41,5.41,0,0,0,.255-.48q.12-.255.24-.562t.27-.728l-2.565-5.91h1.95l1.23,3.105.18.84.2-.84,1.05-3.105h1.77Zm7.785.375V27.515a2.326,2.326,0,0,0-.128-.923.464.464,0,0,0-.457-.262,1.263,1.263,0,0,0-.69.292,7.255,7.255,0,0,0-.99.923l-.24.255V32h-1.8V25.025h1.8V26.18a4.73,4.73,0,0,1,1.185-.99,2.545,2.545,0,0,1,1.23-.3q1.89,0,1.89,1.98V32Zm9.18.09H156.6a4.449,4.449,0,0,1-.57-.03,1.194,1.194,0,0,1-.4-.12.908.908,0,0,1-.292-.24,2.444,2.444,0,0,1-.24-.375,3.592,3.592,0,0,1-.96.653,2.453,2.453,0,0,1-.99.2,2.057,2.057,0,0,1-1.463-.525,1.782,1.782,0,0,1-.562-1.365,2.222,2.222,0,0,1,.12-.705,1.7,1.7,0,0,1,.548-.765,3.5,3.5,0,0,1,1.132-.51l1.98-.57v-.585q0-1.095-.855-1.095a1.228,1.228,0,0,0-.69.188.532.532,0,0,0-.285.443.316.316,0,0,0,.007.075.977.977,0,0,0,.038.1l-1.71.375a1.694,1.694,0,0,1-.075-.247,1.38,1.38,0,0,1-.015-.233,1.61,1.61,0,0,1,.772-1.432,4.027,4.027,0,0,1,2.2-.5,2.654,2.654,0,0,1,1.837.532,2.2,2.2,0,0,1,.577,1.688v2.91a2.567,2.567,0,0,0,.023.383.593.593,0,0,0,.075.225.3.3,0,0,0,.165.12,1.286,1.286,0,0,0,.293.052ZM154.9,28.9l-1.785.585q-.075.21-.105.33a1.048,1.048,0,0,0-.03.255.653.653,0,0,0,.72.72,1.5,1.5,0,0,0,.735-.21,1.678,1.678,0,0,0,.18-.105q.09-.06.285-.21Zm10.41-.585a4.413,4.413,0,0,1-.262,1.538,3.93,3.93,0,0,1-.72,1.237,3.371,3.371,0,0,1-1.072.825,3,3,0,0,1-1.335.3,3.371,3.371,0,0,1-.555-.045,2.068,2.068,0,0,1-.488-.143,2.021,2.021,0,0,1-.428-.307v3.78h-1.8V25.025h1.8v.945a4.754,4.754,0,0,1,.42-.51,2.268,2.268,0,0,1,.345-.285,2.136,2.136,0,0,1,1.2-.345,2.593,2.593,0,0,1,1.162.262,2.744,2.744,0,0,1,.915.728,3.49,3.49,0,0,1,.6,1.1A4.271,4.271,0,0,1,165.315,28.31Zm-1.875.12a2.708,2.708,0,0,0-.4-1.545,1.209,1.209,0,0,0-1.035-.6,1.834,1.834,0,0,0-1.545,1.1V29.7a1.347,1.347,0,0,0,.083.548.674.674,0,0,0,.307.292,2.054,2.054,0,0,0,.42.15,1.915,1.915,0,0,0,.465.06,1.338,1.338,0,0,0,.675-.18,1.693,1.693,0,0,0,.54-.5,2.65,2.65,0,0,0,.36-.735A2.976,2.976,0,0,0,163.44,28.43Zm7.965-1.47q-.3-.195-.48-.3a3.535,3.535,0,0,0-.795-.353,2.785,2.785,0,0,0-.81-.127,1.646,1.646,0,0,0-.832.18.541.541,0,0,0-.308.48.511.511,0,0,0,.2.4,2.206,2.206,0,0,0,.675.33q.285.1.607.232t.615.263q.293.135.525.255a2.6,2.6,0,0,1,.352.21,1.659,1.659,0,0,1,.525.66,2.077,2.077,0,0,1,.195.885,1.859,1.859,0,0,1-.2.87,2,2,0,0,1-.562.667,2.613,2.613,0,0,1-.878.427,4.114,4.114,0,0,1-1.147.15,5.489,5.489,0,0,1-1.14-.135q-.24-.045-.435-.1a3.43,3.43,0,0,1-.383-.128q-.187-.075-.4-.172t-.5-.247l.57-1.455q.27.165.465.278t.36.2q.165.082.322.142t.353.12a2.463,2.463,0,0,0,.78.135,1.7,1.7,0,0,0,.81-.157.487.487,0,0,0,.285-.443q0-.465-.705-.735l-1.2-.465a3.447,3.447,0,0,1-1.365-.855,1.755,1.755,0,0,1-.435-1.2,1.938,1.938,0,0,1,.2-.892,2.052,2.052,0,0,1,.577-.69,2.715,2.715,0,0,1,.9-.45,4.007,4.007,0,0,1,1.155-.158,5.862,5.862,0,0,1,1.155.135q.24.045.428.1t.352.113a2.8,2.8,0,0,1,.338.15q.173.09.412.225Zm7.875,4.365q-.255.135-.443.225l-.307.15a5.578,5.578,0,0,1-2.295.495,3.769,3.769,0,0,1-1.4-.247,3.005,3.005,0,0,1-1.065-.7,3.05,3.05,0,0,1-.675-1.1,4.223,4.223,0,0,1-.232-1.44,4.413,4.413,0,0,1,.262-1.538,3.7,3.7,0,0,1,.735-1.23,3.419,3.419,0,0,1,1.11-.81,3.287,3.287,0,0,1,1.387-.292,2.965,2.965,0,0,1,1.185.233,2.646,2.646,0,0,1,.923.653,3.039,3.039,0,0,1,.6,1.013,3.739,3.739,0,0,1,.217,1.3v.765h-4.62a5.887,5.887,0,0,0,.075.667,1.437,1.437,0,0,0,.165.442,1.6,1.6,0,0,0,.645.615,1.907,1.907,0,0,0,.915.225,3.733,3.733,0,0,0,.412-.022,1.825,1.825,0,0,0,.413-.1,3.383,3.383,0,0,0,.585-.225q.27-.135.75-.435Zm-1.8-3.66a1.868,1.868,0,0,0-.322-1.148,1.158,1.158,0,0,0-.923-.337,1.33,1.33,0,0,0-.982.382,1.973,1.973,0,0,0-.5,1.1Zm7.65-.705q-.3-.195-.48-.3a3.535,3.535,0,0,0-.795-.353,2.785,2.785,0,0,0-.81-.127,1.646,1.646,0,0,0-.832.18.541.541,0,0,0-.308.48.511.511,0,0,0,.2.4,2.206,2.206,0,0,0,.675.33q.285.1.607.232t.615.263q.293.135.525.255a2.6,2.6,0,0,1,.352.21,1.659,1.659,0,0,1,.525.66,2.077,2.077,0,0,1,.195.885,1.859,1.859,0,0,1-.2.87,2,2,0,0,1-.562.667,2.613,2.613,0,0,1-.878.427,4.114,4.114,0,0,1-1.147.15,5.489,5.489,0,0,1-1.14-.135q-.24-.045-.435-.1a3.43,3.43,0,0,1-.383-.128q-.187-.075-.4-.172t-.5-.247l.57-1.455q.27.165.465.278t.36.2q.165.082.322.142t.353.12a2.463,2.463,0,0,0,.78.135,1.7,1.7,0,0,0,.81-.157.487.487,0,0,0,.285-.443q0-.465-.705-.735l-1.2-.465a3.447,3.447,0,0,1-1.365-.855,1.755,1.755,0,0,1-.435-1.2,1.938,1.938,0,0,1,.2-.892,2.052,2.052,0,0,1,.577-.69,2.715,2.715,0,0,1,.9-.45,4.007,4.007,0,0,1,1.155-.158,5.862,5.862,0,0,1,1.155.135q.24.045.428.1t.352.113a2.8,2.8,0,0,1,.338.15q.173.09.412.225Zm9.525,4.365q-.18.12-.345.217L194,31.73a3.135,3.135,0,0,1-1.56.465q-1.365,0-1.365-1.515V26.345h-1.035V25.2l1.035-.18V22.94h1.695v2.085h1.515v1.32h-1.515V29.45a2.764,2.764,0,0,0,.075.8.283.283,0,0,0,.285.21.969.969,0,0,0,.375-.09,3.854,3.854,0,0,0,.585-.345Zm7.35-2.82a3.922,3.922,0,0,1-.27,1.47,3.623,3.623,0,0,1-.743,1.17,3.386,3.386,0,0,1-1.11.772,3.608,3.608,0,0,1-2.775,0,3.386,3.386,0,0,1-1.11-.772,3.623,3.623,0,0,1-.742-1.17,3.922,3.922,0,0,1-.27-1.47,3.881,3.881,0,0,1,.27-1.455A3.623,3.623,0,0,1,196,25.88a3.386,3.386,0,0,1,1.11-.773,3.608,3.608,0,0,1,2.775,0,3.386,3.386,0,0,1,1.11.773,3.623,3.623,0,0,1,.743,1.17A3.881,3.881,0,0,1,202.005,28.505Zm-1.86,0a2.734,2.734,0,0,0-.135-.87,2.576,2.576,0,0,0-.36-.712,1.794,1.794,0,0,0-.525-.488,1.206,1.206,0,0,0-.63-.18,1.232,1.232,0,0,0-.645.18,1.794,1.794,0,0,0-.525.488,2.434,2.434,0,0,0-.352.712,2.882,2.882,0,0,0-.128.87,2.955,2.955,0,0,0,.128.877,2.417,2.417,0,0,0,.352.72,1.794,1.794,0,0,0,.525.487,1.232,1.232,0,0,0,.645.18,1.206,1.206,0,0,0,.63-.18,1.794,1.794,0,0,0,.525-.487,2.555,2.555,0,0,0,.36-.72A2.8,2.8,0,0,0,200.145,28.505ZM211.71,26.96q-.3-.195-.48-.3a3.535,3.535,0,0,0-.8-.353,2.785,2.785,0,0,0-.81-.127,1.646,1.646,0,0,0-.832.18.541.541,0,0,0-.308.48.511.511,0,0,0,.2.4,2.206,2.206,0,0,0,.675.33q.285.1.607.232t.615.263q.293.135.525.255a2.6,2.6,0,0,1,.352.21,1.659,1.659,0,0,1,.525.66,2.077,2.077,0,0,1,.195.885,1.859,1.859,0,0,1-.2.87,2,2,0,0,1-.562.667,2.613,2.613,0,0,1-.878.427,4.114,4.114,0,0,1-1.147.15,5.489,5.489,0,0,1-1.14-.135q-.24-.045-.435-.1a3.43,3.43,0,0,1-.383-.128q-.187-.075-.4-.172t-.5-.247l.57-1.455q.27.165.465.278t.36.2q.165.082.322.142t.353.12a2.463,2.463,0,0,0,.78.135,1.7,1.7,0,0,0,.81-.157.487.487,0,0,0,.285-.443q0-.465-.705-.735l-1.2-.465a3.447,3.447,0,0,1-1.365-.855,1.755,1.755,0,0,1-.435-1.2,1.938,1.938,0,0,1,.2-.892,2.052,2.052,0,0,1,.577-.69,2.715,2.715,0,0,1,.9-.45,4.007,4.007,0,0,1,1.155-.158,5.862,5.862,0,0,1,1.155.135q.24.045.428.1t.352.113a2.8,2.8,0,0,1,.338.15q.173.09.412.225Zm5.19,4.665q-.135.375-.255.675t-.247.57q-.128.27-.277.548t-.345.592q-.165.27-.292.472t-.263.4q-.135.2-.292.4t-.382.487l-1.47-.96q.24-.27.42-.465t.322-.375q.143-.18.27-.36t.277-.4q.165-.27.3-.495a5.41,5.41,0,0,0,.255-.48q.12-.255.24-.562t.27-.728l-2.565-5.91h1.95l1.23,3.105.18.84.2-.84,1.05-3.105h1.77Zm8.01-4.665q-.3-.195-.48-.3a3.535,3.535,0,0,0-.795-.353,2.785,2.785,0,0,0-.81-.127,1.646,1.646,0,0,0-.832.18.541.541,0,0,0-.308.48.511.511,0,0,0,.2.4,2.206,2.206,0,0,0,.675.33q.285.1.607.232t.615.263q.293.135.525.255a2.6,2.6,0,0,1,.352.21,1.659,1.659,0,0,1,.525.66,2.077,2.077,0,0,1,.195.885,1.859,1.859,0,0,1-.2.87,2,2,0,0,1-.562.667,2.613,2.613,0,0,1-.878.427,4.114,4.114,0,0,1-1.147.15,5.489,5.489,0,0,1-1.14-.135q-.24-.045-.435-.1a3.43,3.43,0,0,1-.383-.128q-.187-.075-.4-.172t-.5-.247l.57-1.455q.27.165.465.278t.36.2q.165.082.322.142t.353.12a2.463,2.463,0,0,0,.78.135,1.7,1.7,0,0,0,.81-.157.487.487,0,0,0,.285-.443q0-.465-.705-.735l-1.2-.465a3.447,3.447,0,0,1-1.365-.855,1.755,1.755,0,0,1-.435-1.2,1.938,1.938,0,0,1,.2-.892,2.052,2.052,0,0,1,.577-.69,2.715,2.715,0,0,1,.9-.45,4.007,4.007,0,0,1,1.155-.158,5.862,5.862,0,0,1,1.155.135q.24.045.428.1t.352.113a2.8,2.8,0,0,1,.338.15q.173.09.412.225Zm5.775,4.365q-.18.12-.345.217l-.315.188a3.135,3.135,0,0,1-1.56.465q-1.365,0-1.365-1.515V26.345h-1.035V25.2l1.035-.18V22.94h1.695v2.085h1.515v1.32h-1.515V29.45a2.764,2.764,0,0,0,.075.8.283.283,0,0,0,.285.21.969.969,0,0,0,.375-.09,3.854,3.854,0,0,0,.585-.345Zm6.735,0q-.255.135-.443.225l-.307.15a5.578,5.578,0,0,1-2.295.495,3.769,3.769,0,0,1-1.4-.247,3.005,3.005,0,0,1-1.065-.7,3.05,3.05,0,0,1-.675-1.1A4.223,4.223,0,0,1,231,28.7a4.413,4.413,0,0,1,.262-1.538,3.7,3.7,0,0,1,.735-1.23,3.419,3.419,0,0,1,1.11-.81,3.287,3.287,0,0,1,1.387-.292,2.965,2.965,0,0,1,1.185.233,2.646,2.646,0,0,1,.923.653,3.039,3.039,0,0,1,.6,1.013,3.739,3.739,0,0,1,.217,1.3v.765H232.8a5.887,5.887,0,0,0,.075.667,1.437,1.437,0,0,0,.165.442,1.6,1.6,0,0,0,.645.615,1.907,1.907,0,0,0,.915.225,3.733,3.733,0,0,0,.412-.022,1.825,1.825,0,0,0,.413-.1,3.383,3.383,0,0,0,.585-.225q.27-.135.75-.435Zm-1.8-3.66a1.868,1.868,0,0,0-.322-1.148,1.158,1.158,0,0,0-.923-.337,1.33,1.33,0,0,0-.982.382,1.973,1.973,0,0,0-.5,1.1ZM247.35,32V27.515a2.326,2.326,0,0,0-.128-.923.452.452,0,0,0-.443-.262,1.72,1.72,0,0,0-.975.51q-.2.165-.4.375t-.555.6V32h-1.8V27.515a2.326,2.326,0,0,0-.128-.923.464.464,0,0,0-.457-.262,1.263,1.263,0,0,0-.69.292,7.255,7.255,0,0,0-.99.923l-.24.255V32h-1.8V25.025h1.8V26.18a4.73,4.73,0,0,1,1.185-.99,2.545,2.545,0,0,1,1.23-.3,1.616,1.616,0,0,1,1.83,1.365,3.238,3.238,0,0,1,2.475-1.365q1.89,0,1.89,1.98V32Zm8.4-5.04q-.3-.195-.48-.3a3.535,3.535,0,0,0-.795-.353,2.785,2.785,0,0,0-.81-.127,1.646,1.646,0,0,0-.832.18.541.541,0,0,0-.308.48.511.511,0,0,0,.2.4,2.206,2.206,0,0,0,.675.33q.285.1.607.232t.615.263q.293.135.525.255a2.6,2.6,0,0,1,.352.21,1.659,1.659,0,0,1,.525.66,2.077,2.077,0,0,1,.2.885,1.86,1.86,0,0,1-.2.87,2,2,0,0,1-.563.667,2.613,2.613,0,0,1-.878.427,4.114,4.114,0,0,1-1.147.15,5.489,5.489,0,0,1-1.14-.135q-.24-.045-.435-.1a3.43,3.43,0,0,1-.383-.128q-.187-.075-.4-.172t-.5-.247l.57-1.455q.27.165.465.278t.36.2q.165.082.322.142t.353.12a2.463,2.463,0,0,0,.78.135,1.7,1.7,0,0,0,.81-.157.487.487,0,0,0,.285-.443q0-.465-.705-.735l-1.2-.465a3.447,3.447,0,0,1-1.365-.855,1.755,1.755,0,0,1-.435-1.2,1.938,1.938,0,0,1,.2-.892,2.052,2.052,0,0,1,.577-.69,2.715,2.715,0,0,1,.9-.45,4.007,4.007,0,0,1,1.155-.158,5.862,5.862,0,0,1,1.155.135q.24.045.428.1t.352.113a2.8,2.8,0,0,1,.338.15q.172.09.413.225Z" transform="translate(101.745 45)" fill="#1f1f1f"/>
  <path id="Pfad_14312" data-name="Pfad 14312" d="M13.65,9.91A13.533,13.533,0,0,0,8.52,8.5a3.95,3.95,0,0,0-2.13.495,1.559,1.559,0,0,0-.36,2.415A6.013,6.013,0,0,0,7.5,12.43a28.97,28.97,0,0,1,5.94,3.81,4.436,4.436,0,0,1,.99,1.56,5.437,5.437,0,0,1,.36,1.98,5.008,5.008,0,0,1-1.83,4.14,7.993,7.993,0,0,1-5.13,1.47q-.45,0-.9-.03t-.87-.09q-.54-.06-.96-.15a8.169,8.169,0,0,1-.87-.24q-.45-.15-.99-.39t-1.32-.6l-1.29-.6,1.59-3.48q.54.3.945.51t.72.36q.315.15.585.27t.57.24a10.512,10.512,0,0,0,1.5.42,6.952,6.952,0,0,0,1.35.15,3.63,3.63,0,0,0,2.1-.54,1.671,1.671,0,0,0,.78-1.44,1.709,1.709,0,0,0-.39-1.11,4.777,4.777,0,0,0-1.35-1.02L5.97,15.91a23.528,23.528,0,0,1-2.205-1.395,7.509,7.509,0,0,1-1.41-1.29,4.209,4.209,0,0,1-.75-1.32A4.673,4.673,0,0,1,1.38,10.42a5.224,5.224,0,0,1,.21-1.47,5.048,5.048,0,0,1,.57-1.29A5.686,5.686,0,0,1,3.63,6.19a9.068,9.068,0,0,1,1.065-.615,6.693,6.693,0,0,1,1.11-.42,6.882,6.882,0,0,1,1.26-.225q.675-.06,1.545-.06a14.3,14.3,0,0,1,1.89.12,12.478,12.478,0,0,1,1.83.39q.36.12.66.225t.615.225q.315.12.675.285t.87.4Zm8.85-1.5v5.1h6.96v3.18H22.5V25H18.72V5.2H30.99V8.41ZM48.39,19.72a4.914,4.914,0,0,1-1.56,3.93A6.784,6.784,0,0,1,42.27,25H34.2V5.2h7.17a12.713,12.713,0,0,1,3.03.285,4.563,4.563,0,0,1,3.06,2.64,4.714,4.714,0,0,1,.12,3.6,4.659,4.659,0,0,1-.84,1.455,4.206,4.206,0,0,1-1.38,1.08,5,5,0,0,1-1.77.36,4.944,4.944,0,0,1,3.48,1.41A5.051,5.051,0,0,1,48.39,19.72Zm-4.14-.42a2.462,2.462,0,0,0-.93-2.07,4.343,4.343,0,0,0-2.7-.72H38.16v5.46h2.46a9.622,9.622,0,0,0,1.365-.075,3.055,3.055,0,0,0,.915-.285,2.465,2.465,0,0,0,.99-.93A2.63,2.63,0,0,0,44.25,19.3Zm-.57-8.58a2.264,2.264,0,0,0-.81-1.86,3.467,3.467,0,0,0-2.25-.66H38.16v5.1h2.25Q43.68,13.3,43.68,10.72ZM61.5,25V13.3H58.11v-3h6.96V25Zm18.69-.78a6.7,6.7,0,0,1-.645,2.955,6.507,6.507,0,0,1-1.83,2.28,8.729,8.729,0,0,1-2.85,1.47,12.284,12.284,0,0,1-3.7.525h-.825q-.495,0-1.1-.03V28.57h1.17q.72,0,1.26-.03t.96-.09a7.73,7.73,0,0,0,.78-.15,6.951,6.951,0,0,0,.69-.21,3.8,3.8,0,0,0,1.02-.6,3.986,3.986,0,0,0,.81-.885,4.687,4.687,0,0,0,.525-1.05,3.372,3.372,0,0,0,.195-1.125q0-2.82-3.45-2.82H71.13V18.79a9.875,9.875,0,0,0,3.5-1.545A2.792,2.792,0,0,0,75.66,14.98a1.966,1.966,0,0,0-.45-1.35,1.487,1.487,0,0,0-1.17-.51,3.593,3.593,0,0,0-1.38.315,15.029,15.029,0,0,0-2.1,1.185l-1.5-2.43q.42-.3.75-.5t.57-.345a8.914,8.914,0,0,1,4.41-1.32,4.479,4.479,0,0,1,3.315,1.215A4.52,4.52,0,0,1,79.32,14.59a5.374,5.374,0,0,1-.33,1.92,3.913,3.913,0,0,1-.96,1.47,4.725,4.725,0,0,1-.9.66,15.879,15.879,0,0,1-1.47.69,5.156,5.156,0,0,1,3.33,1.53A4.736,4.736,0,0,1,80.19,24.22ZM86.1,25V13.3H82.71v-3h6.96V25Zm18.57-.93a6.787,6.787,0,0,1-2.85,5.88,8.245,8.245,0,0,1-2.46,1.17,9.117,9.117,0,0,1-.93.24,8.751,8.751,0,0,1-1.02.135q-.57.045-1.275.075t-1.665.03V28.39q.42,0,.72-.015t.51-.015q.78-.03,1.32-.06a5.912,5.912,0,0,0,.945-.12,5.2,5.2,0,0,0,.72-.21,3.585,3.585,0,0,0,.645-.33,3.487,3.487,0,0,0,1.245-1.335,3.922,3.922,0,0,0,.465-1.905q0-3.39-4.11-3.75l-2.1-.18V10.3h9.27v3H98.25v4.35l1.32.18a5.625,5.625,0,0,1,3.75,1.98A6.51,6.51,0,0,1,104.67,24.07Z" transform="translate(101.745 8)" fill="#1f1f1f"/>
</svg>