<?xml version="1.0" standalone="no"?>
<!DOCTYPE svg PUBLIC "-//W3C//DTD SVG 20010904//EN"
 "http://www.w3.org/TR/2001/REC-SVG-20010904/DTD/svg10.dtd">
<svg version="1.0" xmlns="http://www.w3.org/2000/svg"
 width="512.000000pt" height="512.000000pt" viewBox="0 0 512.000000 512.000000"
 preserveAspectRatio="xMidYMid meet">
<metadata>
Created by potrace 1.14, written by Peter Selinger 2001-2017
</metadata>
<g transform="translate(0.000000,512.000000) scale(0.100000,-0.100000)"
fill="#000000" stroke="none">
<path d="M943 4040 c-2 -3 -21 -6 -41 -6 -20 -1 -37 -3 -37 -4 0 -1 -13 -4
-30 -5 -33 -4 -49 -7 -115 -25 -25 -7 -53 -14 -62 -15 -9 -2 -26 -9 -37 -15
-12 -6 -21 -9 -21 -6 0 3 -34 -13 -75 -34 -41 -21 -75 -37 -75 -35 0 5 -30
-19 -55 -42 -8 -7 -17 -13 -22 -13 -4 0 -29 -22 -55 -49 -27 -27 -48 -47 -48
-44 0 3 -20 -21 -45 -53 -24 -33 -49 -64 -54 -70 -5 -7 -7 -15 -4 -18 4 -3 2
-6 -3 -6 -5 0 -21 -25 -34 -55 -13 -30 -28 -55 -33 -55 -4 0 -5 -9 -2 -20 3
-11 2 -20 -3 -20 -5 0 -9 -6 -10 -12 0 -7 -5 -31 -11 -53 -16 -68 -22 -123
-22 -218 -1 -51 0 -94 1 -97 1 -3 4 -18 5 -35 4 -45 15 -97 22 -109 6 -10 10
-26 15 -63 1 -7 5 -13 10 -13 4 0 8 -5 8 -11 0 -16 32 -82 47 -97 7 -7 13 -17
13 -22 0 -12 137 -150 149 -150 5 0 16 -6 23 -13 18 -18 165 -88 189 -90 10
-1 19 -4 19 -7 0 -5 48 -22 133 -45 4 -2 10 -4 15 -5 4 -1 11 -2 16 -1 4 1 13
-3 20 -8 6 -5 25 -11 41 -14 17 -3 57 -12 91 -21 33 -8 71 -18 85 -20 13 -2
24 -5 24 -6 0 -2 16 -5 60 -13 17 -3 68 -14 115 -25 47 -10 87 -19 90 -20 3 0
12 -3 20 -6 8 -2 29 -7 45 -10 84 -17 129 -30 183 -52 18 -8 39 -14 47 -14 8
0 15 -4 15 -8 0 -4 10 -9 22 -9 13 -1 28 -10 35 -19 7 -10 13 -14 13 -10 0 8
60 -33 86 -59 15 -15 34 -52 40 -78 3 -12 8 -33 11 -47 7 -31 7 -35 0 -85 -12
-85 -40 -138 -107 -202 -26 -25 -110 -69 -122 -65 -5 1 -8 -3 -8 -9 0 -5 -4
-7 -10 -4 -5 3 -16 3 -22 -2 -7 -4 -17 -8 -23 -9 -5 -1 -26 -5 -45 -9 -128
-26 -366 -26 -477 0 -13 3 -31 7 -40 9 -36 8 -109 40 -125 54 -10 8 -18 12
-18 9 0 -4 -9 1 -21 11 -48 40 -69 62 -69 72 0 5 -7 10 -15 10 -8 0 -14 3 -13
8 0 4 -10 30 -22 57 -13 28 -23 53 -22 58 1 4 -3 7 -9 7 -5 0 -8 3 -5 8 2 4
-3 36 -12 71 l-17 65 -275 0 -275 0 3 -94 c2 -52 6 -97 10 -100 4 -3 8 -14 8
-25 3 -34 10 -64 17 -71 4 -4 7 -13 7 -20 0 -8 11 -38 25 -69 13 -30 24 -58
24 -62 -1 -3 3 -9 8 -12 5 -3 19 -22 31 -41 20 -33 35 -53 81 -105 38 -43 103
-96 163 -135 35 -22 68 -43 73 -48 12 -9 38 -20 45 -18 3 0 17 -6 30 -15 32
-20 171 -71 178 -65 2 3 12 1 22 -4 28 -15 120 -32 245 -46 28 -3 55 -7 62 -9
6 -2 14 1 17 8 3 7 5 8 5 1 1 -7 50 -10 159 -7 179 4 202 6 219 16 6 4 14 1
16 -5 4 -10 8 -10 14 -1 4 6 26 12 48 14 22 1 47 6 55 10 8 4 33 10 54 13 22
4 45 11 51 16 7 5 15 7 18 3 4 -3 13 0 21 6 8 7 21 9 27 5 7 -4 9 -3 6 2 -3 6
14 16 39 23 24 7 44 17 44 22 0 5 8 9 19 9 10 0 24 7 31 15 7 8 17 15 23 15
15 0 144 98 167 127 11 14 20 22 20 18 0 -13 109 128 123 158 6 15 15 27 19
27 5 0 8 3 7 8 -2 16 14 52 24 52 6 0 8 3 5 6 -4 3 0 20 7 39 8 18 11 35 8 39
-4 3 -1 6 5 6 7 0 12 12 12 28 0 15 7 39 14 54 8 15 11 30 6 33 -5 3 -5 19 0
35 5 17 6 30 3 30 -3 0 1 8 8 17 8 9 9 14 3 10 -7 -4 -10 21 -10 79 1 47 -1
87 -5 89 -3 3 -6 18 -7 35 0 17 -8 52 -16 78 -9 26 -16 52 -17 57 -2 16 -72
140 -81 143 -4 2 -8 8 -8 14 0 15 -96 108 -151 145 -51 36 -189 105 -189 95 0
-3 -5 -1 -12 6 -7 7 -20 12 -30 12 -10 0 -18 5 -18 11 0 6 -6 9 -14 6 -7 -3
-26 1 -42 9 -16 9 -29 15 -29 14 0 -1 -28 4 -62 11 -35 7 -63 17 -63 22 0 4
-4 5 -10 2 -5 -3 -15 -3 -22 1 -6 4 -23 9 -37 10 -27 3 -64 11 -68 14 -2 2
-11 3 -20 4 -10 1 -22 4 -28 7 -5 4 -28 10 -50 14 -22 4 -51 9 -65 12 -14 3
-31 6 -37 6 -7 0 -13 5 -13 10 0 5 -9 7 -20 4 -11 -3 -20 -2 -20 2 0 4 -12 8
-27 9 -16 1 -53 9 -83 18 -30 9 -62 17 -70 18 -8 1 -35 8 -60 16 -25 7 -47 14
-50 15 -59 13 -110 31 -110 37 0 4 -3 7 -7 6 -5 -1 -21 4 -36 10 -16 7 -33 12
-38 12 -6 0 -7 5 -4 10 3 6 0 10 -8 10 -7 0 -25 12 -38 28 -30 33 -62 82 -53
82 4 0 2 6 -3 13 -5 6 -11 34 -12 62 -2 27 -5 53 -7 57 -3 5 -1 8 3 8 5 0 9 9
10 20 4 50 80 170 107 170 6 0 19 9 29 20 10 12 22 18 27 15 6 -3 10 -2 10 3
0 12 57 35 83 35 9 0 17 3 17 7 0 4 6 7 13 8 6 1 32 5 57 9 78 13 327 9 355
-6 6 -3 19 -7 30 -8 40 -6 126 -42 137 -58 4 -5 8 -6 8 -1 0 9 91 -61 103 -81
4 -6 13 -18 20 -25 19 -20 68 -128 62 -138 -3 -5 -1 -11 4 -15 5 -3 8 -14 6
-25 -2 -11 0 -22 5 -25 5 -3 7 -12 3 -20 -5 -13 31 -15 278 -13 l284 3 -1 30
c-1 31 -9 95 -20 155 -3 19 -7 40 -8 47 -1 7 -5 16 -9 19 -4 4 -7 13 -7 19 0
7 -6 28 -14 46 -8 19 -14 37 -15 42 -1 19 -70 130 -111 181 -34 41 -101 106
-110 106 -5 0 -10 4 -10 9 0 8 -71 59 -87 63 -5 1 -13 6 -20 12 -25 22 -39 31
-53 34 -8 2 -17 8 -18 13 -2 5 -8 7 -13 3 -5 -3 -9 0 -9 5 0 6 -3 10 -7 9 -5
-1 -21 5 -38 12 -16 7 -32 14 -35 15 -7 3 -38 14 -57 22 -10 4 -22 8 -28 8 -5
1 -17 5 -25 8 -39 16 -161 39 -217 41 -18 1 -33 6 -33 11 0 6 -5 3 -10 -5 -5
-8 -10 -10 -10 -4 0 11 -316 15 -327 4z"/>
<path d="M3890 3975 c0 -7 -198 -10 -575 -9 -523 1 -575 0 -576 -15 -4 -68 0
-463 5 -468 9 -9 76 -10 76 -1 0 3 12 3 28 -1 23 -6 87 -7 102 -1 8 3 64 1 85
-3 11 -2 30 0 43 4 12 5 22 5 22 1 0 -9 72 -8 87 1 7 4 14 3 18 -2 4 -7 15 -7
30 -1 14 5 25 6 25 2 0 -4 18 -7 40 -7 22 0 40 3 40 7 0 5 23 4 40 -2 14 -6
37 -5 58 2 15 5 21 4 17 -2 -4 -7 2 -7 19 0 14 5 28 6 30 1 6 -10 49 -7 67 5
8 4 9 3 5 -4 -5 -9 -1 -9 17 -3 16 6 28 6 36 -2 8 -8 11 -8 11 2 0 7 5 9 11 5
18 -11 53 -11 62 1 6 7 10 7 13 0 5 -12 66 -11 85 0 8 6 10 4 4 -4 -6 -10 -3
-11 14 -2 14 8 21 8 21 1 0 -7 6 -8 19 -1 10 6 21 7 25 4 3 -4 27 -8 54 -10
73 -5 106 -9 122 -15 8 -3 35 -11 60 -18 25 -7 57 -19 72 -26 15 -8 31 -15 35
-16 11 -3 50 -37 92 -79 57 -57 127 -207 145 -309 3 -14 5 -25 6 -25 1 0 3
-11 6 -25 2 -14 6 -38 9 -55 8 -45 16 -132 19 -210 2 -38 5 -72 6 -75 1 -3 1
-9 0 -15 -2 -5 -4 -44 -5 -85 -4 -89 -12 -183 -21 -225 -9 -44 -12 -59 -14
-65 -1 -3 -2 -8 -1 -12 0 -4 -4 -19 -9 -33 -5 -14 -12 -38 -15 -53 -2 -15 -13
-45 -24 -68 -11 -22 -23 -52 -26 -67 -4 -15 -11 -27 -15 -27 -4 0 -13 -13 -20
-30 -7 -16 -17 -30 -23 -30 -6 0 -8 -3 -4 -6 11 -12 -94 -123 -159 -167 -67
-45 -166 -78 -241 -81 -18 -1 -33 -3 -33 -6 0 -3 -13 -6 -30 -6 -16 -1 -30 3
-30 8 0 5 -5 6 -12 2 -18 -11 -228 -12 -221 0 4 5 1 6 -7 1 -19 -12 -240 -13
-233 -2 4 6 1 7 -7 2 -18 -11 -400 -13 -393 -2 3 5 -3 5 -13 0 -11 -5 -66 -9
-124 -8 l-105 0 2 -225 c0 -124 2 -234 2 -246 1 -16 7 -20 30 -18 16 1 34 5
40 8 5 4 12 2 15 -2 4 -7 101 -9 101 -2 0 5 57 5 60 -1 4 -5 100 -4 100 1 0 5
57 5 60 -1 4 -5 100 -4 100 1 0 5 57 5 60 -1 4 -5 100 -4 100 1 0 5 57 5 60
-1 4 -5 100 -4 100 1 0 5 57 5 60 -1 4 -5 95 -4 103 1 3 3 51 2 60 0 21 -8 88
-4 94 5 5 7 8 6 8 -1 0 -11 59 -12 77 -1 6 4 13 4 17 0 10 -11 56 -9 56 2 0 5
5 3 10 -5 5 -8 10 -10 10 -5 0 6 15 11 33 12 17 1 43 3 57 6 14 2 45 8 70 12
24 3 52 11 62 16 10 6 23 7 28 4 6 -3 10 -1 10 6 0 7 3 10 6 7 10 -11 195 73
228 104 11 10 26 18 33 18 8 0 11 5 8 10 -3 6 1 10 9 10 40 0 321 332 299 354
-3 3 -1 6 5 6 7 0 11 3 10 8 -1 4 10 32 24 62 55 115 84 193 80 213 -1 4 2 7
6 7 5 0 9 6 10 13 2 24 10 62 20 94 6 17 8 34 4 37 -3 3 -1 6 4 6 5 0 9 15 10
33 1 17 4 46 8 62 3 17 9 53 11 80 3 28 8 69 11 93 14 119 2 437 -17 474 -6
11 -5 19 1 23 7 4 8 11 2 18 -6 7 -9 23 -8 37 1 14 -1 27 -4 30 -3 3 -13 41
-23 85 -21 103 -23 110 -36 134 -6 11 -10 24 -9 28 1 4 -9 31 -21 58 -101 220
-233 385 -391 488 -68 44 -250 125 -250 111 0 -4 -6 -2 -12 4 -7 5 -35 13 -63
17 -27 5 -57 10 -65 12 -8 3 -25 4 -37 4 -12 0 -25 4 -28 9 -4 6 -15 6 -30 0
-14 -5 -25 -6 -25 -2 0 4 -42 7 -93 7 -50 0 -95 5 -99 10 -5 7 -8 7 -8 0z"/>
<path d="M2643 2867 c-29 -4 -53 -13 -53 -18 0 -5 -9 -9 -19 -9 -10 0 -22 -7
-25 -16 -4 -9 -9 -14 -12 -11 -6 6 -54 -40 -54 -53 0 -6 -4 -10 -9 -10 -10 0
-40 -59 -47 -93 -3 -12 -6 -26 -7 -32 -2 -5 -6 -16 -10 -22 -5 -8 -3 -13 4
-13 8 0 9 -3 0 -13 -6 -8 -8 -16 -6 -19 3 -3 7 -18 9 -34 5 -39 36 -114 47
-114 5 0 9 -7 9 -15 0 -8 4 -15 8 -15 5 0 15 -11 22 -25 7 -13 17 -22 21 -19
4 2 11 -1 15 -7 7 -11 87 -51 114 -56 19 -3 93 -6 100 -3 5 2 46 9 68 12 6 1
12 5 12 9 0 4 10 9 23 12 12 4 47 29 77 57 68 64 142 100 209 103 28 1 51 4
51 7 0 3 17 4 37 3 21 -1 38 -2 38 -3 0 -1 27 -3 60 -4 119 -6 165 -25 241
-101 65 -64 94 -89 94 -80 0 3 10 0 22 -6 37 -20 125 -28 178 -16 45 10 90 29
90 38 0 5 6 9 14 9 8 0 23 11 34 25 11 13 22 22 24 19 8 -8 66 110 63 129 -2
9 1 15 6 11 12 -7 5 148 -7 167 -5 8 -9 21 -11 29 -1 8 -7 16 -12 18 -6 2 -11
8 -11 13 0 5 -8 18 -17 30 -70 85 -182 128 -285 109 -69 -13 -117 -40 -190
-103 -33 -29 -64 -51 -69 -49 -5 1 -9 -2 -9 -6 0 -12 -73 -33 -127 -38 -24 -2
-48 -6 -53 -9 -6 -4 -10 -2 -10 2 0 7 -44 9 -60 3 -3 -1 -9 -2 -14 -1 -17 4
-91 13 -106 13 -8 0 -21 5 -27 11 -7 5 -13 7 -13 3 0 -3 -18 5 -40 19 -22 14
-45 25 -51 25 -7 0 -10 3 -6 6 3 3 -18 26 -46 50 -76 65 -76 66 -87 59 -6 -3
-10 -1 -10 5 0 6 -4 9 -9 6 -5 -4 -11 -2 -13 3 -4 14 -104 19 -165 8z"/>
</g>
</svg>
